<svg width="124" height="36" viewBox="0 0 124 36" fill="none" xmlns="http://www.w3.org/2000/svg">
<path d="M2.42931 8.23893V7.25893H12.9993C15.4493 7.25893 17.3393 7.80726 18.6692 8.90393C19.9992 10.0006 20.6642 11.4706 20.6642 13.3139V14.1189C20.6642 15.5189 20.2792 16.7089 19.5092 17.6889C18.7392 18.6689 17.6309 19.3689 16.1843 19.7889L20.5592 28.1188C20.8392 28.6322 21.0492 29.0055 21.1892 29.2388C21.3292 29.4722 21.4576 29.6238 21.5742 29.6938C21.7142 29.7405 21.9009 29.7872 22.1342 29.8338L23.7092 30.0788V31.0588H17.1643L11.8793 20.2089H9.32428V28.1188C9.32428 28.9122 9.35928 29.3905 9.42928 29.5538C9.49928 29.6938 9.72095 29.7872 10.0943 29.8338L12.0193 30.0788V31.0588H2.42931V30.0788L4.3543 29.8338C4.72763 29.7872 4.9493 29.6938 5.0193 29.5538C5.0893 29.3905 5.1243 28.9122 5.1243 28.1188V10.1989C5.1243 9.40559 5.0893 8.93893 5.0193 8.79893C4.9493 8.63559 4.72763 8.53059 4.3543 8.48393L2.42931 8.23893ZM12.9993 8.48393H9.32428V18.9839H12.9993C14.0259 18.9839 14.8076 18.6689 15.3443 18.0389C15.9043 17.3856 16.1843 16.1956 16.1843 14.4689V12.9639C16.1843 11.2373 15.9043 10.0589 15.3443 9.42892C14.8076 8.79893 14.0259 8.48393 12.9993 8.48393ZM24.7021 8.23893V7.25893H34.292V8.23893L32.367 8.48393C31.9937 8.53059 31.772 8.63559 31.702 8.79893C31.632 8.93893 31.597 9.40559 31.597 10.1989V28.1188C31.597 28.9122 31.632 29.3905 31.702 29.5538C31.772 29.6938 31.9937 29.7872 32.367 29.8338L34.292 30.0788V31.0588H24.7021V30.0788L26.6271 29.8338C27.0004 29.7872 27.2221 29.6938 27.2921 29.5538C27.3621 29.3905 27.3971 28.9122 27.3971 28.1188V10.1989C27.3971 9.40559 27.3621 8.93893 27.2921 8.79893C27.2221 8.63559 27.0004 8.53059 26.6271 8.48393L24.7021 8.23893ZM41.8293 30.0788V31.0588H35.0743V30.0788L36.9993 29.8338C37.256 29.7872 37.4427 29.7405 37.5593 29.6938C37.676 29.6238 37.781 29.4722 37.8743 29.2388C37.9677 29.0055 38.096 28.6322 38.2593 28.1188L44.9443 7.25893H47.9543L54.6743 28.1188C54.8376 28.6322 54.9659 29.0055 55.0593 29.2388C55.1526 29.4722 55.2576 29.6238 55.3743 29.6938C55.5143 29.7405 55.7009 29.7872 55.9343 29.8338L57.8592 30.0788V31.0588H48.1993V30.0788L50.1243 29.8338C50.4976 29.7872 50.6959 29.6938 50.7193 29.5538C50.7659 29.3905 50.6609 28.9122 50.4043 28.1188L49.0743 23.7789H40.9893L39.6243 28.1188C39.391 28.9122 39.286 29.3905 39.3093 29.5538C39.3327 29.6938 39.531 29.7872 39.9043 29.8338L41.8293 30.0788ZM41.4093 22.5539H48.6893L45.0843 10.9339L41.4093 22.5539ZM87.9919 8.23893V7.25893H94.7819V8.23893L92.8569 8.48393C92.4836 8.53059 92.2619 8.63559 92.1919 8.79893C92.1219 8.93893 92.0869 9.40559 92.0869 10.1989V31.0588H90.1619L77.317 10.3039V28.1188C77.317 28.9122 77.352 29.3905 77.422 29.5538C77.492 29.6938 77.7136 29.7872 78.087 29.8338L80.012 30.0788V31.0588H73.222V30.0788L75.147 29.8338C75.5203 29.7872 75.742 29.6938 75.812 29.5538C75.882 29.3905 75.917 28.9122 75.917 28.1188V10.1989C75.917 9.40559 75.882 8.93893 75.812 8.79893C75.742 8.63559 75.5203 8.53059 75.147 8.48393L73.222 8.23893V7.25893H80.257L90.6869 24.0239V10.1989C90.6869 9.40559 90.6519 8.93893 90.5819 8.79893C90.5119 8.63559 90.2903 8.53059 89.9169 8.48393L87.9919 8.23893ZM112.02 25.0389H113V31.0588H96.5502V30.1838L107.89 8.48393H101.1C100.564 8.48393 100.167 8.50726 99.9102 8.55393C99.6769 8.57726 99.5252 8.65893 99.4552 8.79893C99.3852 8.91559 99.3035 9.11393 99.2102 9.39392L98.0902 13.2789H97.1102V7.25893H112.65V8.13393L101.31 29.8338H109.01C109.57 29.8338 109.967 29.8222 110.2 29.7988C110.433 29.7522 110.585 29.6705 110.655 29.5538C110.748 29.4138 110.83 29.2038 110.9 28.9238L112.02 25.0389Z" fill="#8E8E8E"/>
<circle cx="65.2061" cy="17.5591" r="4.39115" fill="#8E8E8E"/>
</svg>
