<svg width="135" height="37" viewBox="0 0 135 37" fill="none" xmlns="http://www.w3.org/2000/svg">
<path fill-rule="evenodd" clip-rule="evenodd" d="M23.0225 15.8862H31.4212L23.0225 9.54004V15.8862ZM31.4211 15.8872H23.0225V25.5784H31.4211V15.8872Z" fill="#8E8E8E"/>
<path fill-rule="evenodd" clip-rule="evenodd" d="M23.0221 0.0571289H0.784668V35.0604H23.0221V25.5785H14.6239V15.8873H23.0221V15.8864H14.6237L23.0221 9.54042V0.0571289Z" fill="#8E8E8E"/>
<path d="M49.3898 17.624H46.4508L42.5371 11.716V17.624H39.598V7.05251H42.5371L46.4508 13.0355V7.05251H49.3898V17.624ZM55.0227 15.2398H59.4162V17.624H51.7238V15.3898L56.0723 9.42173H51.7238V7.05251H59.4162V9.28677L55.0227 15.2398ZM74.8414 7.05251V17.624H71.9024V13.3804H68.3186V17.624H65.3796V7.05251H68.3186V11.0262H71.9024V7.05251H74.8414ZM81.1868 17.729C80.3471 17.729 79.5923 17.554 78.9226 17.2042C78.2628 16.8543 77.7429 16.3544 77.3631 15.7047C76.9832 15.0549 76.7933 14.2901 76.7933 13.4104C76.7933 12.5407 76.9832 11.7809 77.3631 11.1312C77.7529 10.4814 78.2778 9.98154 78.9376 9.63166C79.6073 9.28177 80.3621 9.10683 81.2018 9.10683C82.0415 9.10683 82.7913 9.28177 83.4511 9.63166C84.1208 9.98154 84.6457 10.4814 85.0255 11.1312C85.4154 11.7809 85.6104 12.5407 85.6104 13.4104C85.6104 14.2801 85.4154 15.0449 85.0255 15.7047C84.6457 16.3544 84.1208 16.8543 83.4511 17.2042C82.7813 17.554 82.0265 17.729 81.1868 17.729ZM81.1868 15.1798C81.5967 15.1798 81.9366 15.0299 82.2065 14.73C82.4864 14.4201 82.6263 13.9802 82.6263 13.4104C82.6263 12.8406 82.4864 12.4057 82.2065 12.1058C81.9366 11.8059 81.6017 11.656 81.2018 11.656C80.8019 11.656 80.4671 11.8059 80.1971 12.1058C79.9272 12.4057 79.7923 12.8406 79.7923 13.4104C79.7923 13.9902 79.9222 14.4301 80.1821 14.73C80.4421 15.0299 80.7769 15.1798 81.1868 15.1798ZM96.163 9.2118V17.624H93.209V16.4244C92.9591 16.8043 92.6142 17.1142 92.1743 17.3541C91.7345 17.584 91.2296 17.699 90.6598 17.699C89.6801 17.699 88.9054 17.3791 88.3356 16.7393C87.7758 16.0895 87.4959 15.2098 87.4959 14.1002V9.2118H90.4199V13.7253C90.4199 14.2052 90.5449 14.585 90.7948 14.8649C91.0547 15.1348 91.3946 15.2698 91.8144 15.2698C92.2443 15.2698 92.5842 15.1348 92.8341 14.8649C93.084 14.585 93.209 14.2052 93.209 13.7253V9.2118H96.163ZM102.169 17.729C101.409 17.729 100.73 17.604 100.13 17.3541C99.5401 17.0942 99.0703 16.7443 98.7204 16.3045C98.3805 15.8546 98.1905 15.3498 98.1506 14.79H101C101.04 15.0599 101.165 15.2698 101.374 15.4198C101.584 15.5697 101.844 15.6447 102.154 15.6447C102.394 15.6447 102.584 15.5947 102.724 15.4947C102.864 15.3948 102.934 15.2648 102.934 15.1049C102.934 14.8949 102.819 14.74 102.589 14.64C102.359 14.54 101.979 14.4301 101.449 14.3101C100.85 14.1902 100.35 14.0552 99.95 13.9052C99.5501 13.7553 99.2002 13.5104 98.9003 13.1705C98.6104 12.8306 98.4655 12.3708 98.4655 11.7909C98.4655 11.2911 98.6004 10.8413 98.8703 10.4414C99.1402 10.0315 99.5351 9.70663 100.055 9.46671C100.585 9.22679 101.22 9.10683 101.959 9.10683C103.059 9.10683 103.924 9.37674 104.553 9.91656C105.183 10.4564 105.548 11.1662 105.648 12.0459H102.994C102.944 11.776 102.824 11.571 102.634 11.4311C102.454 11.2811 102.209 11.2061 101.899 11.2061C101.659 11.2061 101.474 11.2511 101.345 11.3411C101.225 11.4311 101.165 11.556 101.165 11.716C101.165 11.9159 101.28 12.0709 101.509 12.1808C101.739 12.2808 102.109 12.3857 102.619 12.4957C103.229 12.6257 103.734 12.7706 104.134 12.9306C104.543 13.0905 104.898 13.3504 105.198 13.7103C105.508 14.0602 105.663 14.54 105.663 15.1498C105.663 15.6397 105.518 16.0795 105.228 16.4694C104.948 16.8593 104.543 17.1692 104.014 17.3991C103.494 17.619 102.879 17.729 102.169 17.729ZM109.342 8.43205C108.822 8.43205 108.403 8.2921 108.083 8.01219C107.773 7.72229 107.618 7.36241 107.618 6.93255C107.618 6.49269 107.773 6.12781 108.083 5.83791C108.403 5.548 108.822 5.40305 109.342 5.40305C109.852 5.40305 110.262 5.548 110.572 5.83791C110.892 6.12781 111.052 6.49269 111.052 6.93255C111.052 7.36241 110.892 7.72229 110.572 8.01219C110.262 8.2921 109.852 8.43205 109.342 8.43205ZM110.797 9.2118V17.624H107.858V9.2118H110.797ZM118.723 9.13682C119.693 9.13682 120.463 9.46171 121.033 10.1115C121.602 10.7513 121.887 11.621 121.887 12.7206V17.624H118.948V13.1105C118.948 12.6307 118.823 12.2558 118.573 11.9859C118.324 11.706 117.989 11.566 117.569 11.566C117.129 11.566 116.784 11.706 116.534 11.9859C116.284 12.2558 116.159 12.6307 116.159 13.1105V17.624H113.22V9.2118H116.159V10.4114C116.419 10.0315 116.769 9.72663 117.209 9.4967C117.649 9.25678 118.154 9.13682 118.723 9.13682ZM127.354 9.10683C127.924 9.10683 128.418 9.22179 128.838 9.45172C129.268 9.68164 129.598 9.99154 129.828 10.3814V9.2118H132.767V17.5341C132.767 18.3238 132.617 19.0336 132.317 19.6634C132.017 20.3031 131.547 20.813 130.908 21.1928C130.278 21.5727 129.478 21.7627 128.508 21.7627C127.209 21.7627 126.169 21.4578 125.389 20.848C124.61 20.2382 124.165 19.4084 124.055 18.3588H126.949C127.009 18.6287 127.159 18.8386 127.399 18.9886C127.639 19.1385 127.949 19.2135 128.328 19.2135C129.328 19.2135 129.828 18.6537 129.828 17.5341V16.4544C129.598 16.8443 129.268 17.1542 128.838 17.3841C128.418 17.614 127.924 17.729 127.354 17.729C126.684 17.729 126.074 17.554 125.524 17.2042C124.985 16.8543 124.555 16.3544 124.235 15.7047C123.925 15.0449 123.77 14.2801 123.77 13.4104C123.77 12.5407 123.925 11.7809 124.235 11.1312C124.555 10.4814 124.985 9.98154 125.524 9.63166C126.074 9.28177 126.684 9.10683 127.354 9.10683ZM129.828 13.4104C129.828 12.8706 129.678 12.4457 129.378 12.1358C129.088 11.8259 128.728 11.671 128.298 11.671C127.859 11.671 127.494 11.8259 127.204 12.1358C126.914 12.4357 126.769 12.8606 126.769 13.4104C126.769 13.9502 126.914 14.3801 127.204 14.7C127.494 15.0099 127.859 15.1648 128.298 15.1648C128.728 15.1648 129.088 15.0099 129.378 14.7C129.678 14.3901 129.828 13.9602 129.828 13.4104ZM43.5867 32.729C42.3571 32.729 41.3474 32.4391 40.5577 31.8593C39.768 31.2695 39.3431 30.4297 39.2831 29.3401H42.4171C42.4471 29.71 42.557 29.9799 42.747 30.1498C42.9369 30.3198 43.1818 30.4048 43.4817 30.4048C43.7517 30.4048 43.9716 30.3398 44.1415 30.2098C44.3215 30.0699 44.4114 29.8799 44.4114 29.64C44.4114 29.3301 44.2665 29.0902 43.9766 28.9202C43.6867 28.7503 43.2168 28.5604 42.567 28.3504C41.8773 28.1205 41.3175 27.9006 40.8876 27.6906C40.4677 27.4707 40.0979 27.1558 39.778 26.746C39.4681 26.3261 39.3131 25.7813 39.3131 25.1115C39.3131 24.4317 39.4831 23.8519 39.8229 23.3721C40.1628 22.8822 40.6327 22.5124 41.2325 22.2624C41.8323 22.0125 42.5121 21.8876 43.2718 21.8876C44.5014 21.8876 45.4811 22.1775 46.2108 22.7573C46.9506 23.3271 47.3455 24.1318 47.3955 25.1715H44.2015C44.1915 24.8516 44.0915 24.6117 43.9016 24.4517C43.7217 24.2918 43.4867 24.2118 43.1968 24.2118C42.9769 24.2118 42.797 24.2768 42.657 24.4067C42.5171 24.5367 42.4471 24.7216 42.4471 24.9615C42.4471 25.1615 42.5221 25.3364 42.672 25.4864C42.832 25.6263 43.0269 25.7513 43.2568 25.8613C43.4867 25.9612 43.8266 26.0912 44.2765 26.2511C44.9463 26.481 45.4961 26.711 45.9259 26.9409C46.3658 27.1608 46.7407 27.4757 47.0506 27.8856C47.3705 28.2855 47.5304 28.7953 47.5304 29.4151C47.5304 30.0449 47.3705 30.6097 47.0506 31.1095C46.7407 31.6094 46.2858 32.0042 45.686 32.2941C45.0962 32.584 44.3964 32.729 43.5867 32.729ZM53.5602 32.729C52.7205 32.729 51.9657 32.554 51.2959 32.2042C50.6361 31.8543 50.1163 31.3544 49.7364 30.7047C49.3566 30.0549 49.1666 29.2901 49.1666 28.4104C49.1666 27.5407 49.3566 26.7809 49.7364 26.1312C50.1263 25.4814 50.6511 24.9815 51.3109 24.6317C51.9807 24.2818 52.7355 24.1068 53.5752 24.1068C54.4149 24.1068 55.1647 24.2818 55.8244 24.6317C56.4942 24.9815 57.019 25.4814 57.3989 26.1312C57.7888 26.7809 57.9837 27.5407 57.9837 28.4104C57.9837 29.2801 57.7888 30.0449 57.3989 30.7047C57.019 31.3544 56.4942 31.8543 55.8244 32.2042C55.1547 32.554 54.3999 32.729 53.5602 32.729ZM53.5602 30.1798C53.97 30.1798 54.3099 30.0299 54.5798 29.73C54.8598 29.4201 54.9997 28.9802 54.9997 28.4104C54.9997 27.8406 54.8598 27.4057 54.5798 27.1058C54.3099 26.8059 53.975 26.656 53.5752 26.656C53.1753 26.656 52.8404 26.8059 52.5705 27.1058C52.3006 27.4057 52.1656 27.8406 52.1656 28.4104C52.1656 28.9902 52.2956 29.4301 52.5555 29.73C52.8154 30.0299 53.1503 30.1798 53.5602 30.1798ZM59.4494 28.4104C59.4494 27.5407 59.6293 26.7809 59.9892 26.1312C60.3491 25.4814 60.8489 24.9815 61.4887 24.6317C62.1385 24.2818 62.8782 24.1068 63.708 24.1068C64.7776 24.1068 65.6773 24.4017 66.4071 24.9915C67.1368 25.5713 67.6067 26.3861 67.8166 27.4357H64.6976C64.5177 26.8859 64.1678 26.611 63.648 26.611C63.2781 26.611 62.9832 26.766 62.7633 27.0759C62.5533 27.3758 62.4484 27.8206 62.4484 28.4104C62.4484 29.0002 62.5533 29.4501 62.7633 29.76C62.9832 30.0699 63.2781 30.2248 63.648 30.2248C64.1778 30.2248 64.5277 29.9499 64.6976 29.4001H67.8166C67.6067 30.4397 67.1368 31.2545 66.4071 31.8443C65.6773 32.4341 64.7776 32.729 63.708 32.729C62.8782 32.729 62.1385 32.554 61.4887 32.2042C60.8489 31.8543 60.3491 31.3544 59.9892 30.7047C59.6293 30.0549 59.4494 29.2901 59.4494 28.4104ZM71.2718 23.4321C70.752 23.4321 70.3321 23.2921 70.0122 23.0122C69.7023 22.7223 69.5474 22.3624 69.5474 21.9325C69.5474 21.4927 69.7023 21.1278 70.0122 20.8379C70.3321 20.548 70.752 20.4031 71.2718 20.4031C71.7816 20.4031 72.1915 20.548 72.5014 20.8379C72.8213 21.1278 72.9812 21.4927 72.9812 21.9325C72.9812 22.3624 72.8213 22.7223 72.5014 23.0122C72.1915 23.2921 71.7816 23.4321 71.2718 23.4321ZM72.7263 24.2118V32.624H69.7873V24.2118H72.7263ZM83.1871 28.3204C83.1871 28.5504 83.1721 28.7803 83.1421 29.0102H77.579C77.609 29.4701 77.7339 29.8149 77.9539 30.0449C78.1838 30.2648 78.4737 30.3748 78.8236 30.3748C79.3134 30.3748 79.6633 30.1548 79.8732 29.715H83.0072C82.8772 30.2948 82.6223 30.8146 82.2424 31.2745C81.8726 31.7243 81.4027 32.0792 80.8329 32.3391C80.2631 32.599 79.6333 32.729 78.9435 32.729C78.1138 32.729 77.374 32.554 76.7243 32.2042C76.0845 31.8543 75.5796 31.3544 75.2098 30.7047C74.8499 30.0549 74.6699 29.2901 74.6699 28.4104C74.6699 27.5307 74.8499 26.771 75.2098 26.1312C75.5696 25.4814 76.0695 24.9815 76.7093 24.6317C77.3591 24.2818 78.1038 24.1068 78.9435 24.1068C79.7733 24.1068 80.508 24.2768 81.1478 24.6167C81.7876 24.9566 82.2874 25.4464 82.6473 26.0862C83.0072 26.716 83.1871 27.4607 83.1871 28.3204ZM80.1881 27.5857C80.1881 27.2258 80.0682 26.9459 79.8282 26.746C79.5883 26.536 79.2884 26.4311 78.9285 26.4311C78.5687 26.4311 78.2738 26.531 78.0438 26.731C77.8139 26.9209 77.664 27.2058 77.594 27.5857H80.1881ZM90.103 30.1198V32.624H88.8284C86.6791 32.624 85.6045 31.5594 85.6045 29.4301V26.656H84.5698V24.2118H85.6045V22.1725H88.5585V24.2118H90.088V26.656H88.5585V29.4751C88.5585 29.705 88.6085 29.8699 88.7085 29.9699C88.8184 30.0699 88.9984 30.1198 89.2483 30.1198H90.103ZM101.258 24.2118L95.9196 36.6277H92.7256L94.735 32.2641L91.2861 24.2118H94.555L96.3244 28.9802L98.0339 24.2118H101.258Z" fill="#8E8E8E"/>
</svg>
