<svg width="157" height="36" viewBox="0 0 157 36" fill="none" xmlns="http://www.w3.org/2000/svg">
<path fill-rule="evenodd" clip-rule="evenodd" d="M0.423828 0.0583496C0.423828 0.0587234 0.423828 0.0590973 0.423828 0.0594711C0.423828 9.72498 8.25927 17.5604 17.9248 17.5604C27.5903 17.5604 35.4257 9.72498 35.4257 0.0594711C35.4257 0.0590973 35.4257 0.0587234 35.4257 0.0583496H0.423828Z" fill="#8E8E8E"/>
<path fill-rule="evenodd" clip-rule="evenodd" d="M35.4228 35.0581V35.0587L0.420898 35.0587V35.0581C0.420898 25.3926 8.25634 17.5571 17.9219 17.5571C27.5874 17.5571 35.4228 25.3926 35.4228 35.0581ZM30.063 35.0582V35.0584L5.78242 35.0584V35.0582C5.78242 28.3533 11.2178 22.9179 17.9227 22.9179C24.6276 22.9179 30.063 28.3533 30.063 35.0582Z" fill="#8E8E8E"/>
<path d="M41.7346 14.1877V4.17066H44.0672L49.5909 10.8392H48.489V4.17066H51.2652V14.1877H48.9326L43.4089 7.51923H44.5108V14.1877H41.7346ZM56.9844 14.3165C56.0686 14.3165 55.2672 14.1448 54.5803 13.8014C53.903 13.4484 53.3735 12.9714 52.9919 12.3704C52.6198 11.7598 52.4338 11.0681 52.4338 10.2954C52.4338 9.52264 52.615 8.83576 52.9776 8.23473C53.3496 7.62417 53.86 7.15193 54.5088 6.81803C55.1575 6.47459 55.8873 6.30287 56.6982 6.30287C57.4614 6.30287 58.1578 6.46028 58.7875 6.7751C59.4171 7.08038 59.918 7.53354 60.29 8.13456C60.6621 8.73559 60.8481 9.4654 60.8481 10.324C60.8481 10.4194 60.8434 10.5291 60.8338 10.6531C60.8243 10.7772 60.8147 10.8916 60.8052 10.9966H54.6662V9.56557H59.3599L58.3296 9.96626C58.3391 9.61327 58.2723 9.30799 58.1292 9.05041C57.9957 8.79283 57.8049 8.59248 57.5568 8.44938C57.3183 8.30628 57.0369 8.23473 56.7125 8.23473C56.3882 8.23473 56.1019 8.30628 55.8539 8.44938C55.6154 8.59248 55.4294 8.7976 55.2958 9.06472C55.1622 9.3223 55.0955 9.62758 55.0955 9.98057V10.3956C55.0955 10.7772 55.1718 11.1063 55.3244 11.383C55.4866 11.6596 55.7156 11.8743 56.0113 12.0269C56.3071 12.17 56.66 12.2416 57.0703 12.2416C57.4519 12.2416 57.7762 12.1891 58.0434 12.0842C58.32 11.9697 58.5919 11.798 58.859 11.569L60.29 13.0572C59.918 13.4675 59.4601 13.7823 58.9163 14.0017C58.3725 14.2116 57.7285 14.3165 56.9844 14.3165ZM63.5933 14.1877L60.8315 6.43166H63.4073L65.5968 12.9141H64.3661L66.6414 6.43166H68.9596L71.1491 12.9141H69.947L72.208 6.43166H74.5978L71.836 14.1877H69.2029L67.3426 8.82145H68.144L66.2264 14.1877H63.5933ZM78.7917 14.1877V12.4133L84.6875 5.41564L85.0309 6.41735H78.9205V4.17066H87.5495V5.94511L81.6537 12.9428L81.3103 11.9411H87.7641V14.1877H78.7917ZM92.6837 14.3165C91.7678 14.3165 90.9665 14.1448 90.2796 13.8014C89.6023 13.4484 89.0728 12.9714 88.6912 12.3704C88.3191 11.7598 88.1331 11.0681 88.1331 10.2954C88.1331 9.52264 88.3143 8.83576 88.6769 8.23473C89.0489 7.62417 89.5593 7.15193 90.208 6.81803C90.8568 6.47459 91.5866 6.30287 92.3975 6.30287C93.1607 6.30287 93.8571 6.46028 94.4868 6.7751C95.1164 7.08038 95.6173 7.53354 95.9893 8.13456C96.3614 8.73559 96.5474 9.4654 96.5474 10.324C96.5474 10.4194 96.5427 10.5291 96.5331 10.6531C96.5236 10.7772 96.514 10.8916 96.5045 10.9966H90.3655V9.56557H95.0592L94.0288 9.96626C94.0384 9.61327 93.9716 9.30799 93.8285 9.05041C93.6949 8.79283 93.5041 8.59248 93.2561 8.44938C93.0176 8.30628 92.7362 8.23473 92.4118 8.23473C92.0874 8.23473 91.8012 8.30628 91.5532 8.44938C91.3147 8.59248 91.1287 8.7976 90.9951 9.06472C90.8615 9.3223 90.7948 9.62758 90.7948 9.98057V10.3956C90.7948 10.7772 90.8711 11.1063 91.0237 11.383C91.1859 11.6596 91.4149 11.8743 91.7106 12.0269C92.0064 12.17 92.3593 12.2416 92.7696 12.2416C93.1512 12.2416 93.4755 12.1891 93.7426 12.0842C94.0193 11.9697 94.2912 11.798 94.5583 11.569L95.9893 13.0572C95.6173 13.4675 95.1593 13.7823 94.6156 14.0017C94.0718 14.2116 93.4278 14.3165 92.6837 14.3165ZM102.113 14.1877V12.7424L101.927 12.3847V9.72298C101.927 9.29368 101.794 8.96455 101.527 8.73559C101.269 8.49708 100.854 8.37783 100.282 8.37783C99.9096 8.37783 99.5328 8.43984 99.1512 8.56386C98.7696 8.67835 98.4452 8.84053 98.1781 9.05041L97.2623 7.2044C97.7011 6.9182 98.2258 6.69878 98.8364 6.54614C99.4565 6.38396 100.072 6.30287 100.682 6.30287C101.942 6.30287 102.915 6.59384 103.602 7.17578C104.298 7.74819 104.646 8.64973 104.646 9.8804V14.1877H102.113ZM99.8238 14.3165C99.2037 14.3165 98.679 14.2116 98.2497 14.0017C97.8204 13.7918 97.4912 13.5056 97.2623 13.1431C97.0428 12.7806 96.9331 12.3751 96.9331 11.9267C96.9331 11.4497 97.0524 11.0395 97.2909 10.6961C97.5389 10.3431 97.9158 10.076 98.4214 9.89471C98.927 9.7039 99.5805 9.6085 100.382 9.6085H102.214V11.0252H100.754C100.315 11.0252 100.005 11.0968 99.8238 11.2399C99.6521 11.383 99.5662 11.5738 99.5662 11.8123C99.5662 12.0508 99.6568 12.2416 99.8381 12.3847C100.019 12.5278 100.267 12.5993 100.582 12.5993C100.878 12.5993 101.145 12.5278 101.384 12.3847C101.632 12.232 101.813 12.0031 101.927 11.6978L102.299 12.6995C102.156 13.2337 101.875 13.6392 101.455 13.9159C101.045 14.183 100.501 14.3165 99.8238 14.3165ZM106.148 14.1877V3.56963H108.867V14.1877H106.148ZM115.156 14.1877V12.7424L114.97 12.3847V9.72298C114.97 9.29368 114.836 8.96455 114.569 8.73559C114.311 8.49708 113.896 8.37783 113.324 8.37783C112.952 8.37783 112.575 8.43984 112.194 8.56386C111.812 8.67835 111.488 8.84053 111.22 9.05041L110.305 7.2044C110.743 6.9182 111.268 6.69878 111.879 6.54614C112.499 6.38396 113.114 6.30287 113.725 6.30287C114.984 6.30287 115.957 6.59384 116.644 7.17578C117.34 7.74819 117.689 8.64973 117.689 9.8804V14.1877H115.156ZM112.866 14.3165C112.246 14.3165 111.721 14.2116 111.292 14.0017C110.863 13.7918 110.534 13.5056 110.305 13.1431C110.085 12.7806 109.975 12.3751 109.975 11.9267C109.975 11.4497 110.095 11.0395 110.333 10.6961C110.581 10.3431 110.958 10.076 111.464 9.89471C111.969 9.7039 112.623 9.6085 113.424 9.6085H115.256V11.0252H113.796C113.357 11.0252 113.047 11.0968 112.866 11.2399C112.694 11.383 112.609 11.5738 112.609 11.8123C112.609 12.0508 112.699 12.2416 112.88 12.3847C113.062 12.5278 113.31 12.5993 113.625 12.5993C113.92 12.5993 114.187 12.5278 114.426 12.3847C114.674 12.232 114.855 12.0031 114.97 11.6978L115.342 12.6995C115.199 13.2337 114.917 13.6392 114.497 13.9159C114.087 14.183 113.543 14.3165 112.866 14.3165ZM124.242 6.30287C124.843 6.30287 125.386 6.42689 125.873 6.67493C126.36 6.91343 126.741 7.28549 127.018 7.79112C127.304 8.29674 127.447 8.95024 127.447 9.75161V14.1877H124.728V10.1952C124.728 9.64189 124.614 9.24121 124.385 8.99317C124.165 8.73559 123.855 8.6068 123.455 8.6068C123.168 8.6068 122.906 8.67358 122.668 8.80714C122.429 8.93116 122.243 9.12673 122.109 9.39385C121.976 9.66097 121.909 10.0092 121.909 10.4385V14.1877H119.19V6.43166H121.78V8.63542L121.279 7.99146C121.575 7.42859 121.981 7.00883 122.496 6.73217C123.011 6.44597 123.593 6.30287 124.242 6.30287ZM132.415 14.3165C131.709 14.3165 131.065 14.1544 130.483 13.83C129.91 13.4961 129.452 13.0334 129.109 12.4419C128.765 11.8409 128.594 11.1254 128.594 10.2954C128.594 9.47494 128.765 8.76898 129.109 8.17749C129.452 7.57647 129.91 7.11377 130.483 6.78941C131.065 6.46505 131.709 6.30287 132.415 6.30287C133.082 6.30287 133.645 6.44597 134.103 6.73217C134.571 7.01837 134.924 7.45721 135.162 8.0487C135.401 8.64019 135.52 9.38908 135.52 10.2954C135.52 11.2208 135.405 11.9792 135.176 12.5707C134.947 13.1622 134.604 13.601 134.146 13.8872C133.688 14.1734 133.111 14.3165 132.415 14.3165ZM132.987 12.1557C133.292 12.1557 133.564 12.0842 133.803 11.9411C134.051 11.798 134.246 11.5881 134.389 11.3114C134.532 11.0252 134.604 10.6865 134.604 10.2954C134.604 9.90425 134.532 9.57511 134.389 9.30799C134.246 9.03133 134.051 8.82145 133.803 8.67835C133.564 8.53524 133.292 8.46369 132.987 8.46369C132.672 8.46369 132.391 8.53524 132.143 8.67835C131.904 8.82145 131.713 9.03133 131.57 9.30799C131.427 9.57511 131.356 9.90425 131.356 10.2954C131.356 10.6865 131.427 11.0252 131.57 11.3114C131.713 11.5881 131.904 11.798 132.143 11.9411C132.391 12.0842 132.672 12.1557 132.987 12.1557ZM134.69 14.1877V12.8569L134.704 10.2954L134.561 7.73388V3.56963H137.28V14.1877H134.69ZM41.7346 30.1877V20.1707H46.3139C47.2297 20.1707 48.0168 20.3185 48.675 20.6143C49.3428 20.91 49.858 21.3393 50.2205 21.9022C50.583 22.4555 50.7643 23.1138 50.7643 23.877C50.7643 24.6306 50.583 25.2841 50.2205 25.8375C49.858 26.3908 49.3428 26.8201 48.675 27.1254C48.0168 27.4211 47.2297 27.569 46.3139 27.569H43.3087L44.568 26.3383V30.1877H41.7346ZM44.568 26.6388L43.3087 25.3366H46.1421C46.7336 25.3366 47.1725 25.2078 47.4587 24.9502C47.7544 24.6927 47.9023 24.3349 47.9023 23.877C47.9023 23.4095 47.7544 23.047 47.4587 22.7894C47.1725 22.5318 46.7336 22.403 46.1421 22.403H43.3087L44.568 21.1008V26.6388ZM51.8583 30.1877V22.4317H54.4484V24.6927L54.062 24.0487C54.291 23.4668 54.663 23.0327 55.1782 22.7465C55.6934 22.4507 56.3182 22.3029 57.0528 22.3029V24.7499C56.9288 24.7308 56.8191 24.7213 56.7237 24.7213C56.6378 24.7117 56.5424 24.707 56.4375 24.707C55.8842 24.707 55.4358 24.8596 55.0923 25.1649C54.7489 25.4606 54.5772 25.9472 54.5772 26.6245V30.1877H51.8583ZM61.7827 30.3165C60.9336 30.3165 60.1799 30.1448 59.5217 29.8014C58.8634 29.4579 58.3435 28.9857 57.9619 28.3847C57.5898 27.7741 57.4038 27.0777 57.4038 26.2954C57.4038 25.5131 57.5898 24.8214 57.9619 24.2204C58.3435 23.6194 58.8634 23.1519 59.5217 22.818C60.1799 22.4746 60.9336 22.3029 61.7827 22.3029C62.6317 22.3029 63.3854 22.4746 64.0437 22.818C64.7115 23.1519 65.2314 23.6194 65.6035 24.2204C65.9755 24.8214 66.1616 25.5131 66.1616 26.2954C66.1616 27.0777 65.9755 27.7741 65.6035 28.3847C65.2314 28.9857 64.7115 29.4579 64.0437 29.8014C63.3854 30.1448 62.6317 30.3165 61.7827 30.3165ZM61.7827 28.1557C62.0975 28.1557 62.3741 28.0842 62.6126 27.9411C62.8607 27.798 63.0563 27.5881 63.1994 27.3114C63.3425 27.0252 63.414 26.6865 63.414 26.2954C63.414 25.9042 63.3425 25.5751 63.1994 25.308C63.0563 25.0313 62.8607 24.8214 62.6126 24.6783C62.3741 24.5352 62.0975 24.4637 61.7827 24.4637C61.4774 24.4637 61.2007 24.5352 60.9527 24.6783C60.7142 24.8214 60.5186 25.0313 60.366 25.308C60.2229 25.5751 60.1513 25.9042 60.1513 26.2954C60.1513 26.6865 60.2229 27.0252 60.366 27.3114C60.5186 27.5881 60.7142 27.798 60.9527 27.9411C61.2007 28.0842 61.4774 28.1557 61.7827 28.1557ZM72.0862 30.3165C71.4279 30.3165 70.865 30.1734 70.3976 29.8872C69.9301 29.5915 69.5724 29.1526 69.3243 28.5707C69.0858 27.9792 68.9666 27.2255 68.9666 26.3097C68.9666 25.3843 69.081 24.6306 69.31 24.0487C69.539 23.4572 69.8824 23.0184 70.3403 22.7322C70.8078 22.446 71.3897 22.3029 72.0862 22.3029C72.7921 22.3029 73.4313 22.4698 74.0037 22.8037C74.5857 23.1281 75.0436 23.5908 75.3775 24.1918C75.7209 24.7833 75.8927 25.4893 75.8927 26.3097C75.8927 27.1301 75.7209 27.8409 75.3775 28.4419C75.0436 29.0429 74.5857 29.5056 74.0037 29.83C73.4313 30.1544 72.7921 30.3165 72.0862 30.3165ZM67.2064 32.9639V22.4317H69.7966V23.7482L69.7822 26.3097L69.9253 28.8855V32.9639H67.2064ZM71.5138 28.1557C71.8191 28.1557 72.0909 28.0842 72.3294 27.9411C72.5775 27.798 72.7731 27.5881 72.9162 27.3114C73.0688 27.0347 73.1451 26.7008 73.1451 26.3097C73.1451 25.9186 73.0688 25.5847 72.9162 25.308C72.7731 25.0313 72.5775 24.8214 72.3294 24.6783C72.0909 24.5352 71.8191 24.4637 71.5138 24.4637C71.2085 24.4637 70.9318 24.5352 70.6838 24.6783C70.4453 24.8214 70.2497 25.0313 70.0971 25.308C69.954 25.5847 69.8824 25.9186 69.8824 26.3097C69.8824 26.7008 69.954 27.0347 70.0971 27.3114C70.2497 27.5881 70.4453 27.798 70.6838 27.9411C70.9318 28.0842 71.2085 28.1557 71.5138 28.1557ZM81.0059 30.3165C80.09 30.3165 79.2886 30.1448 78.6018 29.8014C77.9244 29.4484 77.3949 28.9714 77.0133 28.3704C76.6413 27.7598 76.4552 27.0681 76.4552 26.2954C76.4552 25.5226 76.6365 24.8358 76.999 24.2347C77.3711 23.6242 77.8815 23.1519 78.5302 22.818C79.1789 22.4746 79.9087 22.3029 80.7197 22.3029C81.4829 22.3029 82.1793 22.4603 82.8089 22.7751C83.4386 23.0804 83.9394 23.5335 84.3115 24.1346C84.6836 24.7356 84.8696 25.4654 84.8696 26.324C84.8696 26.4194 84.8648 26.5291 84.8553 26.6531C84.8457 26.7772 84.8362 26.8916 84.8267 26.9966H78.6876V25.5656H83.3813L82.351 25.9663C82.3605 25.6133 82.2938 25.308 82.1507 25.0504C82.0171 24.7928 81.8263 24.5925 81.5783 24.4494C81.3398 24.3063 81.0583 24.2347 80.734 24.2347C80.4096 24.2347 80.1234 24.3063 79.8754 24.4494C79.6369 24.5925 79.4508 24.7976 79.3173 25.0647C79.1837 25.3223 79.1169 25.6276 79.1169 25.9806V26.3956C79.1169 26.7772 79.1932 27.1063 79.3459 27.383C79.5081 27.6596 79.737 27.8743 80.0328 28.0269C80.3285 28.17 80.6815 28.2416 81.0917 28.2416C81.4733 28.2416 81.7977 28.1891 82.0648 28.0842C82.3415 27.9697 82.6134 27.798 82.8805 27.569L84.3115 29.0572C83.9394 29.4675 83.4815 29.7823 82.9377 30.0017C82.3939 30.2116 81.75 30.3165 81.0059 30.3165ZM85.9085 30.1877V22.4317H88.4987V24.6927L88.1123 24.0487C88.3412 23.4668 88.7133 23.0327 89.2285 22.7465C89.7436 22.4507 90.3685 22.3029 91.1031 22.3029V24.7499C90.9791 24.7308 90.8694 24.7213 90.774 24.7213C90.6881 24.7117 90.5927 24.707 90.4878 24.707C89.9344 24.707 89.4861 24.8596 89.1426 25.1649C88.7992 25.4606 88.6274 25.9472 88.6274 26.6245V30.1877H85.9085ZM95.7111 30.3165C94.7189 30.3165 93.9462 30.0733 93.3928 29.5867C92.8395 29.0906 92.5628 28.3465 92.5628 27.3543V20.7001H95.2818V27.3257C95.2818 27.6024 95.3581 27.8218 95.5107 27.984C95.6634 28.1366 95.8589 28.2129 96.0974 28.2129C96.4218 28.2129 96.6985 28.1319 96.9274 27.9697L97.6 29.8729C97.371 30.0256 97.0896 30.1353 96.7557 30.2021C96.4218 30.2784 96.0736 30.3165 95.7111 30.3165ZM91.4323 24.7499V22.7179H97.0562V24.7499H91.4323ZM99.6249 33.0927C99.2147 33.0927 98.7997 33.0259 98.3799 32.8924C97.9697 32.7683 97.6358 32.6014 97.3782 32.3915L98.3227 30.4883C98.4849 30.6314 98.6709 30.7411 98.8808 30.8174C99.1002 30.9033 99.3148 30.9462 99.5247 30.9462C99.8205 30.9462 100.054 30.8794 100.226 30.7458C100.398 30.6123 100.546 30.4024 100.67 30.1162L101.027 29.2147L101.242 28.9428L103.875 22.4317H106.465L103.117 30.5026C102.849 31.1704 102.539 31.6903 102.186 32.0624C101.843 32.444 101.457 32.7111 101.027 32.8637C100.608 33.0164 100.14 33.0927 99.6249 33.0927ZM100.684 30.5169L97.2637 22.4317H100.054L102.573 28.6995L100.684 30.5169ZM116.041 30.3881C115.249 30.3881 114.514 30.2641 113.837 30.016C113.159 29.7584 112.573 29.3959 112.077 28.9285C111.59 28.461 111.208 27.9124 110.932 27.2828C110.655 26.6436 110.517 25.9424 110.517 25.1792C110.517 24.416 110.655 23.7196 110.932 23.0899C111.208 22.4507 111.595 21.8974 112.091 21.4299C112.587 20.9625 113.174 20.6047 113.851 20.3567C114.538 20.0991 115.287 19.9703 116.098 19.9703C117.042 19.9703 117.887 20.1277 118.631 20.4425C119.375 20.7574 119.99 21.2105 120.477 21.802L118.674 23.4334C118.33 23.0613 117.958 22.7846 117.557 22.6034C117.166 22.4126 116.727 22.3172 116.241 22.3172C115.812 22.3172 115.42 22.384 115.067 22.5175C114.714 22.6511 114.414 22.8466 114.166 23.1042C113.918 23.3523 113.722 23.6528 113.579 24.0058C113.446 24.3492 113.379 24.7404 113.379 25.1792C113.379 25.599 113.446 25.9853 113.579 26.3383C113.722 26.6913 113.918 26.9966 114.166 27.2542C114.414 27.5022 114.71 27.6978 115.053 27.8409C115.406 27.9744 115.792 28.0412 116.212 28.0412C116.632 28.0412 117.042 27.9744 117.443 27.8409C117.844 27.6978 118.249 27.4593 118.659 27.1254L120.248 29.1145C119.675 29.5247 119.012 29.8395 118.259 30.059C117.505 30.2784 116.766 30.3881 116.041 30.3881ZM117.743 28.7424V24.9645H120.248V29.1145L117.743 28.7424ZM121.701 30.1877V22.4317H124.291V24.6927L123.904 24.0487C124.133 23.4668 124.505 23.0327 125.021 22.7465C125.536 22.4507 126.161 22.3029 126.895 22.3029V24.7499C126.771 24.7308 126.661 24.7213 126.566 24.7213C126.48 24.7117 126.385 24.707 126.28 24.707C125.727 24.707 125.278 24.8596 124.935 25.1649C124.591 25.4606 124.42 25.9472 124.42 26.6245V30.1877H121.701ZM131.625 30.3165C130.776 30.3165 130.022 30.1448 129.364 29.8014C128.706 29.4579 128.186 28.9857 127.804 28.3847C127.432 27.7741 127.246 27.0777 127.246 26.2954C127.246 25.5131 127.432 24.8214 127.804 24.2204C128.186 23.6194 128.706 23.1519 129.364 22.818C130.022 22.4746 130.776 22.3029 131.625 22.3029C132.474 22.3029 133.228 22.4746 133.886 22.818C134.554 23.1519 135.074 23.6194 135.446 24.2204C135.818 24.8214 136.004 25.5131 136.004 26.2954C136.004 27.0777 135.818 27.7741 135.446 28.3847C135.074 28.9857 134.554 29.4579 133.886 29.8014C133.228 30.1448 132.474 30.3165 131.625 30.3165ZM131.625 28.1557C131.94 28.1557 132.216 28.0842 132.455 27.9411C132.703 27.798 132.899 27.5881 133.042 27.3114C133.185 27.0252 133.256 26.6865 133.256 26.2954C133.256 25.9042 133.185 25.5751 133.042 25.308C132.899 25.0313 132.703 24.8214 132.455 24.6783C132.216 24.5352 131.94 24.4637 131.625 24.4637C131.32 24.4637 131.043 24.5352 130.795 24.6783C130.557 24.8214 130.361 25.0313 130.208 25.308C130.065 25.5751 129.994 25.9042 129.994 26.2954C129.994 26.6865 130.065 27.0252 130.208 27.3114C130.361 27.5881 130.557 27.798 130.795 27.9411C131.043 28.0842 131.32 28.1557 131.625 28.1557ZM140.311 30.3165C139.682 30.3165 139.114 30.1925 138.609 29.9445C138.112 29.6964 137.721 29.3101 137.435 28.7854C137.158 28.2511 137.02 27.5785 137.02 26.7676V22.4317H139.739V26.324C139.739 26.925 139.849 27.3543 140.068 27.6119C140.297 27.8695 140.617 27.9983 141.027 27.9983C141.294 27.9983 141.537 27.9363 141.757 27.8123C141.976 27.6882 142.153 27.4927 142.286 27.2255C142.42 26.9489 142.487 26.5959 142.487 26.1666V22.4317H145.206V30.1877H142.615V27.9983L143.116 28.6136C142.849 29.186 142.463 29.6153 141.957 29.9015C141.452 30.1782 140.903 30.3165 140.311 30.3165ZM151.622 30.3165C150.964 30.3165 150.401 30.1734 149.933 29.8872C149.466 29.5915 149.108 29.1526 148.86 28.5707C148.622 27.9792 148.502 27.2255 148.502 26.3097C148.502 25.3843 148.617 24.6306 148.846 24.0487C149.075 23.4572 149.418 23.0184 149.876 22.7322C150.344 22.446 150.926 22.3029 151.622 22.3029C152.328 22.3029 152.967 22.4698 153.54 22.8037C154.121 23.1281 154.579 23.5908 154.913 24.1918C155.257 24.7833 155.428 25.4893 155.428 26.3097C155.428 27.1301 155.257 27.8409 154.913 28.4419C154.579 29.0429 154.121 29.5056 153.54 29.83C152.967 30.1544 152.328 30.3165 151.622 30.3165ZM146.742 32.9639V22.4317H149.332V23.7482L149.318 26.3097L149.461 28.8855V32.9639H146.742ZM151.05 28.1557C151.355 28.1557 151.627 28.0842 151.865 27.9411C152.113 27.798 152.309 27.5881 152.452 27.3114C152.605 27.0347 152.681 26.7008 152.681 26.3097C152.681 25.9186 152.605 25.5847 152.452 25.308C152.309 25.0313 152.113 24.8214 151.865 24.6783C151.627 24.5352 151.355 24.4637 151.05 24.4637C150.744 24.4637 150.468 24.5352 150.22 24.6783C149.981 24.8214 149.785 25.0313 149.633 25.308C149.49 25.5847 149.418 25.9186 149.418 26.3097C149.418 26.7008 149.49 27.0347 149.633 27.3114C149.785 27.5881 149.981 27.798 150.22 27.9411C150.468 28.0842 150.744 28.1557 151.05 28.1557Z" fill="#8E8E8E"/>
</svg>
