<svg width="138" height="36" viewBox="0 0 138 36" fill="none" xmlns="http://www.w3.org/2000/svg">
<circle cx="17.6993" cy="17.5662" r="15.704" stroke="#8E8E8E" stroke-width="3.60773"/>
<path d="M10.9531 30.6416V15.4704C10.9531 15.2075 11.0962 14.9653 11.3265 14.8384L17.5606 11.4043C17.7837 11.2814 18.055 11.2852 18.2746 11.4144L24.0892 14.8349C24.3096 14.9645 24.4449 15.2011 24.4449 15.4568V30.6416" stroke="#8E8E8E" stroke-width="2.88619"/>
<path d="M42.589 23.6299V12.5181H47.3989C48.3936 12.5181 49.2508 12.6821 49.9705 13.0102C50.6901 13.3276 51.2457 13.788 51.6372 14.3912C52.0288 14.9944 52.2246 15.714 52.2246 16.5501C52.2246 17.3755 52.0288 18.0898 51.6372 18.6931C51.2457 19.2857 50.6901 19.7407 49.9705 20.0582C49.2508 20.3757 48.3936 20.5344 47.3989 20.5344H44.0177L45.1606 19.4074V23.6299H42.589ZM49.653 23.6299L46.875 19.5979H49.6212L52.4309 23.6299H49.653ZM45.1606 19.6931L44.0177 18.4867H47.256C48.0497 18.4867 48.6423 18.3174 49.0339 17.9787C49.4254 17.6295 49.6212 17.1533 49.6212 16.5501C49.6212 15.9363 49.4254 15.4601 49.0339 15.1214C48.6423 14.7828 48.0497 14.6134 47.256 14.6134H44.0177L45.1606 13.3911V19.6931ZM58.6115 16.9945H63.961V18.9947H58.6115V16.9945ZM58.802 21.5663H64.85V23.6299H56.2463V12.5181H64.6436V14.5817H58.802V21.5663ZM67.42 23.6299L72.3727 12.5181H74.9125L79.8811 23.6299H77.1825L73.1187 13.8197H74.1347L70.0551 23.6299H67.42ZM69.8963 21.2488L70.5789 19.2963H76.2936L76.992 21.2488H69.8963ZM83.0182 23.6299V12.5181H85.5898V21.5345H91.1616V23.6299H83.0182ZM96.9479 16.9945H102.297V18.9947H96.9479V16.9945ZM97.1384 21.5663H103.186V23.6299H94.5827V12.5181H102.98V14.5817H97.1384V21.5663ZM107.217 23.6299V12.5181H109.344L115.9 20.5186H114.868V12.5181H117.408V23.6299H115.297L108.725 15.6294H109.757V23.6299H107.217ZM121.307 23.6299V21.9631L128.18 13.6769L128.498 14.6134H121.434V12.5181H130.784V14.1848L123.926 22.4711L123.609 21.5345H131.022V23.6299H121.307Z" fill="#8E8E8E"/>
<circle cx="135.129" cy="10.0952" r="2.46288" fill="#8E8E8E"/>
</svg>
