<?xml version="1.0" encoding="UTF-8"?>
<svg id="Layer_2" data-name="Layer 2" xmlns="http://www.w3.org/2000/svg" viewBox="0 0 770.68 570.24">
  <defs>
    <style>
      .cls-1 {
        fill: #fff;
        stroke-width: .62px;
      }

      .cls-1, .cls-2, .cls-3, .cls-4, .cls-5, .cls-6, .cls-7, .cls-8, .cls-9 {
        stroke-miterlimit: 10;
      }

      .cls-1, .cls-4, .cls-10, .cls-11 {
        stroke: #000;
      }

      .cls-12, .cls-13 {
        fill: #231f20;
      }

      .cls-2 {
        fill: #e1ff62;
        stroke-width: .5px;
      }

      .cls-2, .cls-3, .cls-5, .cls-6, .cls-7, .cls-8, .cls-9 {
        stroke: #231f20;
      }

      .cls-3 {
        fill: #9ebc20;
        stroke-width: .5px;
      }

      .cls-4 {
        fill: #e2e2e2;
      }

      .cls-4, .cls-5, .cls-6, .cls-7, .cls-8, .cls-9, .cls-10, .cls-11 {
        stroke-width: .5px;
      }

      .cls-5 {
        fill: #3180e9;
      }

      .cls-6 {
        fill: #2d8e96;
      }

      .cls-7 {
        fill: #49aefc;
      }

      .cls-8 {
        fill: #acdce0;
      }

      .cls-9, .cls-10 {
        fill: #d7ecf1;
      }

      .cls-10, .cls-11 {
        stroke-linejoin: round;
      }

      .cls-11 {
        fill: none;
      }

      .cls-14 {
        opacity: .55;
      }

      .cls-14, .cls-15 {
        fill: #98d9ff;
      }

      .cls-13 {
        opacity: .5;
      }

      .cls-15 {
        opacity: .35;
      }
    </style>
  </defs>
  <g id="appraisal">
    <circle class="cls-14" cx="215.16" cy="40.67" r="22.85"/>
    <circle class="cls-14" cx="215.16" cy="219.7" r="22.85"/>
    <circle class="cls-14" cx="215.16" cy="309.21" r="22.85"/>
    <path class="cls-6" d="m769.08,499.66l-5.86,12.55c-2.19,4.69-6.98,8.14-13.57,9.07l-344.85,48.47c-11.99,1.68-25.43-5.59-30.04-16.26L186.73,117.86c-2.07-4.79-1.99-9.45-.2-13.29l5.86-12.54c-1.79,3.83-1.85,8.49.21,13.29l188.03,435.62c4.61,10.67,18.06,17.94,30.05,16.26l344.83-48.46c6.6-.93,11.38-4.38,13.57-9.08Z"/>
    <path class="cls-8" d="m550.8,34.48c11.99-1.68,25.44,5.59,30.04,16.26l188.03,435.63c4.6,10.67-1.38,20.68-13.37,22.36l-344.84,48.46c-11.99,1.69-25.44-5.59-30.04-16.26L192.59,105.31c-4.6-10.67,1.38-20.68,13.37-22.36l344.84-48.46Z"/>
    <path class="cls-13" d="m353.84,393.19s33.13,119.93,218.87,99.2c95.02-13.53,152.3-25.5,152.3-25.5l-57.09-34.42-314.09-39.27Z"/>
    <path class="cls-1" d="m553.89,56.52l22.02,57.75,77.6,172.59,77.27,179.46-66.76,6.5c-6.4.9-49.93,13.88-89.98,13.88-36.41,0-186.54-42.57-220.28-89.3-8.47-20.14-9.53-22.42-9.68-22.79l-63.56-142.82-55.69-129.01,89.2-12.54,152.09-21.38,87.76-12.33Z"/>
    <path class="cls-15" d="m316.09,138.29c4.51-.63,9.58,2.11,11.31,6.12l8.21,19.01c1.73,4.02-.52,7.78-5.03,8.42l-21.37,3c-4.51.63-9.58-2.11-11.31-6.12l-8.21-19.01c-1.73-4.01.52-7.78,5.03-8.42l21.37-3Z"/>
    <path class="cls-15" d="m539.88,107.85c3.25-.46,6.9,1.52,8.15,4.41l.91,2.1c1.25,2.89-.38,5.61-3.63,6.07l-192.29,27.02c-3.25.46-6.9-1.52-8.15-4.41l-.91-2.1c-1.25-2.89.37-5.61,3.63-6.07l192.29-27.02Z"/>
    <path class="cls-15" d="m443.54,141.61c2.25-.32,4.77,1.05,5.64,3.05l2.3,5.33c.86,2-.26,3.88-2.51,4.2l-89.54,12.58c-2.25.32-4.77-1.05-5.64-3.05l-2.3-5.33c-.86-2,.26-3.88,2.51-4.2l89.54-12.58Z"/>
    <path class="cls-15" d="m339.64,205.44c4.51-.63,9.58,2.11,11.31,6.12l8.21,19.01c1.73,4.02-.52,7.78-5.03,8.42l-21.37,3c-4.51.63-9.58-2.11-11.31-6.12l-8.21-19.01c-1.73-4.01.52-7.78,5.03-8.42l21.37-3Z"/>
    <path class="cls-15" d="m563.43,175c3.25-.46,6.9,1.52,8.15,4.41l.91,2.1c1.25,2.89-.38,5.61-3.63,6.07l-192.29,27.02c-3.25.46-6.9-1.52-8.15-4.41l-.91-2.1c-1.25-2.89.37-5.61,3.63-6.07l192.29-27.02Z"/>
    <path class="cls-15" d="m467.09,208.76c2.25-.32,4.77,1.05,5.64,3.05l2.3,5.33c.86,2-.26,3.88-2.51,4.2l-89.54,12.58c-2.25.32-4.77-1.05-5.64-3.05l-2.3-5.33c-.86-2,.26-3.88,2.51-4.2l89.54-12.58Z"/>
    <path class="cls-15" d="m363.18,264.47c4.51-.63,9.58,2.11,11.31,6.12l8.21,19.01c1.73,4.02-.52,7.78-5.03,8.42l-21.37,3c-4.51.63-9.58-2.11-11.31-6.12l-8.21-19.01c-1.73-4.01.52-7.78,5.03-8.42l21.37-3Z"/>
    <path class="cls-15" d="m586.97,234.04c3.25-.46,6.9,1.52,8.15,4.41l.91,2.1c1.25,2.89-.38,5.61-3.63,6.07l-192.29,27.02c-3.25.46-6.9-1.52-8.15-4.41l-.91-2.1c-1.25-2.89.37-5.61,3.63-6.07l192.29-27.02Z"/>
    <path class="cls-15" d="m490.63,267.79c2.25-.32,4.77,1.05,5.64,3.05l2.3,5.33c.86,2-.26,3.88-2.51,4.2l-89.54,12.58c-2.25.32-4.77-1.05-5.64-3.05l-2.3-5.33c-.86-2,.26-3.88,2.51-4.2l89.54-12.58Z"/>
    <path class="cls-15" d="m386.73,324.58c4.51-.63,9.58,2.11,11.31,6.12l8.21,19.01c1.73,4.02-.52,7.78-5.03,8.42l-21.37,3c-4.51.63-9.58-2.11-11.31-6.12l-8.21-19.01c-1.73-4.01.52-7.78,5.03-8.42l21.37-3Z"/>
    <path class="cls-15" d="m610.52,294.15c3.25-.46,6.9,1.52,8.15,4.41l.91,2.1c1.25,2.89-.38,5.61-3.63,6.07l-192.29,27.02c-3.25.46-6.9-1.52-8.15-4.41l-.91-2.1c-1.25-2.89.37-5.61,3.63-6.07l192.29-27.02Z"/>
    <path class="cls-15" d="m514.18,327.9c2.25-.32,4.77,1.05,5.64,3.05l2.3,5.33c.86,2-.26,3.88-2.51,4.2l-89.54,12.58c-2.25.32-4.77-1.05-5.64-3.05l-2.3-5.33c-.86-2,.26-3.88,2.51-4.2l89.54-12.58Z"/>
    <path class="cls-10" d="m361.51,33.13l3.84-8.22c1.57-3.35,4.98-5.82,9.7-6.48,8.56-1.2,18.17,4,21.46,11.62,1.37,3.18,1.43,6.28.4,8.9l-3.84,8.22c1.03-2.62.97-5.72-.4-8.9-3.29-7.62-12.9-12.82-21.46-11.62-4.72.66-8.13,3.13-9.7,6.48Z"/>
    <path class="cls-10" d="m342.29,24.16l3.84-8.22c-2.85,6.1-2.96,13.51.33,21.14,1.26,2.93,2.95,5.7,4.97,8.26l-3.84,8.22c-2.02-2.56-3.7-5.33-4.97-8.26-3.29-7.62-3.18-15.04-.33-21.14Z"/>
    <path class="cls-9" d="m483.35,76.36l-3.84,8.23c-2.48,5.3-7.88,9.2-15.35,10.25l-119.77,16.84c-13.55,1.9-28.74-6.32-33.94-18.37l-14.05-32.55,3.84-8.22,14.05,32.55c5.2,12.05,20.39,20.27,33.94,18.37l119.77-16.83c7.46-1.05,12.86-4.95,15.35-10.25Z"/>
    <path class="cls-9" d="m417.88,35.99l51.19-7.19,14.05,32.55c5.2,12.05-1.56,23.36-15.11,25.26l-119.78,16.83c-13.55,1.9-28.73-6.32-33.94-18.37l-14.05-32.55,51.19-7.19c-2.02-2.56-3.7-5.33-4.97-8.26-7.33-16.97,2.2-32.9,21.28-35.58,19.08-2.68,40.48,8.9,47.8,25.88,1.26,2.93,2.03,5.83,2.33,8.63Zm-20.97,2.95c1.03-2.62.97-5.72-.4-8.9-3.29-7.62-12.9-12.82-21.46-11.62-8.56,1.2-12.84,8.36-9.55,15.97,1.37,3.18,3.85,5.94,6.89,7.99,4.24,2.85,9.58,4.33,14.57,3.63,4.98-.7,8.52-3.42,9.95-7.07h0Z"/>
    <path class="cls-4" d="m355.16,399.07s63.12,73.12,156.87,30.22c21.12,28.04,29.1,48.19,62.01,57.41-35.23-.73-64.16,2.5-110.87-18.98-46.71-21.47-87.89-41.36-108.01-68.65Z"/>
    <polyline class="cls-11" points="306.9 85.23 311.3 78.31 480.48 55.4"/>
    <path class="cls-12" d="m498.27,334.29l9.2,6.58-11.92,8.72c-1,.73-2.05-.02-1.68-1.2l4.41-14.1Z"/>
    <path class="cls-7" d="m549.31,304.52s-35.78,31.94-37.81,33.93c-3.09,3.04-7.15,3.83-9.79,1.95l-.57-.41-.57-.41c-2.64-1.89-3.2-5.99-1.32-9.89,1.23-2.56,19.92-46.73,19.92-46.73l30.14,21.57Z"/>
    <path class="cls-5" d="m735.99,43.67l-185.62,259.39c-5.96,8.33-14.67,6.24-22.99.28h0c-8.33-5.96-13.11-13.53-7.16-21.85L705.84,22.09c.15-.21.3-.41.46-.61,6.08-7.81,15.94-7.6,24.06-1.79,8.12,5.81,11.5,15.08,6.07,23.35-.14.21-.28.42-.43.63Z"/>
    <path class="cls-12" d="m745.25,8.76l-10.83,15.13c-1.22,1.7-3.58,2.09-5.28.87l-3.21-2.3c-1.7-1.22-2.09-3.58-.87-5.28l10.83-15.13c.05-.06.09-.13.14-.19,1.89-2.42,4.95-2.36,7.47-.56,2.52,1.8,3.57,4.68,1.88,7.25-.04.07-.09.13-.13.2Z"/>
    <path class="cls-3" d="m698.47,26.11c1.11-.03,2.13.34,2.92,1.18l3.74,3.97c2.21,2.35,1.74,7.42-1.05,11.33l-75.91,106.37c-1.8,2.52-4.12,3.94-6.13,4l4.71-.15c2.01-.06,4.33-1.48,6.13-4l75.91-106.37c2.79-3.91,3.26-8.98,1.05-11.33l-3.74-3.97c-.79-.84-1.81-1.21-2.92-1.18l-4.71.15Z"/>
    <path class="cls-2" d="m701.39,27.29c-2.21-2.35-6.26-1.09-9.05,2.82l-75.91,106.37c-2.79,3.91-3.26,8.98-1.05,11.33l3.74,3.98c2.21,2.35,6.26,1.09,9.05-2.82l75.91-106.37c2.79-3.91,3.26-8.98,1.05-11.33l-3.74-3.98Z"/>
    <circle class="cls-14" cx="118.79" cy="40.67" r="22.85"/>
    <circle class="cls-14" cx="118.79" cy="130.18" r="22.85"/>
    <circle class="cls-14" cx="118.79" cy="219.7" r="22.85"/>
    <circle class="cls-14" cx="118.79" cy="309.21" r="22.85"/>
    <circle class="cls-15" cx="22.85" cy="40.67" r="22.85"/>
    <circle class="cls-15" cx="22.85" cy="130.18" r="22.85"/>
    <circle class="cls-15" cx="22.85" cy="219.7" r="22.85"/>
    <circle class="cls-15" cx="22.85" cy="309.21" r="22.85"/>
  </g>
</svg>