<?xml version="1.0" encoding="UTF-8"?>
<svg id="Layer_2" data-name="Layer 2" xmlns="http://www.w3.org/2000/svg" viewBox="0 0 900.06 785.38">
  <defs>
    <style>
      .cls-1 {
        fill: #907ac2;
      }

      .cls-2 {
        fill: #6d54af;
      }

      .cls-3 {
        fill: #fff;
      }

      .cls-3, .cls-4, .cls-5, .cls-6, .cls-7, .cls-8, .cls-9, .cls-10, .cls-11 {
        stroke-miterlimit: 10;
      }

      .cls-3, .cls-4, .cls-5, .cls-6, .cls-7, .cls-8, .cls-9, .cls-12 {
        stroke-width: .5px;
      }

      .cls-3, .cls-8, .cls-12 {
        stroke: #000;
      }

      .cls-4, .cls-5, .cls-6, .cls-7, .cls-9, .cls-10, .cls-11 {
        stroke: #231f20;
      }

      .cls-4, .cls-10, .cls-13 {
        fill: #98d9ff;
      }

      .cls-5 {
        fill: #2d8e96;
      }

      .cls-6 {
        fill: #49aefc;
      }

      .cls-7 {
        fill: #e1ff62;
      }

      .cls-8 {
        fill: #bcbec0;
      }

      .cls-9, .cls-12 {
        fill: #acdce0;
      }

      .cls-10 {
        stroke-width: .45px;
      }

      .cls-12 {
        stroke-linejoin: round;
      }

      .cls-11 {
        fill: none;
      }

      .cls-14 {
        fill: #231f20;
        opacity: .5;
      }

      .cls-13 {
        opacity: .35;
      }
    </style>
  </defs>
  <g id="approve">
    <polyline class="cls-14" points="333.74 740.43 288.58 710.44 158.27 626.52 630.13 413.53 669.67 440.58 898.49 589.77 447.49 785.38 333.74 740.43 447.49 785.38"/>
    <polyline class="cls-3" points="334.78 725 289.62 695.01 159.32 611.09 631.18 398.09 670.71 425.14 899.53 574.33 448.54 769.95 334.78 725 448.54 769.95"/>
    <polygon class="cls-8" points="334.78 725 435.02 746.28 448.54 769.95 334.78 725"/>
    <path class="cls-1" d="m481.19,659.01l-24.23,2.07-1.14-1.44-6.31,2.07-28.6,2.45c-1.63.14-3.31-.13-4.59-.74-.14-.07-.27-.14-.4-.21-1.03-.6-1.65-1.41-1.72-2.27l-1.34-18.02c-.13-1.86,2.38-3.44,5.59-3.52,1.7-.04,3.26.35,4.38.99,1,.58,1.65,1.37,1.72,2.26l1.06,14.26,53.83-4.6c1.89-.17,3.72.22,4.98.95.86.5,1.46,1.15,1.66,1.9.48,1.85-1.71,3.57-4.9,3.84Z"/>
    <path class="cls-1" d="m405.87,674.36c-2.73-1.57-5.09-3.28-7.09-5.09l-11.03,2.52c2.68,2.62,5.97,5.11,9.88,7.37,6.41,3.69,13.85,6.44,21.78,8.22l2.58-6.7c-5.86-1.45-11.34-3.56-16.12-6.32Z"/>
    <path class="cls-1" d="m487.65,627.54c-6.75-3.91-14.65-6.74-23.08-8.52l-1.96,4.54-3.66-2.62,1.03-2.77c-21.39-3.47-45.29-.35-62.02,9.37-19.55,11.37-23.5,28.39-11.9,42.09l10.63-2.8c-9.64-11.2-6.46-25.19,9.57-34.51,20.1-11.68,52.92-11.68,73.15,0,20.23,11.69,20.34,30.69.23,42.38-14.49,8.42-35.59,10.76-53.82,7.04l-1.86,6.78c21.87,4,46.74.99,63.98-9.03,24.65-14.33,24.52-37.63-.29-51.95Z"/>
    <path class="cls-13" d="m614.87,423.69l209.22,137.65c1.95,1.29,1.61,4.25-.58,5.06l-15.08,5.56c-.85.31-1.8.2-2.55-.29l-208.33-136.81c-1.88-1.23-1.66-4.06.39-4.98l14.19-6.4c.89-.4,1.92-.32,2.74.22Z"/>
    <path class="cls-13" d="m586.34,440.68l208.18,136.96c2.34,1.54,2.05,5.07-.52,6.2l-95.89,42.23c-1.1.48-2.37.38-3.37-.28l-206.91-135.87c-2.33-1.53-2.06-5.02.47-6.18l94.62-43.32c1.11-.51,2.4-.41,3.42.26Z"/>
    <path class="cls-5" d="m532.26,425.73L43.52,494.42c-.36.06-.72.06-1.06.01-.14-.01-.26-.04-.4-.07-.14-.03-.26-.06-.39-.08-.36-.12-.69-.28-1-.47-.11-.06-.21-.12-.3-.19-.19-.15-.37-.3-.55-.48-.11-.1-.21-.21-.3-.32-.19-.23-.36-.48-.52-.74-.07-.12-.15-.26-.21-.4-.26-.56-.44-1.18-.51-1.86L7.72,179.86c-.29-2.9,1.58-5.55,4.2-5.92l488.74-68.69c.32-.04.62-.06.92-.03,2.22.17,4.07,2.06,4.32,4.62l30.56,309.96c.29,2.89-1.58,5.55-4.2,5.92Z"/>
    <polygon class="cls-3" points="444.44 5.15 454.21 49.78 515.25 298.29 75.95 480.42 40.52 327.4 5.14 187.28 444.44 5.15"/>
    <polygon class="cls-3" points="388.06 .36 400.44 40.43 475.48 263.02 87.73 463.55 43.49 326.33 .31 200.89 388.06 .36"/>
    <polygon class="cls-3" points="402.3 5.96 413.46 46.39 481.67 271.17 87.99 459.79 47.96 321.28 8.62 194.58 402.3 5.96"/>
    <path class="cls-7" d="m327.62,92.02c.28,2.24,2.25,9.78,2.25,9.78l10.07,54.89,39.78-9.5,51.8-9.92-19.38-91.38-29.9,7.87s-17.85,5.49-22.59,7.62c-6.37,2.86-32.3,28.39-32.03,30.64Z"/>
    <path class="cls-7" d="m358.96,61.74s-24.15,14.63-31.33,30.28c11.42-3.47,17.15-4.02,22.79-3.18.1-15.53,5.54-21.55,8.54-27.1Z"/>
    <path class="cls-12" d="m526.61,148.25c.32.78.74,1.47,1.27,2.08l-3.47-3.67c.62.66,1.36,1.2,2.2,1.6Z"/>
    <path class="cls-12" d="m40.28,497.49c-.06-.07-.11-.12-.18-.19-.03-.06-.07-.1-.1-.14.08.11.18.22.28.33Z"/>
    <path class="cls-9" d="m571.23,153.02l-34.24,270.69c-.45,3.58-3.77,6.89-7.42,7.4L45.57,499.14c-2.22.3-4.09-.34-5.28-1.65-.06-.07-.11-.12-.18-.19-.03-.06-.07-.1-.1-.14-.14-.17-.26-.34-.36-.54-.07-.11-.12-.21-.18-.33-.1-.18-.18-.37-.23-.56-.06-.12-.1-.26-.12-.4-.22-.77-.29-1.64-.17-2.56l34.06-269.25c.4-3.15,3.32-6.07,6.51-6.52l253.44-35.61c4.9-.69,9.62-4.46,11.61-9.26l8.08-19.55c1.29-3.14,4.36-5.57,7.54-6.01l155.3-21.84c.63-.08,1.24-.11,1.83-.06.11,0,.21.01.3.03.1,0,.19.03.29.04.19.03.39.06.56.11.18.03.34.08.51.14.04.01.1.03.14.06.14.04.29.08.41.15.25.11.5.22.72.36.01,0,.01.01.03.01.08.04.17.1.23.15.08.06.17.11.23.17h.01c.11.07.21.15.3.23.04.03.07.06.1.08.11.1.22.19.32.3.04.03.07.06.1.08.77.83,1.32,1.9,1.54,3.15l3.01,16.83c.11.61.28,1.17.5,1.69.32.78.74,1.47,1.27,2.08.07.08.14.17.22.23.15.17.3.32.48.45.11.11.23.21.36.29.07.07.14.12.22.18.1.07.19.14.3.19.12.1.25.17.39.23.32.19.66.34,1,.48.19.08.4.15.62.21.04.01.08.03.14.04.23.07.5.12.74.18h.03s.03,0,.04.01c.23.04.47.07.72.1h.01c.08.01.15.01.23.01.26.03.52.04.78.04.51,0,1.05-.04,1.58-.11l30.85-4.33c.41-.06.8-.07,1.18-.04.28.03.55.08.8.15.14.04.28.08.41.15.12.04.25.11.36.17.12.07.23.12.33.21.11.07.22.15.32.23.04.03.07.06.1.08l.08.08c.83.81,1.24,2.02,1.06,3.44Z"/>
    <path class="cls-11" d="m437.62,94.07l-43.46,10.78c-5.05,1.25-7.46-.5-8.25-3.68-.79-3.18.49-5.97,5.54-7.22l44.69-11.09c6.23-1.55,9.37,1.05,10.34,4.98.97,3.92-.58,7.69-6.81,9.23l-9.98,2.48"/>
    <path class="cls-4" d="m228.85,556.17l-26.86-32.12c-5.07-6.07-7.22-14.07-5.83-21.86,2.74-15.34,10.88-40.56,35.07-56.42,5.65-3.7,12.5-5.12,19.16-3.99,16.97,2.88,41.3,7.09,41.3,7.09l-62.84,107.3Z"/>
    <ellipse class="cls-6" cx="266.83" cy="506.44" rx="63.34" ry="39.87" transform="translate(-305.17 484.3) rotate(-60)"/>
    <path class="cls-4" d="m337.33,519.85c-3.33-1.94-7.94-1.66-13.03,1.28-10.12,5.84-18.28,19.98-18.24,31.6.01,5.77,2.06,9.83,5.33,11.74l-54.25-31.53c-3.29-1.91-5.32-5.97-5.34-11.74-.03-11.62,8.14-25.77,18.25-31.6,5.09-2.94,9.7-3.21,13.02-1.28l54.26,31.53Z"/>
    <path class="cls-10" d="m324.3,521.12c10.11-5.84,18.33-1.15,18.36,10.46s-8.13,25.77-18.24,31.61c-10.12,5.84-18.34,1.15-18.37-10.47-.03-11.62,8.13-25.76,18.25-31.6Z"/>
    <polygon class="cls-4" points="309.32 633.91 285.44 616.83 271.93 507.71 295.81 524.8 309.32 633.91"/>
    <polygon class="cls-4" points="295.81 524.8 271.93 507.71 381.5 444.45 405.38 461.54 295.81 524.8"/>
    <polygon class="cls-6" points="405.38 461.54 418.88 570.65 309.32 633.91 295.81 524.8 405.38 461.54"/>
    <polygon class="cls-4" points="320.23 632.41 316.13 629.48 303.56 527.93 307.66 530.86 320.23 632.41"/>
    <polygon class="cls-4" points="307.66 530.86 303.56 527.93 405.54 469.06 409.63 471.99 307.66 530.86"/>
    <polygon class="cls-4" points="409.63 471.99 422.2 573.54 320.23 632.41 307.66 530.86 409.63 471.99"/>
    <path class="cls-2" d="m352.81,516.94c21.69-18.86,44.77-18.38,51.46,1.06,6.68,19.44-5.53,50.59-27.22,69.45-21.69,18.86-44.77,18.38-51.46-1.06-6.68-19.44,5.53-50.59,27.22-69.45Zm22,64.01c17.69-15.38,27.65-40.79,22.2-56.65-5.45-15.86-24.28-16.24-41.97-.86-17.69,15.38-27.65,40.79-22.2,56.65s24.28,16.24,41.97.86"/>
    <path class="cls-2" d="m341.26,551.38c1.11-.96,2.36-1.46,3.36-1.22l28.49,6.79,8.03-19.05c.5-1.18,1.28-2.23,2.16-3,.98-.85,2.07-1.35,3.03-1.27,1.81.14,2.43,2.27,1.37,4.77l-10.15,24.07c-.48,1.14-1.26,2.22-2.17,3-.11.1-.23.19-.34.28-1.05.8-2.16,1.15-3.02.94l-31.9-7.6c-1.69-.4-2.06-2.73-.82-5.19.5-1,1.19-1.87,1.95-2.53Z"/>
  </g>
</svg>