<svg width="88" height="88" viewBox="0 0 88 88" fill="none" xmlns="http://www.w3.org/2000/svg">
<rect y="0.891602" width="87.0728" height="87.0728" fill="#0072EF"/>
<circle cx="52.8315" cy="59.2519" r="15.4526" fill="white"/>
<path d="M18.7881 46.5635C18.7881 45.0369 20.0257 43.7993 21.5523 43.7993H53.7689V74.7044H21.5523C20.0257 74.7044 18.7881 73.4669 18.7881 71.9402V46.5635Z" fill="white"/>
<circle cx="47.7836" cy="26.7602" r="12.6078" fill="#9AC8FA"/>
<path d="M18.7881 15.5345C18.7881 14.7711 19.4069 14.1523 20.1702 14.1523H45.893V39.368H20.1702C19.4069 39.368 18.7881 38.7492 18.7881 37.9859V15.5345Z" fill="#9AC8FA"/>
<rect y="0.928223" width="87" height="87" fill="#0072EF"/>
<circle cx="52.7873" cy="59.238" r="15.4397" fill="white"/>
<path d="M18.7725 45.1793C18.7725 44.4166 19.3907 43.7983 20.1534 43.7983H53.7241V74.6776H20.1534C19.3907 74.6776 18.7725 74.0594 18.7725 73.2967V45.1793Z" fill="white"/>
<circle cx="47.7438" cy="25.2487" r="12.5973" fill="#9AC8FA"/>
<path d="M18.7725 14.0323C18.7725 13.2696 19.3907 12.6514 20.1534 12.6514H48.1573V37.846H20.1534C19.3907 37.846 18.7725 37.2277 18.7725 36.465V14.0323Z" fill="#9AC8FA"/>
</svg>
