<?xml version="1.0" encoding="UTF-8"?>
<svg id="Layer_2" data-name="Layer 2" xmlns="http://www.w3.org/2000/svg" viewBox="0 0 551.11 562.18">
  <defs>
    <style>
      .cls-1 {
        fill: #6d54af;
      }

      .cls-2 {
        fill: #e1ff62;
        stroke-width: .5px;
      }

      .cls-2, .cls-3, .cls-4, .cls-5, .cls-6, .cls-7 {
        stroke-miterlimit: 10;
      }

      .cls-2, .cls-4, .cls-5, .cls-6, .cls-7 {
        stroke: #231f20;
      }

      .cls-3 {
        fill: #fff;
        stroke: #000;
      }

      .cls-3, .cls-4, .cls-5, .cls-6, .cls-7 {
        stroke-width: .5px;
      }

      .cls-4 {
        fill: #2d8e96;
      }

      .cls-5 {
        fill: #acdce0;
      }

      .cls-6 {
        fill: #d7ecf1;
      }

      .cls-7 {
        fill: none;
      }
    </style>
  </defs>
  <g id="booking">
    <path class="cls-5" d="m1.45,270.25L231.93,107.74c5.14-3.63,12-3.67,17.19-.11l236.57,162.37-484.24.26Z"/>
    <path class="cls-4" d="m1.56,275.39l237,173.67c1.15.87,2.73.88,3.89.02l243.46-173.67c2.54-1.86,1.22-5.89-1.93-5.89H3.52c-3.13,0-4.46,3.98-1.96,5.87Z"/>
    <rect class="cls-3" x="44.78" y="154.68" width="405.5" height="346.18" rx="7.55" ry="7.55"/>
    <polygon class="cls-5" points="487.25 272.66 487.25 558.65 243.75 414.71 487.25 272.66"/>
    <polygon class="cls-5" points=".25 272.13 .25 559.08 243.75 415.14 .25 272.13"/>
    <path class="cls-6" d="m3.07,561.93h481.36c2.77,0,3.87-3.59,1.57-5.14l-229.95-150.74c-7.44-5.01-17.18-5.01-24.61,0L1.49,556.79c-2.3,1.55-1.2,5.14,1.57,5.14Z"/>
    <line class="cls-7" x1="242.37" x2="242.37" y2="65.13"/>
    <line class="cls-7" x1="322.27" y1="23.04" x2="307.19" y2="71.7"/>
    <line class="cls-7" x1="383.56" y1="54.04" x2="364.16" y2="88.51"/>
    <line class="cls-7" x1="157.76" y1="21.88" x2="172.84" y2="70.54"/>
    <line class="cls-7" x1="96.47" y1="52.87" x2="115.88" y2="87.35"/>
    <circle class="cls-2" cx="485.69" cy="273.57" r="65.16"/>
    <path d="m501.28,302.05h-28.69c-.93,0-1.69-.76-1.69-1.69v-6.32c0-.93.76-1.69,1.69-1.69h5.85c.93,0,1.69-.76,1.69-1.69v-34.38c0-.93-.76-1.69-1.69-1.69h-8.34c-.93,0-1.69-.76-1.69-1.69v-5.72c0-.92.74-1.66,1.66-1.69,1.2-.05,2.36-.14,3.49-.29,1.64-.21,3.01-.58,4.11-1.1,1.29-.62,2.26-1.43,2.91-2.43.44-.67.75-1.46.94-2.36.16-.79.84-1.37,1.65-1.37h9.19c.93,0,1.69.76,1.69,1.69v51.03c0,.93.76,1.69,1.69,1.69h5.54c.93,0,1.69.76,1.69,1.69v6.32c0,.93-.76,1.69-1.69,1.69Z"/>
    <path class="cls-1" d="m247.53,349.96c-37.14,0-67.36-30.22-67.36-67.36s30.22-67.36,67.36-67.36,67.36,30.22,67.36,67.36-30.22,67.36-67.36,67.36Zm0-122.3c-30.29,0-54.94,24.65-54.94,54.94s24.65,54.94,54.94,54.94,54.94-24.65,54.94-54.94-24.65-54.94-54.94-54.94Z"/>
    <path class="cls-1" d="m239.75,315.53c-1.55,0-3.06-.58-4.21-1.65l-24.3-22.44c-2.52-2.33-2.68-6.26-.35-8.78,2.32-2.52,6.25-2.68,8.78-.35l19.22,17.75,34.49-46.42c2.05-2.75,5.94-3.33,8.69-1.28,2.75,2.05,3.33,5.94,1.28,8.69l-38.61,51.97c-1.05,1.41-2.65,2.32-4.41,2.48-.19.02-.39.03-.58.03Z"/>
  </g>
</svg>