<?xml version="1.0" encoding="UTF-8"?>
<svg id="Layer_2" data-name="Layer 2" xmlns="http://www.w3.org/2000/svg" xmlns:xlink="http://www.w3.org/1999/xlink" viewBox="0 0 1166.87 1068.64">
  <defs>
    <style>
      .cls-1, .cls-2 {
        fill: none;
      }

      .cls-3 {
        fill: url(#linear-gradient);
      }

      .cls-4 {
        stroke-width: 1px;
      }

      .cls-4, .cls-5, .cls-6, .cls-7, .cls-8, .cls-9, .cls-10, .cls-11, .cls-12, .cls-13, .cls-14, .cls-15, .cls-2 {
        stroke-miterlimit: 10;
      }

      .cls-4, .cls-12, .cls-13, .cls-15 {
        fill: #d9ef59;
      }

      .cls-4, .cls-13, .cls-15 {
        stroke: #9ebc20;
      }

      .cls-16 {
        fill: #697c7c;
      }

      .cls-17 {
        fill: #f4f9c2;
      }

      .cls-18, .cls-19 {
        fill: #fff;
      }

      .cls-20 {
        fill: #9fb6b7;
      }

      .cls-21 {
        fill: #9ebc20;
      }

      .cls-22 {
        fill: #a9b7b7;
      }

      .cls-23, .cls-14 {
        fill: #acdce0;
      }

      .cls-24, .cls-25 {
        fill: #d7ecf1;
      }

      .cls-26 {
        fill: #dce1e2;
      }

      .cls-27 {
        fill: #6f7a7a;
      }

      .cls-28 {
        fill: #899b9b;
      }

      .cls-29 {
        fill: #6d6e71;
      }

      .cls-30 {
        fill: #2c2c35;
      }

      .cls-31, .cls-32 {
        fill: #4a7379;
      }

      .cls-33 {
        fill: #2d8e96;
      }

      .cls-34 {
        fill: #515654;
      }

      .cls-35 {
        fill: #5479d6;
      }

      .cls-5 {
        fill: #f1ff9c;
      }

      .cls-5, .cls-6, .cls-7, .cls-8, .cls-9, .cls-10, .cls-11, .cls-12, .cls-13, .cls-14, .cls-36, .cls-25, .cls-2 {
        stroke-width: 1px;
      }

      .cls-5, .cls-6, .cls-7, .cls-8, .cls-9, .cls-10, .cls-11, .cls-12, .cls-14, .cls-2 {
        stroke: #231f20;
      }

      .cls-6 {
        fill: #98d9ff;
      }

      .cls-7 {
        fill: #6d54af;
      }

      .cls-8 {
        fill: #629696;
      }

      .cls-9 {
        fill: #3180e9;
      }

      .cls-10 {
        fill: #907ac2;
      }

      .cls-11 {
        fill: #49aefc;
      }

      .cls-32 {
        stroke-width: 1px;
      }

      .cls-32, .cls-36, .cls-25 {
        stroke: #000;
        stroke-linejoin: round;
      }

      .cls-36 {
        fill: #808285;
      }

      .cls-15 {
        stroke-width: .42px;
      }

      .cls-37 {
        fill: #231f20;
        opacity: .5;
      }

      .cls-19 {
        opacity: .3;
      }
    </style>
    <linearGradient id="linear-gradient" x1="720.42" y1="353.07" x2="897.36" y2="227.99" gradientTransform="translate(-21.33 128.26) rotate(1.64)" gradientUnits="userSpaceOnUse">
      <stop offset="0" stop-color="#a9b7b7"/>
      <stop offset=".66" stop-color="#697c7c"/>
    </linearGradient>
  </defs>
  <g id="hero">
    <path class="cls-30" d="m.25,456.88c0,.09,0,.17-.01.26l-.24-2.99c.16.89.25,1.8.25,2.73Z"/>
    <path class="cls-30" d="m.25,457.22h-.01s.01-.05,0-.08v.08Z"/>
  </g>
  <g id="fee">
    <path class="cls-26" d="m830.62,291.13c2.24,1.44-210.31,0-210.31,0,0,0,10.27-46.02,54.38-50.58,26.05-1.9,45.9,6.38,68.45,22.44,22.44,15.97,23.2,11.79,41.45,10.65,18.25-1.14,35.37,10.65,46.02,17.49Z"/>
    <path class="cls-26" d="m995.65,250.98c-1.37.88,128.84,0,128.84,0,0,0-6.29-28.19-33.32-30.99-15.96-1.16-28.12,3.91-41.94,13.75-13.75,9.79-14.21,7.22-25.4,6.52s-21.67,6.52-28.19,10.72Z"/>
    <rect class="cls-34" x="826.54" y="262.21" width="8.18" height="7.65"/>
    <polygon class="cls-22" points="658.56 424.03 871.56 424.03 871.56 282.33 658.56 320.23 658.56 424.03"/>
    <rect class="cls-27" x="824.45" y="269.46" width="12.36" height="23.15"/>
    <rect class="cls-27" x="673.34" y="331.21" width="131.63" height="92.81"/>
    <rect class="cls-27" x="825.53" y="335.73" width="46.03" height="88.45"/>
    <polygon class="cls-26" points="652.46 319.35 652.22 326.77 877.66 285.58 877.9 277.06 652.46 319.35"/>
    <polygon class="cls-26" points="1035.26 424.03 1035.26 301.15 871.56 259.21 871.56 424.03 1035.26 424.03"/>
    <polygon class="cls-28" points="1035.26 424.03 1122.38 424.03 1122.84 304.63 1035.26 301.15 1035.26 424.03"/>
    <polygon class="cls-34" points="853.85 254.41 1038.61 307.07 1135.54 307.07 948.38 254.41 853.85 254.41"/>
    <rect class="cls-27" x="1071.88" y="326.08" width="26.33" height="81.09"/>
    <rect class="cls-20" x="1075.71" y="330.89" width="18.67" height="44.58"/>
    <rect class="cls-20" x="1075.71" y="379.45" width="18.67" height="22.97"/>
    <rect class="cls-27" x="895.69" y="329.77" width="115.44" height="94.26"/>
    <rect class="cls-20" x="900.03" y="337.66" width="21.14" height="50.47"/>
    <rect class="cls-20" x="900.03" y="392.64" width="21.14" height="25.5"/>
    <rect class="cls-20" x="985.07" y="337.66" width="21.14" height="50.47"/>
    <rect class="cls-20" x="985.07" y="392.64" width="21.14" height="25.5"/>
    <rect class="cls-20" x="924.91" y="337.66" width="56.54" height="50.47"/>
    <rect class="cls-20" x="924.91" y="392.64" width="56.54" height="25.5"/>
    <rect class="cls-27" x="821.79" y="253" width="17.68" height="13.03"/>
    <rect class="cls-27" x="808.35" y="351.69" width="6.75" height="19.69"/>
    <rect class="cls-27" x="663.08" y="351.69" width="6.75" height="19.69"/>
    <polygon class="cls-28" points="853.85 254.41 853.99 260.85 1038.47 314.15 1038.61 307.07 853.85 254.41"/>
    <polygon class="cls-16" points="1135.54 307.07 1135.54 312.45 1038.47 314.15 1038.61 307.07 1135.54 307.07"/>
    <rect class="cls-34" x="825.53" y="335.73" width="4.16" height="88.42"/>
    <rect class="cls-34" x="825.53" y="335.73" width="46.03" height="1.62"/>
    <rect class="cls-26" x="834.6" y="374.63" width="2.86" height="13.24"/>
    <rect class="cls-34" x="673.34" y="331.21" width="6.23" height="92.64"/>
    <rect class="cls-34" x="673.34" y="376.83" width="131.63" height="1.4"/>
    <rect class="cls-34" x="673.34" y="331.21" width="131.63" height="1.4"/>
    <rect class="cls-34" x="673.34" y="399.64" width="131.63" height="1.4"/>
    <rect class="cls-34" x="673.34" y="354.02" width="131.63" height="1.4"/>
    <rect class="cls-26" x="823.51" y="253" width="5.06" height="13.03"/>
    <path class="cls-3" d="m871.56,424.02l-44.11.13s-31.68-.05-64.66,18.91c-32.98,18.97-60.21,39.06-109.65,38.61,54.87,1.57,60.33,1.73,60.33,1.73,0,0,36.26,1.04,74.24-24.53,37.99-25.57,48.53-34.9,83.85-34.85Z"/>
    <path class="cls-37" d="m151.41,1067.92c1.08.23,2.2.2,3.27-.08,27.69-7.29,390.82-107.13,390.82-107.13,0,0,57.42-19.6,185.54,26.87.27.1,286.31,80.1,289.81,80.68,13.1,2.18,21.07-5.63,36.06-9.2,6.36-1.52,7.54-10.14,1.82-13.33l-390.54-218.33c-1.91-1.07-4.19-1.2-6.2-.36l-534.42,222.39c-6.51,2.71-5.63,12.28,1.27,13.74l22.58,4.76Z"/>
    <path class="cls-37" d="m507.26,1055.01c-34.74,6.24-73.11,2.41-85.71-8.55-12.6-10.97,5.34-24.92,40.09-31.17,34.72-6.24,73.09-2.41,85.69,8.56,12.59,10.96-5.35,24.91-40.07,31.15Z"/>
    <path class="cls-37" d="m677.33,1035.07c-34.91,5.2-73.15.22-85.41-11.11-12.27-11.34,6.09-24.75,41-29.95,34.89-5.2,73.13-.22,85.4,11.12,12.26,11.33-6.1,24.74-40.99,29.94Z"/>
    <path class="cls-32" d="m422.82,96.26l145.66-71.39s-195.77-75.36-232.37,43.8l86.71,27.58Z"/>
    <path class="cls-8" d="m422.82,96.26l145.66-71.39s-195.77-75.36-232.37,43.8l86.71,27.58Z"/>
    <path class="cls-33" d="m557.84,24.78l-131.89,66.1-1.19-.37-78.02-25.16c1.43-1.68,2.93-3.32,4.48-4.97l52.52,16.96c2.87-2.84,20.47-18.7,43.49-3.93l71.5-35.84c-16.87-7.17-6.31-15.07-3.36-16.96-20.1-4.06-47.25-8.36-75.43-9.46,7.81-1.8,16.04-3.29,24.74-4.39h.06c46.64,4.61,85.1,15.71,85.62,15.86l7.47,2.17Z"/>
    <path class="cls-14" d="m490.7,4.92c-178.22,4.76-187.95,158.09-187.95,158.09l-170.35,47.67C195.2,111.8,243.45,56.29,295.67,27.43c14.31-7.93,28.92-13.85,44.23-18.09C368.87,1.26,400.32-.81,436.8.71c7.47.34,15.16.79,23.09,1.4,9.88.73,20.13,1.68,30.81,2.81Z"/>
    <path class="cls-33" d="m459.89,2.12c-75.37,12.72-114.72,51.18-134.72,82.6-19.95,31.32-25.99,70.58-26.02,70.73-.18,1.92-.12,5.46-.12,5.46l-148.75,40.75-1.98.55-6.59,1.8s45.6-72.99,91.69-121.98c20.25-21.5,41.24-39.77,62.28-54.6,8.2-4.54,19.78-9.7,28.29-12.97-39.94,19.27-88.33,71.75-88.39,71.85-21.29,23.94-55.5,71.18-67.21,87.71,4.79-.03,11.93,1.62,10,12.02l95.62-26.35c.3-2.23,4.27-26.02,23-25.26,3.63-14.06,10.43-33.19,23.03-52.98,18.67-29.28,53.41-64.45,116.79-80.74,7.47.34,15.16.79,23.09,1.4Z"/>
    <path class="cls-33" d="m393.74.96c-17.63,44.71-70.31,71.74-97.33,68.6-4.27-.49-8.36-2.17-11.77-4.76-18.73-14.21,8.94-34.47,33.61-48.22,2.47-.98,4.94-1.92,7.44-2.81,2.29-.82,4.61-1.59,6.95-2.32,2.23-.7,4.45-1.37,6.71-1.98,15.37-4.27,31.45-6.86,48.62-8.11,1.01-.09,1.98-.15,2.99-.21.92-.09,1.83-.12,2.78-.18Z"/>
    <path class="cls-23" d="m390.96,1.15c-16.32,37.76-68.41,66.71-91.41,64.05-3.69-.43-7.2-1.98-10.22-4.15-18.33-13.09,14.64-34.86,36.36-47.28,2.29-.82,4.61-1.59,6.95-2.32,2.23-.7,4.45-1.37,6.71-1.98,15.37-4.27,31.45-6.86,48.62-8.11,1.01-.09,1.98-.15,2.99-.21Z"/>
    <path class="cls-33" d="m387.97,1.36c-16.29,29.83-67.23,61.28-85.25,59.2-3.02-.37-5.92-1.65-8.39-3.42-13.85-9.88,19-33.89,38.31-45.69,2.23-.7,4.45-1.37,6.71-1.98,15.37-4.27,31.45-6.86,48.62-8.11Z"/>
    <path class="cls-23" d="m370.6,19.82l-8.74,6.48-5.2-.23c-6.16,4.18-11.93,7.2-17.5,9.67l2.25-5.08c4.96-2.34,8.61-4.34,12.34-7.12,4.31-3.2,5.66-4.98,3.34-5.08-4.91-.22-28.12,17.34-37.97,16.9-4.93-.22-3.99-3.9,4.09-10.78l-5.39-.24,8.74-6.48,5.15.23c5.6-3.87,13.16-8.44,19.66-11.51l-.62,4.49c-6.56,3.29-11.56,6.2-15.79,9.34-5.08,3.77-6.1,5.48-3.76,5.58,5.3.24,28.84-17.31,38.14-16.9,5.04.22,3.41,4.19-4.06,10.49l5.31.24Z"/>
    <path class="cls-2" d="m490.7,4.92c-178.22,4.76-187.95,158.09-187.95,158.09l-170.35,47.67C195.2,111.8,243.45,56.29,295.67,27.43c14.31-7.93,28.92-13.85,44.23-18.09C368.87,1.26,400.32-.81,436.8.71c7.47.34,15.16.79,23.09,1.4,9.88.73,20.13,1.68,30.81,2.81Z"/>
    <path class="cls-12" d="m283.47,272.26l14.05,12.23c4.87,4.26-.78,19.93-15.31,39.98-18.24,25.13-43.57,47.6-56.54,50.18-2.63.49-4.56.17-5.8-.91l-14.05-12.23c1.24,1.08,3.15,1.42,5.8.91,12.97-2.57,38.28-25.03,56.54-50.18,14.53-20.05,20.18-35.72,15.31-39.98Z"/>
    <path class="cls-5" d="m268.1,312.2c-18.25,25.15-43.56,47.61-56.54,50.17-12.99,2.57-8.72-15.74,9.52-40.88,18.23-25.13,43.55-47.59,56.53-50.16,12.98-2.56,8.72,15.74-9.52,40.87Z"/>
    <path class="cls-13" d="m262.57,311.22c-15.66,20.81-36.35,40.15-46.22,43.19-9.88,3.04-5.19-11.36,10.47-32.17s36.34-40.13,46.22-43.18c9.87-3.04,5.18,11.36-10.47,32.16Z"/>
    <path class="cls-21" d="m278.01,282.11c-.35.04-.72.14-1.14.27-9.89,3.06-30.56,22.39-46.24,43.19-9.89,13.13-15.38,23.71-15.63,28.95-8.33,1.58-3.41-12.47,11.62-32.43,15.66-20.81,36.34-40.13,46.24-43.19,3.64-1.14,5.31.13,5.15,3.21Z"/>
    <path class="cls-14" d="m508.34,584.06c-10.92,156.11-29.92,275.4-29.92,275.4,0,0-342.77-199.3-362.69-363.64,41.24-202.77,34.89-243.89,32.03-251.67l.03-.03c12.81,23.12,155.74,273.81,360.56,339.94Z"/>
    <path class="cls-33" d="m154.43,261.23c0,1.13-.15,64.97-33.28,234.46,19.03,156.84,349.67,349.7,349.67,349.7,0,0,18.15-109.16,28.58-258.16-203.54-65.73-343.02-322.4-344.97-326Zm310.78,566.93s-272.22-159.58-326.97-301.87c3.72-4.85,6.41-10.55,7.56-16.59,2.44-12.78-2.56-23.49-11.87-27.73,16.41-86.17,22.88-136.98,25.44-164.43,7.5,3.87,12.54,3.2,15.16-4.58,38.74,62.22,157.39,233.95,315.48,285-9.88,141.16-24.8,230.19-24.8,230.19Z"/>
    <path class="cls-31" d="m490.01,597.97c-9.88,141.16-24.8,230.19-24.8,230.19,0,0-272.22-159.58-326.97-301.87,3.72-4.85,6.41-10.55,7.56-16.59,2.44-12.78-2.56-23.49-11.87-27.73,16.41-86.17,22.88-136.98,25.44-164.43,7.5,3.87,12.54,3.2,15.16-4.58,38.74,62.22,157.39,233.95,315.48,285Z"/>
    <path class="cls-23" d="m490.01,597.97c-9.88,141.16-24.8,230.19-24.8,230.19,0,0-272.22-159.58-326.97-301.87,3.72-4.85,6.41-10.55,7.56-16.59,2.44-12.78-2.56-23.49-11.87-27.73,16.41-86.17,22.88-136.98,25.44-164.43,7.5,3.87,12.54,3.2,15.16-4.58,38.74,62.22,157.39,233.95,315.48,285Z"/>
    <path class="cls-33" d="m217.04,473.29c34.53-37.33,90.81-22.52,125.75,33.16,34.9,55.62,35.22,131.03.69,168.36-34.5,37.3-90.81,22.43-125.71-33.2-34.93-55.68-35.22-131.03-.72-168.33Z"/>
    <path class="cls-23" d="m223.24,483.17c31.15-33.67,81.91-20.31,113.42,29.91,31.48,50.17,31.77,118.18.62,151.86-31.12,33.64-81.91,20.23-113.39-29.94-31.51-50.22-31.77-118.18-.65-151.82Z"/>
    <path class="cls-33" d="m229.22,492.68c27.89-30.15,73.33-18.18,101.54,26.78,28.18,44.92,28.44,105.8.56,135.95-27.86,30.12-73.33,18.11-101.51-26.81-28.21-44.96-28.44-105.81-.58-135.92Z"/>
    <path class="cls-23" d="m303.32,514.53l-5.19,15.28c6.75,8.08,10.46,17.66,12.78,27.9l-12.74,5.03c-2.47-8.8-5.1-14.67-9.88-19.05-5.51-5.05-9.49-4.85-11.79,1.94-4.9,14.42,25.75,40.84,15.93,69.73-4.92,14.48-14.77,20.07-27.63,12.6l-5.36,15.8-11.17-10.24,5.13-15.09c-6.34-7.19-12.98-18.4-16.23-29.95l12.45-8.32c3.83,11.23,7.89,18.89,13.31,23.85,6.48,5.94,10.54,5,12.88-1.88,5.28-15.55-25.03-42.96-15.77-70.22,5.03-14.82,15.09-19.07,26.83-12.01l5.3-15.61,11.17,10.24Z"/>
    <path class="cls-29" d="m476.22,523.89c-.06.03-.09.03-.09.03v-.03h.09Z"/>
    <path class="cls-35" d="m476.22,523.89c-.06.03-.09.03-.09.03v-.03h.09Z"/>
    <path class="cls-1" d="m518.5,513.61c-.49-.03-.98-.03-1.46-.03h-.03c-.79,0-1.62.03-2.44.12.88-.09,1.74-.15,2.56-.15"/>
    <path class="cls-1" d="m518.5,513.61c-.49-.03-.98-.03-1.46-.03l.09-.03"/>
    <path class="cls-11" d="m1156.17,882.8l.11,50.03c.02,9.03-4.1,15.67-9.96,17.38l10.65-2.92c5.88-1.69,9.67-10.52,9.65-19.56l-.11-50.03c-.02-12-7.31-23.66-16.28-26.07l-164.95-46.14-17.62,5.08,172.22,46.16c8.98,2.39,16.24,14.08,16.28,26.07Z"/>
    <path class="cls-6" d="m967.67,810.58c0,29.9.21,58.93.21,93.47l172.22,46.15c8.97,2.4,16.21-5.38,16.19-17.37l-.11-50.03c-.03-11.99-7.31-23.67-16.28-26.07l-172.22-46.15Z"/>
    <path class="cls-6" d="m1041.79,852.88l.33,176.59c0,1.14-.04,2.25-.11,3.35-.04.4-.07.78-.11,1.18-.11,1.05-.25,2.05-.42,3.06-.13.8-.31,1.59-.49,2.32-.29,1.14-.6,2.21-.98,3.24-.11.33-.25.67-.38,1-.13.33-.27.67-.42,1-.18.42-.38.85-.58,1.27-.27.51-.54,1-.83,1.5-.92,1.56-1.94,2.97-3.1,4.17-.13.16-.27.29-.42.45-1.76,1.76-3.75,3.1-5.94,3.97-.25.11-.47.2-.71.27-.31.11-.63.22-.96.31-2.92.83-6.12.83-9.47-.09l-377.16-103.68s-.33-.09-.98-.27c-4.47-1.14-23.93-5.74-49.29-5.98h-3.64c-25.36.25-44.83,4.84-49.29,5.98-.65.18-.98.27-.98.27l-377.16,103.68c-3.35.92-6.54.92-9.47.09-.33-.09-.65-.2-.96-.31-.25-.07-.47-.16-.71-.27-2.19-.87-4.17-2.21-5.94-3.97-.16-.16-.29-.29-.42-.45-1.16-1.21-2.19-2.61-3.1-4.17-.29-.49-.56-.98-.83-1.5-.2-.42-.4-.85-.58-1.27-.16-.33-.29-.67-.42-1s-.27-.67-.38-1c-.38-1.03-.69-2.1-.98-3.24-.18-.74-.36-1.52-.49-2.32-.18-1-.31-2.01-.42-3.06-.04-.4-.07-.78-.11-1.18-.07-1.09-.11-2.21-.11-3.35l.33-176.59-.33-152.3,415.96-116.47h76.46l415.96,116.47-.33,152.3Z"/>
    <path class="cls-11" d="m1070.78,1021.36c.02,14.18-6.36,24.56-15.47,27.12l-30.25,8.48c.33-.09.65-.2.96-.31.25-.07.47-.16.71-.27,2.19-.87,4.17-2.21,5.94-3.97.16-.16.29-.29.42-.45,1.16-1.21,2.19-2.61,3.1-4.17.29-.49.56-.98.83-1.5.2-.42.4-.85.58-1.27.16-.33.29-.67.42-1,.13-.33.27-.67.38-1,.38-1.03.69-2.1.98-3.24.18-.74.36-1.52.49-2.32.18-1,.31-2.01.42-3.06.04-.4.07-.78.11-1.18.07-1.09.11-2.21.11-3.35l-.54-289.71c-.02-12.86-5.34-25.52-13.15-33.4-1.05-1.09-2.17-2.08-3.33-2.97-2.68-2.05-5.58-3.59-8.6-4.42l-376.87-103.61s-18.91-4.51-37.46-5.74c-3.93-.27-8.1-.45-12.44-.49h-.09c-4.33.04-8.51.22-12.44.49-18.55,1.23-37.46,5.74-37.46,5.74l-376.87,103.61c-3.01.83-5.92,2.37-8.6,4.42-1.16.89-2.28,1.88-3.33,2.97-7.81,7.88-13.13,20.54-13.15,33.4l-.54,289.71c0,1.14.04,2.25.11,3.35.04.4.07.78.11,1.18.11,1.05.25,2.05.42,3.06.13.8.31,1.58.49,2.32.29,1.14.6,2.21.98,3.24.11.33.25.67.38,1,.13.33.27.67.42,1,.18.42.38.85.58,1.27.27.51.54,1,.83,1.5.92,1.56,1.94,2.97,3.1,4.17.13.16.27.29.42.45,1.76,1.76,3.75,3.1,5.94,3.97.25.11.47.2.71.27.31.11.63.22.96.31l-30.25-8.48c-9.11-2.57-15.49-12.95-15.47-27.12l.54-289.69c.02-18.73,11.25-36.99,25.05-40.79,0,0,403.03-110.78,403.23-110.82,10.14-2.48,31.75-6.97,53.85-6.88,22.1-.09,43.71,4.4,53.85,6.88.2.04,403.23,110.82,403.23,110.82,13.8,3.8,25.03,22.06,25.05,40.79l.54,289.69Z"/>
    <path class="cls-9" d="m1004.2,784.86c-.02-11.85-4.91-23.51-12.12-30.79-.96-1-1.99-1.9-3.06-2.72-2.46-1.9-5.13-3.3-7.9-4.06l-347.18-95.46s-17.44-4.15-34.51-5.29c-3.62-.25-7.48-.4-11.45-.45h-.09c-4,.04-7.84.2-11.45.45-17.1,1.14-34.51,5.29-34.51,5.29l-347.18,95.46c-2.77.76-5.45,2.17-7.9,4.06-1.07.83-2.1,1.72-3.08,2.72-7.19,7.28-12.08,18.93-12.1,30.79v-28.67c.02-11.83,4.91-23.51,12.1-30.76.98-1,2.01-1.9,3.08-2.72,2.46-1.9,5.13-3.33,7.9-4.09l347.18-95.44s17.41-4.15,34.51-5.29c3.62-.25,7.46-.4,11.45-.45h.09c3.97.04,7.84.2,11.45.45,17.08,1.14,34.51,5.29,34.51,5.29l347.18,95.44c2.77.76,5.45,2.19,7.9,4.09,1.07.83,2.1,1.72,3.06,2.72,7.21,7.26,12.1,18.93,12.12,30.76v28.67Z"/>
    <path class="cls-14" d="m993.11,662.44l-18.52,167.42-750.67-83.02,18.27-165.19,340.69-54.33s19.03-2.37,37.36-1.57c3.88.16,7.98.45,12.24.87h.05s.02,0,.05.01c4.22.52,8.32,1.14,12.14,1.82,18.05,3.22,36.12,9.7,36.12,9.7l312.27,124.29Z"/>
    <path class="cls-33" d="m993.11,662.44l-18.52,167.42-8.36-.93,17.86-161.46-305.31-121.52s-17.68-6.33-35.32-9.49c-3.73-.68-7.73-1.26-11.86-1.77h-.05s-.02,0-.05-.01c-4.16-.41-8.17-.71-11.98-.87-17.93-.78-36.52,1.54-36.52,1.54l-333.1,53.13-17.61,159.27-8.37-.93,18.27-165.19,340.69-54.33s19.03-2.37,37.36-1.57c3.88.16,7.98.45,12.24.87h.05s.02,0,.05.01c4.22.52,8.32,1.14,12.14,1.82,18.05,3.22,36.12,9.7,36.12,9.7l312.27,124.29Z"/>
    <path class="cls-33" d="m975.03,674.42l-16.99,153.61-7.98-.88,9.47-85.67c-.93-.25-1.86-.57-2.78-.93-21.77-8.49-36.77-39.69-33.52-69.69.27-2.45.65-4.79,1.12-7.05l-257.9-102.56s-16.87-6.05-33.78-9.05c-2.29-.42-4.67-.81-7.14-1.15-2.48-.2-4.89-.35-7.22-.44-17.16-.77-34.94,1.45-34.94,1.45l-274.08,43.73c-.04,2.31-.18,4.67-.45,7.12-3.39,29.98-24.84,57.15-47.94,60.68-.98.16-1.95.27-2.92.3l-9.47,85.67-7.98-.88,16.99-153.61,51.25-8.16,274.64-43.79s18.2-2.27,35.74-1.51c2.37.09,4.83.25,7.38.46,2.53.35,4.97.74,7.3,1.17,17.29,3.09,34.55,9.28,34.55,9.28l258.44,102.74,48.23,19.17Z"/>
    <path class="cls-33" d="m743.51,699.17c-2.64,71.55-67.79,124.13-145.27,116.34-77.31-9.32-129.39-74.87-116.34-145.27,12.97-70.2,78.97-134.86,146.55-127.96,67.46,8.03,117.73,85.55,115.05,156.89Z"/>
    <path class="cls-23" d="m734.05,697.29c-2.89,66.86-63.26,115.49-134.71,108.21-71.32-8.51-119.59-69.15-107.81-135.03,11.72-65.71,72.87-124.7,135.81-118.19,62.85,7.4,109.63,78.33,106.7,145.01Z"/>
    <path class="cls-33" d="m722.71,695.13c-3.09,61.08-57.73,105.04-122.05,98.39-64.21-7.57-107.93-62.41-97.6-122.68,10.28-60.14,65.62-112.59,122.95-106.57,57.26,6.66,99.8,69.94,96.69,130.87Z"/>
    <path class="cls-2" d="m993.11,662.44l-18.52,167.42-750.67-83.02,18.27-165.19,340.69-54.33s19.03-2.37,37.36-1.57c3.88.16,7.98.45,12.24.87h.05s.02,0,.05.01c4.22.52,8.32,1.14,12.14,1.82,18.05,3.22,36.12,9.7,36.12,9.7l312.27,124.29Z"/>
    <path class="cls-14" d="m960.62,692.59v168.44H205.37v-166.19l332.65-91.45s18.65-4.45,36.96-5.67c3.87-.26,7.99-.43,12.27-.48h.1c4.26.05,8.39.22,12.27.48,18.29,1.22,36.96,5.67,36.96,5.67l324.04,89.21Z"/>
    <path class="cls-33" d="m960.62,692.59v168.44h-8.42v-162.44l-316.82-87.22s-18.27-4.35-36.15-5.55c-3.78-.26-7.82-.41-11.98-.45h-.1c-4.18.05-8.2.19-12,.45-17.91,1.2-36.13,5.55-36.13,5.55l-325.24,89.42v160.24h-8.42v-166.19l332.65-91.45s18.65-4.45,36.96-5.67c3.87-.26,7.99-.43,12.27-.48h.1c4.26.05,8.39.22,12.27.48,18.29,1.22,36.96,5.67,36.96,5.67l324.04,89.21Z"/>
    <path class="cls-33" d="m943.96,706.49v154.55h-8.03v-86.19c-.96-.14-1.91-.36-2.87-.62-22.57-6.05-40.91-35.41-40.98-65.58,0-2.46.12-4.83.33-7.13l-267.62-73.59s-17.43-4.16-34.57-5.28c-2.32-.17-4.73-.29-7.22-.36-2.49.07-4.9.19-7.22.36-17.14,1.12-34.57,5.28-34.57,5.28l-267.62,73.59c.22,2.3.33,4.66.33,7.13-.07,30.17-18.41,59.53-40.98,65.58-.96.26-1.91.48-2.87.62v86.19h-8.03v-154.55l50.04-13.75,268.17-73.71s17.84-4.26,35.36-5.43c2.37-.17,4.83-.29,7.39-.36,2.56.07,5.02.19,7.39.36,17.53,1.17,35.36,5.43,35.36,5.43l268.17,73.71,50.04,13.75Z"/>
    <path class="cls-33" d="m716.56,756.54c5.24,71.4-53.74,130.83-131.6,131.6-77.87-.77-136.84-60.2-131.6-131.6,5.18-71.2,63.67-142.72,131.6-143.29,67.93.57,126.42,72.09,131.6,143.29Z"/>
    <path class="cls-23" d="m706.96,755.71c4.47,66.77-50.18,121.74-122,122.36-71.82-.62-126.47-55.59-122-122.36,4.42-66.6,58.72-131.95,122-132.4,63.28.45,117.58,65.8,122,132.4Z"/>
    <path class="cls-33" d="m695.45,754.81c3.64,61.04-45.84,110.75-110.49,111.21-64.65-.46-114.13-50.17-110.49-111.21,3.6-60.9,52.84-119.12,110.49-119.44,57.65.33,106.89,58.54,110.49,119.44Z"/>
    <path class="cls-2" d="m960.62,692.59v168.44H205.37v-166.19l332.65-91.45s18.65-4.45,36.96-5.67c3.87-.26,7.99-.43,12.27-.48h.1c4.26.05,8.39.22,12.27.48,18.29,1.22,36.96,5.67,36.96,5.67l324.04,89.21Z"/>
    <path class="cls-6" d="m1004.63,994.61c0,.29-.02.6-.04.89-.02.38-.04.71-.09,1.09-.11.96-.22,1.9-.4,2.81-.11.74-.29,1.47-.45,2.14-.27,1.05-.56,2.03-.89,2.99-.11.29-.25.6-.36.92-.13.31-.25.63-.4.92-.16.4-.33.78-.54,1.18-.25.47-.49.92-.76,1.38-.83,1.43-1.79,2.72-2.86,3.84-.11.13-.25.27-.38.4-1.63,1.63-3.46,2.86-5.47,3.66-.22.11-.45.2-.67.25-.18.07-.38.16-.58.2-2.37.47-4.93.36-7.57-.36l-347.42-95.51s-.31-.09-.92-.25c-4.11-1.05-22.03-5.29-45.41-5.51h-3.35c-23.37.22-41.3,4.47-45.41,5.51-.6.16-.92.25-.92.25l-347.42,95.51c-2.41.67-4.73.8-6.92.45-.31-.07-.6-.18-.89-.29-.22-.04-.42-.13-.65-.25-2.01-.8-3.84-2.03-5.47-3.66-.16-.13-.27-.27-.4-.4-1.07-1.12-2.01-2.41-2.86-3.84-.27-.47-.51-.92-.76-1.38-.18-.4-.36-.78-.54-1.18-.13-.29-.27-.6-.38-.92-.13-.31-.25-.63-.36-.92-.36-.96-.62-1.94-.89-2.99-.18-.67-.33-1.41-.47-2.14-.16-.92-.29-1.85-.38-2.81-.04-.38-.07-.71-.11-1.09-.02-.25-.02-.47-.02-.71l.4-203.15.11-38.44,370.17-101.78s17.41-4.15,34.51-5.29c3.62-.25,7.46-.4,11.45-.45h.09c3.97.04,7.84.2,11.45.45,17.08,1.14,34.51,5.29,34.51,5.29l370.17,101.89.51,241.3Z"/>
    <path class="cls-6" d="m621.02,648.81v269.55c-8.1-1.29-18.98-2.57-31.41-2.68h-3.35c-12.26.11-22.99,1.34-31.05,2.63v-269.51c6.16-1.07,13.82-2.19,21.41-2.68,3.62-.25,7.46-.4,11.45-.45h.09c3.97.04,7.84.2,11.45.45,7.57.49,15.23,1.61,21.41,2.68Z"/>
    <path class="cls-10" d="m493.04,702.23c7.41-1.98,13.39,4.43,13.37,14.33l-.34,96.14c-.02,9.9-6.04,19.53-13.45,21.52l-283.62,75.99c-7.4,1.98-13.38-4.44-13.36-14.33l.34-96.14c.02-9.9,6.04-19.53,13.44-21.51l283.62-75.99Z"/>
    <polygon class="cls-11" points="529.49 725.72 529.49 794.86 171.39 893.31 171.39 824.17 529.49 725.72"/>
    <path class="cls-7" d="m497.73,766.87c7.41-1.98,13.39,4.43,13.37,14.33l-.34,96.14c-.02,9.9-6.04,19.53-13.45,21.52l-283.62,75.99c-7.4,1.98-13.38-4.44-13.36-14.33l.34-96.14c.02-9.9,6.04-19.53,13.44-21.51l283.62-75.99Z"/>
    <path class="cls-11" d="m529.64,790.72v133.44l-337.51,92.78c-2.41.67-4.73.8-6.92.45-.31-.07-.6-.18-.89-.29-.22-.04-.42-.13-.65-.25-2.01-.8-3.84-2.03-5.47-3.66-.16-.13-.27-.27-.4-.4-1.07-1.12-2.01-2.41-2.86-3.84-.27-.47-.51-.92-.76-1.38-.18-.4-.36-.78-.54-1.18-.13-.29-.27-.6-.38-.92-.13-.31-.25-.63-.36-.92-.36-.96-.63-1.94-.89-2.99-.18-.67-.33-1.41-.47-2.14s-.25-1.47-.31-2.23l.31-108.01,358.09-98.45Z"/>
    <path class="cls-11" d="m1004.2,994.61c0,.29-.02.6-.04.89-.02.38-.04.71-.09,1.09-.11.96-.22,1.9-.4,2.81-.11.74-.29,1.47-.45,2.14-.27,1.05-.56,2.03-.89,2.99-.11.29-.25.6-.36.92-.13.31-.25.63-.4.92-.16.4-.33.78-.54,1.18-.25.47-.49.92-.76,1.38-.83,1.43-1.79,2.72-2.86,3.84-.11.13-.25.27-.38.4-1.63,1.63-3.46,2.86-5.47,3.66-.22.11-.45.2-.67.25-.18.07-.38.16-.58.2-2.37.47-4.93.36-7.57-.36l-312.24-85.84v-177.51l333.18,91.71.51,149.32Z"/>
    <path class="cls-14" d="m1116.57,878.24c-7.98-2.14-14.43,4.79-14.41,15.46s6.51,21.07,14.49,23.21c7.98,2.14,14.43-4.78,14.41-15.46-.02-10.68-6.51-21.07-14.5-23.21Z"/>
    <path class="cls-36" d="m1116.59,887c-4.37-1.17-7.89,2.62-7.88,8.46s3.56,11.52,7.93,12.69c4.37,1.17,7.9-2.62,7.88-8.46-.01-5.84-3.56-11.52-7.93-12.69Z"/>
    <path class="cls-25" d="m1119.72,908.15c-.95.28-1.99.3-3.08,0-4.37-1.17-7.92-6.86-7.93-12.69-.01-5.84,3.52-9.63,7.88-8.46.01,0,.02,0,.03.01-2.83.85-4.8,4.07-4.8,8.45.01,5.82,3.54,11.5,7.9,12.69Z"/>
    <polygon class="cls-19" points="350.67 807.15 334.96 843.26 234.89 870.8 250.83 833.85 350.67 807.15"/>
    <path class="cls-11" d="m677.84,700.11c-7.37-1.98-13.33,4.42-13.31,14.28l.31,80.17c.06,25.36-5.47,42.82,34.43,55.14l275.16,73.73c30.19,8.74,34.29-11.38,34.23-36.74l-.31-80.17c-.02-9.86-6.02-19.46-13.39-21.44l-317.13-84.97Z"/>
    <polygon class="cls-19" points="472.47 708.79 456.76 744.9 356.68 772.44 372.63 735.48 472.47 708.79"/>
    <path class="cls-12" d="m539.31,992.63l-.03,21.52c-.03,7.47-17.98,14.41-46.47,16.92-35.74,3.12-74.52-1.95-86.59-11.32-2.43-1.92-3.6-3.85-3.6-5.74l.03-21.52c0,1.9,1.14,3.82,3.6,5.74,12.07,9.37,50.82,14.44,86.59,11.32,28.49-2.51,46.44-9.45,46.47-16.92Z"/>
    <path class="cls-5" d="m492.83,1009.48c-35.75,3.13-74.51-1.94-86.58-11.32-12.07-9.38,7.12-19.53,42.87-22.65,35.73-3.13,74.49,1.95,86.56,11.33,12.07,9.38-7.13,19.52-42.86,22.65Z"/>
    <path class="cls-17" d="m436.07,1008.82v19.64c-9.06-1.37-16.9-3.32-22.81-5.7v-19.64c5.89,2.38,13.76,4.33,22.81,5.7Z"/>
    <path class="cls-12" d="m544.88,967.47l-.03,21.52c-.03,7.47-17.98,14.41-46.47,16.92-35.74,3.12-74.52-1.95-86.59-11.32-2.43-1.92-3.6-3.85-3.6-5.74l.03-21.52c0,1.9,1.14,3.82,3.6,5.74,12.07,9.37,50.82,14.44,86.59,11.32,28.49-2.51,46.44-9.45,46.47-16.92Z"/>
    <path class="cls-5" d="m498.4,984.31c-35.75,3.13-74.51-1.94-86.58-11.32-12.07-9.38,7.12-19.53,42.87-22.65,35.73-3.13,74.49,1.95,86.56,11.33,12.07,9.38-7.13,19.52-42.86,22.65Z"/>
    <path class="cls-17" d="m441.64,983.65v19.64c-9.06-1.37-16.9-3.32-22.81-5.7v-19.64c5.89,2.38,13.76,4.33,22.81,5.7Z"/>
    <path class="cls-12" d="m536.74,946.71l-.03,21.52c-.03,7.47-17.98,14.41-46.47,16.92-35.74,3.12-74.52-1.95-86.59-11.32-2.43-1.92-3.6-3.85-3.6-5.74l.03-21.52c0,1.9,1.14,3.82,3.6,5.74,12.07,9.37,50.82,14.44,86.59,11.32,28.49-2.51,46.44-9.45,46.47-16.92Z"/>
    <path class="cls-5" d="m490.26,963.56c-35.75,3.13-74.51-1.94-86.58-11.32-12.07-9.38,7.12-19.53,42.87-22.65,35.73-3.13,74.49,1.95,86.56,11.33,12.07,9.38-7.13,19.52-42.86,22.65Z"/>
    <path class="cls-13" d="m486.93,957.99c-30.01,2.1-62.55-1.31-72.68-7.61-10.13-6.31,5.98-13.13,35.99-15.23,29.99-2.1,62.53,1.31,72.67,7.62,10.13,6.3-5.98,13.12-35.97,15.22Z"/>
    <path class="cls-21" d="m524.01,949.41c-.31-.27-.67-.52-1.1-.79-10.16-6.31-42.67-9.7-72.68-7.63-18.94,1.31-32.33,4.54-37.09,8.3-7.69-6.07,8.3-12.41,37.09-14.43,30.01-2.1,62.53,1.31,72.68,7.63,3.75,2.32,3.9,4.73,1.1,6.92Z"/>
    <path class="cls-17" d="m433.5,962.89v19.64c-9.06-1.37-16.9-3.32-22.81-5.7v-19.64c5.89,2.38,13.76,4.33,22.81,5.7Z"/>
    <path class="cls-12" d="m539.31,1014.68l-.03,21.52c-.03,7.47-17.98,14.41-46.47,16.92-35.74,3.12-74.52-1.95-86.59-11.32-2.43-1.92-3.6-3.85-3.6-5.74l.03-21.52c0,1.9,1.14,3.82,3.6,5.74,12.07,9.37,50.82,14.44,86.59,11.32,28.49-2.51,46.44-9.45,46.47-16.92Z"/>
    <path class="cls-17" d="m436.07,1030.87v19.64c-9.06-1.37-16.9-3.32-22.81-5.7v-19.64c5.89,2.38,13.76,4.33,22.81,5.7Z"/>
    <path class="cls-12" d="m713.52,970.98l-.03,21.52c-.03,7.47-17.98,14.41-46.47,16.92-35.74,3.12-74.52-1.95-86.59-11.32-2.43-1.92-3.6-3.85-3.6-5.74l.03-21.52c0,1.9,1.14,3.82,3.6,5.74,12.07,9.37,50.82,14.44,86.59,11.32,28.49-2.51,46.44-9.45,46.47-16.92Z"/>
    <path class="cls-5" d="m667.04,987.83c-35.75,3.13-74.51-1.94-86.58-11.32s7.12-19.53,42.87-22.65c35.73-3.13,74.49,1.95,86.56,11.33,12.07,9.38-7.13,19.52-42.86,22.65Z"/>
    <path class="cls-13" d="m663.71,982.27c-30.01,2.1-62.55-1.31-72.68-7.61-10.13-6.31,5.98-13.13,35.99-15.23,29.99-2.1,62.53,1.31,72.67,7.62,10.13,6.3-5.98,13.12-35.97,15.22Z"/>
    <path class="cls-21" d="m700.79,973.69c-.31-.27-.67-.52-1.1-.79-10.16-6.31-42.67-9.7-72.68-7.63-18.94,1.31-32.33,4.54-37.09,8.3-7.69-6.07,8.3-12.41,37.09-14.43,30.01-2.1,62.53,1.31,72.68,7.63,3.75,2.32,3.9,4.73,1.1,6.92Z"/>
    <path class="cls-17" d="m610.28,987.17v19.64c-9.06-1.37-16.9-3.32-22.81-5.7v-19.64c5.89,2.38,13.76,4.33,22.81,5.7Z"/>
    <path class="cls-12" d="m713.7,992.69l-.03,21.52c-.03,7.47-17.98,14.41-46.47,16.92-35.74,3.12-74.52-1.95-86.59-11.32-2.43-1.92-3.6-3.85-3.6-5.74l.03-21.52c0,1.9,1.14,3.82,3.6,5.74,12.07,9.37,50.82,14.44,86.59,11.32,28.49-2.51,46.44-9.45,46.47-16.92Z"/>
    <path class="cls-17" d="m610.46,1008.87v19.64c-9.06-1.37-16.9-3.32-22.81-5.7v-19.64c5.89,2.38,13.76,4.33,22.81,5.7Z"/>
    <path class="cls-36" d="m824.78,823.68c-8.71-2.14-15.74,4.8-15.72,15.48s7.1,21.05,15.81,23.19c8.71,2.14,15.76-4.77,15.74-15.45-.03-10.67-7.12-21.08-15.83-23.22Z"/>
    <ellipse class="cls-24" cx="819.54" cy="835.66" rx="7.53" ry="5.05" transform="translate(-216.88 1379.55) rotate(-73.25)"/>
    <path class="cls-12" d="m551.17,128.7c-7.65,2.38-13.86,1.36-17.77-2.2l-6.84-6.26c3.89,3.55,10.11,4.57,17.75,2.19,15.41-4.77,30.76-21.47,34.3-37.27,1.77-7.95.23-14.18-3.72-17.79l6.86,6.26c3.94,3.61,5.49,9.82,3.71,17.78-3.52,15.81-18.88,32.49-34.28,37.28Z"/>
    <path class="cls-5" d="m578.6,85.17c-3.53,15.8-18.89,32.5-34.29,37.27-15.39,4.77-25.01-4.17-21.48-19.98,3.54-15.81,18.89-32.51,34.28-37.28s25.02,4.17,21.48,19.98Z"/>
    <path class="cls-13" d="m574.17,86.54c-2.97,13.29-15.88,27.33-28.83,31.34-12.94,4.01-21.03-3.51-18.06-16.8,2.97-13.3,15.88-27.34,28.83-31.35,12.95-4.02,21.04,3.51,18.07,16.8Z"/>
    <path class="cls-21" d="m534.49,118.35c-6.17-1.93-9.22-8.28-7.21-17.26,2.98-13.3,15.88-27.34,28.83-31.35,10.07-3.13,17.21.74,18.48,8.86-2.55-5.05-8.5-7.08-16.34-4.65-12.26,3.81-24.5,17.12-27.32,29.73-1.5,6.73-.02,11.89,3.57,14.68Z"/>
    <path class="cls-12" d="m278.4,112.29c8.29-4.5,18.12-6.4,28.66-4.94,29.64,4.17,53.72,33.47,53.77,65.46.05,20.58-9.9,37.26-24.9,45.43l8.75-4.77c15-8.15,24.94-24.82,24.9-45.43-.07-31.99-24.13-61.27-53.77-65.44-10.54-1.49-20.37.43-28.66,4.94l-8.75,4.74Z"/>
    <path class="cls-5" d="m307.06,107.37c-29.62-4.16-53.6,18.38-53.54,50.36.06,31.97,24.14,61.28,53.76,65.44,29.64,4.17,53.62-18.4,53.56-50.36-.06-31.99-24.14-61.28-53.78-65.45Z"/>
    <path class="cls-13" d="m307.08,116.2c-25.1-3.53-45.42,15.57-45.37,42.68.05,27.09,20.46,51.93,45.56,55.46,25.12,3.53,45.44-15.59,45.39-42.68-.05-27.11-20.46-51.93-45.57-55.46Z"/>
    <path class="cls-21" d="m261.64,158.88c.05,22.28,13.87,43.06,32.76,51.69-15.34-10.06-25.95-28.42-25.97-47.95-.05-27.1,20.27-46.2,45.38-42.68,4.41.62,8.67,1.89,12.72,3.74-5.92-3.86-12.53-6.49-19.53-7.48-25.09-3.55-45.41,15.55-45.36,42.68Z"/>
    <path class="cls-12" d="m219.19,602.81c-7.43,15.48-18.09,23.74-29.39,24.67l-19.79,1.6c11.25-.92,21.93-9.2,29.35-24.66,15-31.13,11.19-79.59-8.45-108.2-9.9-14.39-21.93-21.05-33.36-20.11l19.83-1.62c11.42-.9,23.43,5.71,33.32,20.13,19.68,28.59,23.46,77.04,8.49,108.18Z"/>
    <path class="cls-5" d="m190.9,496.23c19.64,28.6,23.44,77.06,8.47,108.19-14.96,31.12-43.04,33.16-62.69,4.56s-23.46-77.08-8.49-108.19c14.97-31.14,43.05-33.18,62.71-4.56Z"/>
    <path class="cls-15" d="m186.59,505.2c16.52,24.05,19.71,64.8,7.12,90.98-12.58,26.17-36.2,27.89-52.71,3.83-16.53-24.07-19.72-64.81-7.14-90.98,12.59-26.18,36.2-27.9,52.73-3.84Z"/>
    <path class="cls-21" d="m178.61,613.89c-12.03,6.86-26.45,2.38-37.62-13.87-16.53-24.08-19.73-64.81-7.13-90.98,9.79-20.37,26.27-25.92,40.87-16.08-11.64-3.36-23.51,3.01-31.14,18.86-11.91,24.8-8.88,63.42,6.79,86.25,8.38,12.18,18.64,17.38,28.24,15.81Z"/>
    <path class="cls-18" d="m190.17,589.97c-8.77,19.49-23.81,23.67-35.34,10.92,10.55,6.73,22.62,1.29,30.11-15.39,9.76-21.71,8.07-54.19-3.76-72.54-1.18-1.84-2.43-3.49-3.73-4.89,3.17,1.99,6.23,5.1,8.96,9.36,11.82,18.35,13.5,50.85,3.76,72.54Z"/>
    <path class="cls-14" d="m710.8,214.61l56.57-37.31s-72.35-66.58-114.73-71.54c-34.6,26.75-67.08,54.94-67.08,54.94,0,0,84.04,10.97,125.24,53.91Z"/>
    <path class="cls-33" d="m592,158.74c.75.12,78.97,12.68,119.95,53.29l51.92-34.67c-77.46-65.51-108.38-69.32-109.65-69.42m65.51,96.49c-5.62-4.15-9.98-.54-11.59,1.19-31.26-27.45-76.97-40.82-99.73-46.1,4.21-4.78-.54-7.66-2.82-8.71l41.94-34.2c1.63,1.03,10.08,5.74,17.15-3.04,13.52,5.1,41.6,19.19,88.6,57.87-1.49,1.53-4.54,5.68,1.51,9.49l-35.05,23.5Z"/>
    <path class="cls-33" d="m709.64,183.49c-9.38,12.84-30.69,5.52-43.2-3.16-16.48-11.42-21.01-29.89-8.49-42.21,10.46-10.3,34.18-18.05,47.9-2.13,11.27,13.08,12.5,35.58,3.8,47.49Z"/>
    <path class="cls-23" d="m708.1,181.48c-8.8,11.86-28.52,5.42-40.22-2.77-14.97-10.48-19.15-28.03-7.74-39.32,9.76-9.65,31.49-16.28,44.25-1.77,10.57,12.01,11.89,32.83,3.7,43.86Z"/>
    <path class="cls-33" d="m706.22,179.1c-8.31,10.95-25.6,5.75-36.61-2.33-13.19-9.68-17.53-25.37-6.86-35.81,9.05-8.85,28.4-14.08,39.92-1.39,9.97,10.98,11.29,29.34,3.55,39.53Z"/>
    <path class="cls-23" d="m697.77,149.31c1.91,2.44,2.58,5.06,2.78,7.7-1.89,0-2.83.02-4.74.05-.37-2.28-.94-3.86-2.41-5.27-1.68-1.61-3.8-1.75-4.44-.41-2.05,4.07,6.46,12.03,1.89,17.57-2.44,2.97-6.35,3.4-10.97.76-.94,1.06-1.72,1.95-2.9,3.31-1.56-1.27-2.35-1.86-3.93-3.08,1.15-1.29,1.93-2.16,2.83-3.17-2.14-2.05-4.23-4.97-4.9-7.77,2.23-.53,3.34-.78,5.52-1.26.87,2.78,2.07,4.81,3.89,6.32,2.21,1.82,4.23,1.84,5.04.48,2.53-4.39-6.58-11.96-1.86-17.39,2.71-3.15,6.97-3.57,10.83-1.04.97-1.08,1.7-1.96,2.92-3.29,1.33,1.29,1.98,1.95,3.27,3.29-1.15,1.31-1.86,2.16-2.81,3.2Z"/>
    <path class="cls-12" d="m408.48,791.71c-3.7,10.26-4.14,21.81-.63,33.6,9.95,33.13,47.64,55.52,84.19,49.98,23.52-3.55,40.84-17.82,47.55-36.39l-3.92,10.83c-6.68,18.56-24,32.84-47.55,36.39-36.56,5.51-74.22-16.85-84.17-49.99-3.54-11.79-3.07-23.34.63-33.6l3.89-10.82Z"/>
    <path class="cls-5" d="m407.87,825.32c-9.94-33.11,11.62-64.45,48.18-69.98,36.53-5.52,74.23,16.86,84.17,49.97,9.94,33.13-11.64,64.48-48.17,70-36.55,5.53-74.23-16.86-84.18-49.99Z"/>
    <path class="cls-4" d="m417.96,823.79c-8.42-28.06,9.85-54.62,40.83-59.3,30.96-4.68,62.91,14.29,71.33,42.34,8.42,28.08-9.86,54.64-40.82,59.32-30.98,4.68-62.91-14.29-71.33-42.36Z"/>
    <path class="cls-21" d="m458.78,764.42c25.47-3.84,51.62,8.32,64.78,28.38-14.18-15.76-37.01-24.68-59.32-21.29-30.97,4.68-49.23,31.24-40.82,59.31,1.48,4.93,3.68,9.58,6.5,13.88-5.44-6.09-9.61-13.18-11.96-21-8.44-28.04,9.83-54.6,40.82-59.29Z"/>
    <path class="cls-12" d="m382.39,546.11c.88,10.87,5.25,21.57,13.33,30.85,22.76,26.05,66.34,30.85,97.33,10.68,19.95-12.96,29.81-33.12,28.24-52.8l.91,11.48c1.59,19.66-8.27,39.82-28.24,52.8-31.01,20.14-74.54,15.35-97.3-10.7-8.1-9.27-12.45-19.98-13.33-30.85l-.93-11.46Z"/>
    <path class="cls-5" d="m395.72,576.96c-22.74-26.03-16.08-63.49,14.92-83.64,30.98-20.14,74.56-15.35,97.3,10.68,22.75,26.05,16.07,63.52-14.91,83.65-31,20.15-74.56,15.35-97.31-10.7Z"/>
    <path class="cls-4" d="m404.28,571.4c-19.27-22.06-13.62-53.8,12.64-70.88,26.25-17.06,63.19-13.01,82.45,9.05,19.28,22.08,13.62,53.83-12.63,70.89-26.27,17.08-63.19,13.01-82.47-9.07Z"/>
    <path class="cls-21" d="m416.89,500.46c21.6-14.03,50.44-13.77,70.72-.95-19.43-8.48-43.9-7.16-62.81,5.15-26.26,17.07-31.91,48.8-12.63,70.88,3.39,3.87,7.31,7.2,11.66,9.95-7.47-3.29-14.2-8.03-19.57-14.18-19.28-22.04-13.63-53.77,12.65-70.86Z"/>
  </g>
</svg>