<svg width="16" height="17" viewBox="0 0 16 17" fill="none" xmlns="http://www.w3.org/2000/svg">
<path d="M8 16.3379C10.1217 16.3379 12.1566 15.495 13.6569 13.9947C15.1571 12.4945 16 10.4596 16 8.33789C16 6.21616 15.1571 4.18133 13.6569 2.68104C12.1566 1.18075 10.1217 0.337891 8 0.337891C5.87827 0.337891 3.84344 1.18075 2.34315 2.68104C0.842855 4.18133 0 6.21616 0 8.33789C0 10.4596 0.842855 12.4945 2.34315 13.9947C3.84344 15.495 5.87827 16.3379 8 16.3379ZM8.93 6.92589L7.93 11.6309C7.86 11.9709 7.959 12.1639 8.234 12.1639C8.428 12.1639 8.721 12.0939 8.92 11.9179L8.832 12.3339C8.545 12.6799 7.912 12.9319 7.367 12.9319C6.664 12.9319 6.365 12.5099 6.559 11.6129L7.297 8.14489C7.361 7.85189 7.303 7.74589 7.01 7.67489L6.559 7.59389L6.641 7.21289L8.931 6.92589H8.93ZM8 5.83789C7.73478 5.83789 7.48043 5.73253 7.29289 5.545C7.10536 5.35746 7 5.10311 7 4.83789C7 4.57267 7.10536 4.31832 7.29289 4.13078C7.48043 3.94325 7.73478 3.83789 8 3.83789C8.26522 3.83789 8.51957 3.94325 8.70711 4.13078C8.89464 4.31832 9 4.57267 9 4.83789C9 5.10311 8.89464 5.35746 8.70711 5.545C8.51957 5.73253 8.26522 5.83789 8 5.83789Z" fill="#252525"/>
</svg>
