<svg width="16" height="17" viewBox="0 0 16 17" fill="none" xmlns="http://www.w3.org/2000/svg">
<g clip-path="url(#clip0_1278_2563)">
<path d="M8 16.5034C10.1217 16.5034 12.1566 15.6606 13.6569 14.1603C15.1571 12.66 16 10.6251 16 8.50342C16 6.38169 15.1571 4.34685 13.6569 2.84656C12.1566 1.34627 10.1217 0.503418 8 0.503418C5.87827 0.503418 3.84344 1.34627 2.34315 2.84656C0.842855 4.34685 0 6.38169 0 8.50342C0 10.6251 0.842855 12.66 2.34315 14.1603C3.84344 15.6606 5.87827 16.5034 8 16.5034ZM8.93 7.09142L7.93 11.7964C7.86 12.1364 7.959 12.3294 8.234 12.3294C8.428 12.3294 8.721 12.2594 8.92 12.0834L8.832 12.4994C8.545 12.8454 7.912 13.0974 7.367 13.0974C6.664 13.0974 6.365 12.6754 6.559 11.7784L7.297 8.31042C7.361 8.01742 7.303 7.91142 7.01 7.84042L6.559 7.75942L6.641 7.37842L8.931 7.09142H8.93ZM8 6.00342C7.73478 6.00342 7.48043 5.89806 7.29289 5.71052C7.10536 5.52299 7 5.26863 7 5.00342C7 4.7382 7.10536 4.48385 7.29289 4.29631C7.48043 4.10877 7.73478 4.00342 8 4.00342C8.26522 4.00342 8.51957 4.10877 8.70711 4.29631C8.89464 4.48385 9 4.7382 9 5.00342C9 5.26863 8.89464 5.52299 8.70711 5.71052C8.51957 5.89806 8.26522 6.00342 8 6.00342Z" fill="#252525"/>
</g>
<defs>
<clipPath id="clip0_1278_2563">
<rect width="16" height="16" fill="white" transform="translate(0 0.503418)"/>
</clipPath>
</defs>
</svg>
