<svg width="16" height="16" viewBox="0 0 16 16" fill="none" xmlns="http://www.w3.org/2000/svg">
<path d="M7.91196 0.365967C5.81627 0.365967 5.55274 0.37562 4.72932 0.412302C3.90591 0.450914 3.34506 0.580266 2.85372 0.771399C2.33833 0.965252 1.8715 1.26933 1.48587 1.66238C1.09306 2.04822 0.789017 2.51499 0.594885 3.03023C0.403753 3.52061 0.273435 4.08242 0.235788 4.90294C0.199106 5.72828 0.189453 5.99085 0.189453 8.08944C0.189453 10.1861 0.199106 10.4487 0.235788 11.2721C0.274401 12.0945 0.403753 12.6554 0.594885 13.1467C0.792774 13.6545 1.0563 14.085 1.48587 14.5146C1.91447 14.9441 2.345 15.2086 2.85275 15.4056C3.34506 15.5967 3.90495 15.727 4.72739 15.7647C5.55177 15.8013 5.81434 15.811 7.91196 15.811C10.0096 15.811 10.2712 15.8013 11.0956 15.7647C11.9171 15.726 12.4798 15.5967 12.9712 15.4056C13.4862 15.2116 13.9527 14.9075 14.3381 14.5146C14.7676 14.085 15.0312 13.6545 15.229 13.1467C15.4192 12.6554 15.5495 12.0945 15.5881 11.2721C15.6248 10.4487 15.6345 10.1861 15.6345 8.08848C15.6345 5.99085 15.6248 5.72829 15.5881 4.90391C15.5495 4.08243 15.4192 3.52061 15.229 3.03023C15.0349 2.51497 14.7309 2.0482 14.3381 1.66238C13.9525 1.26919 13.4857 0.965084 12.9702 0.771399C12.4779 0.580266 11.9161 0.449949 11.0946 0.412302C10.2702 0.37562 10.0086 0.365967 7.91003 0.365967H7.91293H7.91196ZM7.21983 1.75795H7.91293C9.97484 1.75795 10.2191 1.76471 11.0328 1.80235C11.7858 1.83614 12.1951 1.9626 12.4673 2.06782C12.8273 2.20779 13.0851 2.37575 13.3554 2.64604C13.6257 2.91633 13.7927 3.1731 13.9326 3.53413C14.0388 3.80538 14.1643 4.21467 14.1981 4.96762C14.2357 5.78138 14.2435 6.0256 14.2435 8.08655C14.2435 10.1475 14.2357 10.3927 14.1981 11.2064C14.1643 11.9594 14.0378 12.3677 13.9326 12.6399C13.8088 12.9752 13.6112 13.2784 13.3544 13.5271C13.0841 13.7973 12.8273 13.9643 12.4663 14.1043C12.196 14.2105 11.7867 14.336 11.0328 14.3707C10.2191 14.4074 9.97484 14.4161 7.91293 14.4161C5.85102 14.4161 5.60583 14.4074 4.79207 14.3707C4.03912 14.336 3.6308 14.2105 3.35858 14.1043C3.02313 13.9807 2.71966 13.7834 2.47049 13.5271C2.21348 13.278 2.01556 12.9746 1.8913 12.639C1.78608 12.3677 1.65963 11.9584 1.62584 11.2055C1.58916 10.3917 1.58144 10.1475 1.58144 8.08462C1.58144 6.02271 1.58916 5.77945 1.62584 4.96569C1.66059 4.21274 1.78608 3.80345 1.89227 3.53123C2.03224 3.17117 2.2002 2.91343 2.47049 2.64314C2.74078 2.37285 2.99755 2.20585 3.35858 2.06588C3.6308 1.9597 4.03912 1.83421 4.79207 1.79946C5.50447 1.76664 5.78055 1.75698 7.21983 1.75602V1.75795ZM12.0348 3.03989C11.9131 3.03989 11.7926 3.06386 11.6802 3.11043C11.5678 3.157 11.4656 3.22526 11.3795 3.31131C11.2935 3.39736 11.2252 3.49952 11.1787 3.61195C11.1321 3.72439 11.1081 3.84489 11.1081 3.96659C11.1081 4.08828 11.1321 4.20879 11.1787 4.32122C11.2252 4.43365 11.2935 4.53581 11.3795 4.62186C11.4656 4.70792 11.5678 4.77618 11.6802 4.82275C11.7926 4.86932 11.9131 4.89329 12.0348 4.89329C12.2806 4.89329 12.5163 4.79565 12.6901 4.62186C12.8639 4.44807 12.9615 4.21236 12.9615 3.96659C12.9615 3.72081 12.8639 3.4851 12.6901 3.31131C12.5163 3.13752 12.2806 3.03989 12.0348 3.03989ZM7.91293 4.12297C7.3869 4.11476 6.8645 4.21128 6.37613 4.40691C5.88776 4.60253 5.44319 4.89336 5.06829 5.26245C4.6934 5.63154 4.39568 6.07152 4.19246 6.55678C3.98924 7.04203 3.88458 7.56287 3.88458 8.08896C3.88458 8.61505 3.98924 9.13589 4.19246 9.62114C4.39568 10.1064 4.6934 10.5464 5.06829 10.9155C5.44319 11.2846 5.88776 11.5754 6.37613 11.771C6.8645 11.9666 7.3869 12.0632 7.91293 12.055C8.95406 12.0387 9.94705 11.6137 10.6776 10.8717C11.4081 10.1297 11.8175 9.13022 11.8175 8.08896C11.8175 7.0477 11.4081 6.0482 10.6776 5.3062C9.94705 4.5642 8.95406 4.13921 7.91293 4.12297ZM7.91293 5.51399C8.59573 5.51399 9.25056 5.78523 9.73337 6.26804C10.2162 6.75085 10.4874 7.40568 10.4874 8.08848C10.4874 8.77127 10.2162 9.42611 9.73337 9.90892C9.25056 10.3917 8.59573 10.663 7.91293 10.663C7.23013 10.663 6.5753 10.3917 6.09249 9.90892C5.60968 9.42611 5.33844 8.77127 5.33844 8.08848C5.33844 7.40568 5.60968 6.75085 6.09249 6.26804C6.5753 5.78523 7.23013 5.51399 7.91293 5.51399Z" fill="#0072EF"/>
</svg>
