<?xml version="1.0" encoding="UTF-8"?>
<svg id="Layer_2" data-name="Layer 2" xmlns="http://www.w3.org/2000/svg" viewBox="0 0 838.75 748.85">
  <defs>
    <style>
      .cls-1, .cls-2, .cls-3, .cls-4 {
        fill: #fff;
      }

      .cls-5, .cls-6 {
        fill: #98d9ff;
      }

      .cls-7 {
        stroke-width: 1px;
      }

      .cls-7, .cls-8 {
        fill: #caf534;
      }

      .cls-7, .cls-8, .cls-9, .cls-10, .cls-11, .cls-12, .cls-2, .cls-3, .cls-6, .cls-13, .cls-14, .cls-15, .cls-16, .cls-17, .cls-18, .cls-19 {
        stroke: #231f20;
      }

      .cls-7, .cls-8, .cls-9, .cls-10, .cls-11, .cls-12, .cls-2, .cls-3, .cls-6, .cls-13, .cls-14, .cls-15, .cls-16, .cls-17, .cls-18, .cls-19, .cls-20, .cls-21 {
        stroke-miterlimit: 10;
      }

      .cls-8 {
        stroke-width: 1px;
      }

      .cls-9 {
        stroke-width: 1px;
      }

      .cls-9, .cls-11 {
        fill: #e1ff62;
      }

      .cls-10 {
        stroke-width: 1px;
      }

      .cls-10, .cls-12 {
        fill: #9ebc20;
      }

      .cls-11 {
        stroke-width: 1px;
      }

      .cls-12 {
        stroke-width: 1px;
      }

      .cls-2 {
        stroke-width: 1px;
      }

      .cls-3 {
        stroke-width: 1px;
      }

      .cls-6, .cls-13, .cls-14, .cls-15, .cls-16, .cls-17, .cls-18, .cls-19, .cls-22, .cls-23 {
        stroke-width: 1.5px;
      }

      .cls-13 {
        fill: #3180e9;
      }

      .cls-14 {
        fill: #907ac2;
      }

      .cls-15 {
        fill: #2d8e96;
      }

      .cls-16 {
        fill: #4a7379;
      }

      .cls-17 {
        fill: #49aefc;
      }

      .cls-18, .cls-22 {
        fill: #acdce0;
      }

      .cls-19 {
        fill: #d7ecf1;
      }

      .cls-22, .cls-20, .cls-21, .cls-23 {
        stroke: #000;
      }

      .cls-22, .cls-23 {
        stroke-linejoin: round;
      }

      .cls-20 {
        stroke-width: 1px;
      }

      .cls-20, .cls-21, .cls-23 {
        fill: none;
      }

      .cls-21 {
        stroke-width: .5px;
      }

      .cls-24 {
        fill: #231f20;
        opacity: .5;
      }

      .cls-4 {
        opacity: .75;
      }
    </style>
  </defs>
  <g id="market">
    <path class="cls-11" d="m193.05,217.84l16.27-35.96c1.68.3,3.48.37,5.39.22,16.09-1.29,34.49-18.56,43.88-40.13l25.66-.67c-16.05,41.02-50.7,74.65-80.8,77.06-3.7.3-7.17.11-10.4-.53Z"/>
    <path class="cls-7" d="m170.2,141.04c14.06-45.3,51.76-84.14,84.2-86.74l-11.27,36.29c-18.09,1.45-39.11,23.11-46.95,48.37-3.47,11.18-3.78,21.19-1.47,28.75l-27.19,24.8c-4.1-13.55-3.53-31.46,2.67-51.46Z"/>
    <path class="cls-2" d="m243.15,90.57l11.26-36.28c32.41-2.6,47.3,32,33.24,77.27-1.01,3.24-2.14,6.45-3.37,9.62l-25.64.67c1.17-2.68,2.19-5.42,3.05-8.2,7.84-25.25-.46-44.53-18.54-43.08Z"/>
    <path class="cls-10" d="m167.55,192.53l27.18-24.78c2.35,7.72,7.42,12.89,14.62,14.13l-16.27,35.97c-12.57-2.46-21.41-11.68-25.53-25.32Z"/>
    <path class="cls-9" d="m76.15,151.15l-5.71,35.12c-1.98.75-4.02,1.72-6.1,2.92-17.54,10.13-32.12,33.05-35.13,53.9l-28.46,15.16c3.7-38.63,30.76-82.58,63.59-101.53,4.03-2.33,7.98-4.18,11.81-5.57Z"/>
    <path class="cls-8" d="m128.35,193.14c0,40.53-28.65,89.94-64,110.36v-32.47c19.71-11.38,35.68-38.93,35.68-61.54,0-10-3.13-17.35-8.33-21.46l21.78-33.33c9.28,7.37,14.87,20.55,14.87,38.44Z"/>
    <path class="cls-3" d="m64.25,271.03v32.47C28.9,323.91.25,307.6.25,267.08c0-2.9.15-5.85.43-8.83l28.45-15.15c-.37,2.59-.57,5.14-.57,7.63,0,22.6,15.98,31.68,35.69,20.3Z"/>
    <path class="cls-12" d="m113.45,154.64l-21.76,33.31c-5.3-4.2-12.75-5-21.24-1.77l5.7-35.1c14.9-5.42,27.97-3.87,37.3,3.56Z"/>
    <path class="cls-24" d="m119,331.04l-102.9,59.37c-.66.38-1.2-.02-1.2-.91v-.64c0-.88.54-1.91,1.2-2.29l102.9-59.37c.66-.38,1.2.02,1.2.91v.64c0,.88-.54,1.91-1.2,2.29Z"/>
    <polygon class="cls-21" points="292.95 290.93 .35 459.85 .35 366.07 292.95 197.15 292.95 290.93"/>
    <polygon class="cls-20" points="292.95 323.9 .35 492.8 .35 459.9 292.95 291 292.95 323.9"/>
    <path class="cls-24" d="m82.53,382.81l-66.96,38.62c-.54.31-.97-.02-.97-.73v-1.26c0-.71.44-1.55.97-1.85l66.96-38.62c.54-.31.97.02.97.73v1.26c0,.71-.44,1.55-.97,1.85Z"/>
    <path class="cls-24" d="m269.7,244.04l-102.9,59.37c-.66.38-1.2-.02-1.2-.91v-.64c0-.88.54-1.91,1.2-2.29l102.9-59.37c.66-.38,1.2.02,1.2.91v.64c0,.88-.54,1.91-1.2,2.29Z"/>
    <path class="cls-24" d="m233.23,295.81l-66.96,38.62c-.54.31-.97-.02-.97-.73v-1.26c0-.71.44-1.55.97-1.85l66.96-38.62c.54-.31.97.02.97.73v1.26c0,.71-.44,1.55-.97,1.85Z"/>
    <path class="cls-18" d="m661.35,579.98l-.12,18.38c-.02,3.17-2.18,6.32-6.47,8.71l-248.5,138.05c-8.53,4.74-22.27,4.63-30.68-.27l-274-159.29c-4.18-2.44-6.25-5.59-6.23-8.73l.11-18.42c0,3.12,2.08,6.26,6.24,8.68l274,159.31c8.41,4.88,22.15,5.01,30.68.26l248.5-138.05c2.16-1.2,3.77-2.58,4.85-4.08.15-.19.27-.38.38-.57.12-.2.25-.4.35-.61.07-.13.13-.26.19-.39.12-.28.24-.56.33-.84.04-.13.09-.27.12-.4.11-.4.18-.82.21-1.22.02-.17.03-.33.03-.49Z"/>
    <path class="cls-19" d="m661.35,579.95h0c0,.18-.01.34-.03.51-.03.4-.1.82-.21,1.22-.03.13-.08.27-.12.4-.09.28-.2.56-.33.84-.06.13-.12.26-.19.39-.1.2-.22.4-.35.61-.12.19-.25.38-.38.57-1.08,1.49-2.69,2.87-4.85,4.08l-248.55,138.04c-8.53,4.75-22.28,4.63-30.69-.26l-274.05-159.29c-4.17-2.41-6.24-5.56-6.24-8.68s2.17-6.36,6.48-8.77l248.55-138.04c8.53-4.74,22.28-4.61,30.69.27l274.04,159.29c4.22,2.46,6.3,5.65,6.24,8.81Z"/>
    <path class="cls-24" d="m181.4,556.2c-1.85.12-58.1-18.53-58.1-18.53l58.1-32.27v50.8Z"/>
    <polygon class="cls-18" points="181.65 403.4 181.65 556.07 394.25 678.8 394.25 526.13 181.65 403.4"/>
    <polygon class="cls-19" points="580.35 571.44 394.35 678.85 394.35 526.16 580.35 418.75 580.35 571.44"/>
    <polygon class="cls-16" points="306 519.03 306 627.9 251.9 596.57 251.9 487.7 259.35 491.99 306 519.03"/>
    <polygon points="305.95 519.04 305.95 619.8 259.35 592.76 259.35 492 305.95 519.04"/>
    <line class="cls-23" x1="251.95" y1="596.5" x2="259.35" y2="592.7"/>
    <polygon points="461.13 583.58 463.5 584.95 531.1 545.97 530.94 487.94 528.54 486.45 461 525.53 461.13 583.58"/>
    <polygon class="cls-6" points="529.24 489.5 529.4 544.67 464.86 581.9 464.7 526.73 529.24 489.5"/>
    <polygon class="cls-15" points="150.05 400.89 388.05 538.3 507.05 366.54 298.8 246.3 150.05 400.89"/>
    <polygon class="cls-18" points="596.25 418.06 388.05 538.25 507.02 366.55 596.25 418.06"/>
    <polygon class="cls-18" points="309.95 391.14 309.95 450.3 258.75 420.72 258.75 369.04 265.22 365.3 275.69 371.35 275.94 371.49 286.41 377.54 309.95 391.14"/>
    <polygon class="cls-19" points="309.95 450.35 327.02 440.49 361.15 361.65 309.95 391.22 309.95 450.35"/>
    <polyline points="294.35 380.06 294.35 425.42 291.87 427.05 264.35 410.96 264.48 366.15"/>
    <polygon class="cls-6" points="291.45 379.02 291.32 425.15 265.65 410.3 265.77 367.05 291.45 379.02"/>
    <polygon class="cls-22" points="275.75 359.17 309.91 418.35 361.15 388.76 361.15 309.85 275.75 359.17"/>
    <polygon class="cls-15" points="309.9 418.4 299.43 412.35 275.88 371.52 275.75 371.3 275.62 371.37 258.67 381.17 252.07 384.98 241.6 378.93 258.67 369.07 265.15 365.32 275.75 359.2 286.35 377.57 309.9 418.4"/>
    <polygon class="cls-1" points="515.3 497.45 486.1 569.6 469.6 579.15 498.8 506.99 515.3 497.45"/>
    <path class="cls-14" d="m820.54,628.8l17.59,48.96c1.37,3.8-1.04,8.25-6.69,13.59-11.38,10.75-33.44,18.66-49.16,17.79-7.91-.44-12.6-2.94-13.99-6.79l-17.88-49.06"/>
    <path class="cls-17" d="m726.82,369.1l97.06,269.04c1.37,3.81-1.14,8.25-6.8,13.6-11.38,10.76-33.46,18.77-49.18,17.9-7.91-.44-12.71-2.94-14.09-6.8l-96.76-269.04"/>
    <path class="cls-13" d="m712.9,362.72c15.71.88,19.27,10.33,7.89,21.08-11.38,10.75-33.73,18.86-49.45,17.99-15.71-.88-19.17-10.33-7.79-21.08,11.38-10.75,33.63-18.86,49.35-17.99Z"/>
    <path class="cls-6" d="m698.55,324.7l17.2,44.97c.95,2.64-.38,6.06-4.3,9.76-7.89,7.45-23.21,13.03-34.1,12.42-5.48-.31-8.84-2.13-9.8-4.8l-17.1-44.87"/>
    <path class="cls-6" d="m696.37,355.55l30.25-17.58c24.2-14.06,39.21-43.97,39.33-86.47.24-85.57-59.93-189.77-134.4-232.76-37.47-21.63-71.43-23.64-95.95-9.4l-30.25,17.58"/>
    <path id="_path_" data-name="&amp;lt;path&amp;gt;" class="cls-13" d="m599.89,37.25c74.48,43,134.65,147.22,134.41,232.81-.24,85.57-60.81,120.09-135.29,77.09-74.47-43-134.65-147.24-134.41-232.81s60.82-120.09,135.29-77.09Z"/>
    <path class="cls-17" d="m534.5,63.25l-9.11,4.21c-18.73,10.89-30.35,34.04-30.44,66.95-.19,66.25,46.38,146.94,104.02,180.22,29.01,16.75,55.29,18.3,74.27,7.27l5.11-3.43"/>
    <path class="cls-5" d="m703.85,254.85c-.07,23.99-6.27,42.81-16.89,55.46-2.59,3.11-5.46,5.82-8.57,8.17-17.9,6.16-40.61,2.9-65.3-11.35-.21-.12-.41-.24-.62-.36-57.37-33.5-103.61-113.83-103.42-179.82.09-29.88,9.68-51.73,25.47-63.64,2.47-.86,5.05-1.53,7.71-2.01,16.51-3.02,36.31,1.1,57.56,13.37,57.66,33.28,104.25,113.97,104.06,180.18Z"/>
    <ellipse class="cls-4" cx="629.25" cy="146.1" rx="25.54" ry="44.24" transform="translate(12.5 338.23) rotate(-30.37)"/>
  </g>
</svg>