<?xml version="1.0" encoding="UTF-8"?>
<svg id="Layer_2" data-name="Layer 2" xmlns="http://www.w3.org/2000/svg" viewBox="0 0 770.81 971.24">
  <defs>
    <style>
      .cls-1, .cls-2 {
        fill: #231f20;
        stroke-width: 1.5px;
      }

      .cls-3 {
        fill: #e1ff62;
        stroke-width: 1.5px;
      }

      .cls-3, .cls-4, .cls-5, .cls-6, .cls-7, .cls-2, .cls-8, .cls-9, .cls-10, .cls-11, .cls-12, .cls-13, .cls-14, .cls-15 {
        stroke-miterlimit: 10;
        stroke-width: 1.5px;
      }

      .cls-3, .cls-5, .cls-7, .cls-2, .cls-8, .cls-9, .cls-10, .cls-11, .cls-12, .cls-13, .cls-14 {
        stroke: #231f20;
      }

      .cls-4 {
        stroke: #232323;
        stroke-linecap: round;
      }

      .cls-4, .cls-14, .cls-15 {
        fill: none;
        stroke-width: 1.5px;
      }

      .cls-5, .cls-6, .cls-7, .cls-2, .cls-8, .cls-9, .cls-10, .cls-11, .cls-12, .cls-13, .cls-16, .cls-17, .cls-14, .cls-15 {
        stroke-width: 1.5px;
      }

      .cls-5, .cls-6, .cls-17 {
        fill: #fff;
        stroke-width: 1.5px;
      }

      .cls-6 {
        stroke: #6d6e71;
      }

      .cls-7 {
        fill: #6d54af;
      }

      .cls-8 {
        fill: #3180e9;
      }

      .cls-9 {
        fill: #907ac2;
      }

      .cls-10 {
        fill: #2d8e96;
      }

      .cls-11 {
        fill: #49aefc;
      }

      .cls-12 {
        fill: #acdce0;
      }

      .cls-13 {
        fill: #d7ecf1;
      }

      .cls-16 {
        fill: #808285;
      }

      .cls-16, .cls-17 {
        stroke-linejoin: round;
      }

      .cls-16, .cls-17, .cls-15 {
        stroke: #000;
      }

      .cls-18 {
        opacity: .5;
      }
    </style>
  </defs>
  <g id="phone">
    <path class="cls-18" d="m762.37,683.01c11.2,6.47,11.27,16.96.13,23.43l-447.3,259.94c-11.13,6.47-29.25,6.47-40.45,0L17.82,818.05c-11.21-6.47-11.27-16.97-.14-23.44l447.3-259.94c11.14-6.47,29.25-6.47,40.46,0l256.93,148.34Z"/>
    <path class="cls-10" d="m761.8,572.82l-.11,39.02c-.02,4.21-2.78,8.42-8.32,11.63l-447.3,259.95c-11.13,6.46-29.25,6.46-40.45,0L8.69,735.08c-5.64-3.26-8.46-7.53-8.44-11.8l.11-39"/>
    <path class="cls-12" d="m753.3,561.02c11.2,6.47,11.27,16.96.13,23.43l-447.3,259.94c-11.13,6.47-29.25,6.47-40.45,0L8.75,696.06c-11.21-6.47-11.27-16.97-.14-23.44l447.3-259.94c11.14-6.47,29.25-6.47,40.46,0l256.93,148.34Z"/>
    <path class="cls-13" d="m711.06,555.41c9.42,5.44,9.48,14.26.11,19.71l-345.45,201.13c-9.36,5.44-24.6,5.44-34.02,0l-216.05-124.74c-9.43-5.44-9.48-14.27-.12-19.71l345.45-201.13c9.37-5.44,24.6-5.44,34.02,0l216.05,124.74Z"/>
    <path class="cls-7" d="m213.59,737.99c-1.02,3.57-3.9,6.98-8.64,9.74-12.13,7.05-31.85,7.05-44.06,0-4.82-2.78-7.74-6.24-8.77-9.85-1.58-5.54,1.29-11.41,8.63-15.67,12.13-7.05,31.85-7.05,44.06,0,7.44,4.3,10.37,10.22,8.78,15.78Z"/>
    <path class="cls-9" d="m213.59,737.99c-1.02,3.57-3.9,6.98-8.64,9.74-12.13,7.05-31.85,7.05-44.06,0-4.82-2.78-7.74-6.24-8.77-9.85,1.02-3.57,3.9-6.98,8.63-9.74,12.13-7.05,31.85-7.05,44.06,0,4.82,2.78,7.74,6.24,8.78,9.85Z"/>
    <path class="cls-12" d="m169.94,802.97v13.1c0,2.16-1.31,3.16-2.94,2.22l-61.34-35.42c-1.62-.94-2.94-3.45-2.94-5.62v-13.09c0-2.16,1.32-3.16,2.94-2.22l.71.41,60.63,35.01c1.63.94,2.94,3.45,2.94,5.61Z"/>
    <path class="cls-2" d="m169.94,802.97v12.42l-60.63-35c-1.62-.94-2.94-3.45-2.94-5.62v-12.42l60.63,35.01c1.63.94,2.94,3.45,2.94,5.61Z"/>
    <line class="cls-15" x1="552.48" y1="701.41" x2="552.48" y2="740.36"/>
    <line class="cls-15" x1="715.46" y1="606.79" x2="715.46" y2="645.75"/>
    <path class="cls-12" d="m575.78,723.52l-7.05-4.1c-1.94-1.13-3.15-3.53-3.16-6.95-.01-6.87,4.82-15.24,10.79-18.69l114.37-66.03c3.01-1.74,5.74-1.9,7.71-.75l7.04,4.09"/>
    <path class="cls-10" d="m709.18,638.24c.02,6.87-4.81,15.24-10.79,18.69l-114.37,66.03c-3.07,1.77-5.84,1.9-7.82.68-.17-.1-.33-.22-.49-.34-.14-.11-.27-.23-.4-.35-.03-.03-.06-.06-.08-.09-.14-.13-.27-.28-.39-.43-.12-.14-.23-.29-.33-.45-.04-.06-.08-.12-.11-.18-.09-.12-.16-.25-.22-.38-.06-.1-.11-.21-.16-.32-.13-.27-.24-.55-.34-.85-.02-.04-.03-.07-.04-.11-.05-.15-.09-.31-.13-.47-.04-.15-.08-.31-.11-.46-.05-.24-.09-.49-.12-.74-.04-.24-.07-.49-.08-.74-.01-.03-.01-.07-.01-.1-.02-.28-.03-.57-.03-.86-.02-6.87,4.81-15.24,10.79-18.69l114.37-66.03c1.75-1.01,3.4-1.49,4.86-1.49.18,0,.36.01.53.02l.24.03h.04c.16.02.32.05.47.08.18.04.35.09.52.14.04.01.09.03.13.05.17.05.34.12.5.2.14.06.27.13.41.21,1.95,1.13,3.15,3.54,3.16,6.95Z"/>
    <line class="cls-4" x1="737.81" y1="408.19" x2="701.22" y2="427.17"/>
    <line class="cls-4" x1="690.21" y1="372.15" x2="675.25" y2="410.28"/>
    <line class="cls-4" x1="739.87" y1="467.85" x2="699.82" y2="458.27"/>
    <path class="cls-17" d="m556,316.36L228.72,127.41c-23.08-13.32-41.79-49.07-41.79-79.84v-10.72c0-30.77,18.71-44.91,41.79-31.59l285.5,164.83c23.08,13.32,41.79,49.07,41.79,79.84v66.43Z"/>
    <path class="cls-6" d="m364.64,168.32l-115.21-66.52c-9.19-5.3-16.63-19.53-16.63-31.78h0c0-12.25,7.45-17.88,16.63-12.57l115.21,66.52c9.19,5.3,16.63,19.53,16.63,31.78h0c0,12.25-7.45,17.88-16.63,12.57Z"/>
    <path class="cls-6" d="m464.34,225.88l-51.38-29.66c-9.19-5.3-16.63-19.53-16.63-31.78h0c0-12.25,7.45-17.88,16.63-12.57l51.38,29.66c9.19,5.3,16.63,19.53,16.63,31.78h0c0,12.25-7.45,17.88-16.63,12.57Z"/>
    <path class="cls-5" d="m451.44,645.75l-251.85-145.4c-20.41-11.79-36.96-43.41-36.96-70.63v-23.57c0-27.22,16.55-39.73,36.96-27.94l214.88,124.06c20.41,11.79,36.96,43.41,36.96,70.63v72.86Z"/>
    <path class="cls-6" d="m391.19,571.28l-170.94-98.69c-9.19-5.3-16.63-19.53-16.63-31.78h0c0-12.25,7.45-17.88,16.63-12.57l170.94,98.69c9.19,5.3,16.63,19.53,16.63,31.78h0c0,12.25-7.45,17.88-16.63,12.57Z"/>
    <path class="cls-11" d="m250.91,331.18l370.09,213.67c24.45,14.12,44.28-.87,44.28-33.47v-4.07c0-32.6-19.82-70.48-44.28-84.6l-325.82-188.11c-24.45-14.12-44.28.87-44.28,33.47v63.11Z"/>
    <ellipse class="cls-3" cx="607.02" cy="478.9" rx="22.01" ry="38.13" transform="translate(-158.81 372.48) rotate(-30.36)"/>
    <ellipse class="cls-1" cx="598.79" cy="464.13" rx="3.61" ry="6.26" transform="translate(-152.47 366.3) rotate(-30.36)"/>
    <path class="cls-14" d="m621.18,488.86c0,8.96-6.34,12.57-14.16,8.06-7.82-4.52-14.16-15.45-14.16-24.41"/>
    <ellipse class="cls-1" cx="615.24" cy="473.63" rx="3.61" ry="6.26" transform="translate(-155.02 375.92) rotate(-30.36)"/>
    <path class="cls-8" d="m541.66,465.11l-249.68-144.15c-9.19-5.3-16.63-19.53-16.63-31.78h0c0-12.25,7.45-17.88,16.63-12.57l249.68,144.15c9.19,5.3,16.63,19.53,16.63,31.78h0c0,12.25-7.45,17.88-16.63,12.57Z"/>
    <path class="cls-16" d="m286.98,591.74l-110.27-63.66c-3.46-2-5.8-8.16-5.22-13.76h0c.57-5.6,3.84-8.53,7.3-6.53l110.27,63.66c3.46,2,5.8,8.16,5.22,13.76h0c-.57,5.6-3.84,8.53-7.3,6.53Z"/>
  </g>
</svg>