<?xml version="1.0" encoding="UTF-8"?>
<svg id="Layer_2" data-name="Layer 2" xmlns="http://www.w3.org/2000/svg" xmlns:xlink="http://www.w3.org/1999/xlink" viewBox="0 0 1311.04 1079.16">
  <defs>
    <style>
      .cls-1 {
        fill: url(#linear-gradient);
        opacity: .35;
      }

      .cls-2 {
        fill: #d9ef59;
        stroke: #9ebc20;
        stroke-width: .58px;
      }

      .cls-2, .cls-3, .cls-4, .cls-5, .cls-6 {
        stroke-miterlimit: 10;
      }

      .cls-7 {
        fill: #f7f8f9;
      }

      .cls-8 {
        fill: #0065c1;
      }

      .cls-9 {
        fill: #697c7c;
      }

      .cls-10 {
        fill: #fff;
      }

      .cls-11 {
        fill: #657f7f;
      }

      .cls-12 {
        fill: #929694;
      }

      .cls-13 {
        fill: #9fb6b7;
      }

      .cls-14 {
        fill: #b1bcb9;
      }

      .cls-15 {
        fill: #a9b7b7;
      }

      .cls-16 {
        fill: #dce1e2;
      }

      .cls-17 {
        fill: #6f7a7a;
      }

      .cls-18 {
        fill: #899b9b;
      }

      .cls-19 {
        fill: #58595b;
      }

      .cls-20 {
        fill: #515654;
      }

      .cls-3 {
        fill: #0072ef;
      }

      .cls-3, .cls-4, .cls-5, .cls-6 {
        stroke: #231f20;
        stroke-width: .5px;
      }

      .cls-4 {
        fill: #98d9ff;
      }

      .cls-5 {
        fill: #3180e9;
      }

      .cls-6 {
        fill: #49aefc;
      }

      .cls-21 {
        fill: #231f20;
        opacity: .5;
      }
    </style>
    <linearGradient id="linear-gradient" x1="-533.68" y1="-1104.55" x2="-506.43" y2="-862.58" gradientTransform="translate(1682.36 1391.52) rotate(-20.63) scale(1.08 1.29)" gradientUnits="userSpaceOnUse">
      <stop offset="0" stop-color="#fff"/>
      <stop offset=".19" stop-color="#fdfdfd" stop-opacity=".99"/>
      <stop offset=".26" stop-color="#fcfcfc" stop-opacity=".98"/>
      <stop offset=".36" stop-color="#fcfcfc" stop-opacity=".78"/>
      <stop offset=".48" stop-color="#fdfdfd" stop-opacity=".55"/>
      <stop offset=".6" stop-color="#fdfdfd" stop-opacity=".35"/>
      <stop offset=".72" stop-color="#fefefe" stop-opacity=".2"/>
      <stop offset=".82" stop-color="#fefefe" stop-opacity=".09"/>
      <stop offset=".91" stop-color="#fefefe" stop-opacity=".02"/>
      <stop offset=".98" stop-color="#fff" stop-opacity="0"/>
    </linearGradient>
  </defs>
  <g id="guarantee">
    <rect class="cls-12" y="341.64" width="1310.6" height="737.52"/>
    <path class="cls-20" d="m1310.6,572.78v-61.32l-49.15,28.38h-.02s-250.35-144.56-250.35-144.56l92.91-53.64h-106.21l-260.51,150.41-.2-.12-250.17-144.44,10.13-5.85h-106.62l-178.95,103.55-179.35-103.55H0v42.79l158.35,91.42L0,567.27v61.32l7.18-4.15,250.28,144.51.09.05L0,917.71v61.32l238.36-137.62,250.26,144.49.11.07-161.41,93.19h106.22l475.32-274.43,250.36,144.55-224.95,129.87h106.22l91.29-52.71,91.29,52.71h87.54v-10.78l-125.72-72.58,125.72-72.58v-61.32l-98.27,56.74-250.36-144.55h0s348.64-201.29,348.64-201.29Zm-1250.31,21.01l373.5-215.64,250.17,144.44.2.12-373.5,215.64-.09-.05-250.28-144.51Zm795.45,180.28l-313.9,181.23-.11-.07-250.26-144.49,313.9-181.23,250.37,144.55h0Zm53.12-30.66h0l-250.37-144.55,299.48-172.9,250.35,144.54h.02s-299.47,172.91-299.47,172.91Z"/>
    <polygon class="cls-19" points="855.74 774.07 855.74 774.07 851.41 771.57 851.41 771.57 855.74 774.07"/>
    <polygon class="cls-16" points="1112.37 593.29 1026.98 642.6 1027.11 563.8 1112.37 514.57 1112.37 593.29"/>
    <polygon class="cls-15" points="1120.87 511.7 1018.56 570.77 1086.76 492.01 1120.87 511.7"/>
    <polygon class="cls-13" points="231.56 592.72 231.56 667.19 138.71 613.18 138.71 538.71 183.2 490.33 231.56 592.72"/>
    <polyline class="cls-16" points="231.56 592.72 425.02 481.02 425.02 555.49 231.56 667.19"/>
    <polyline class="cls-15" points="230.48 595.59 428.28 481.38 362.34 386.2 181.02 490.89 230.48 595.59"/>
    <polygon class="cls-9" points="230.48 595.59 220.01 589.55 178.84 502.39 137.67 542 131.57 538.48 181.02 490.89 230.48 595.59"/>
    <polygon class="cls-17" points="296.05 630.04 271.22 644.37 271.22 593.1 296.05 578.76 296.05 630.04"/>
    <polygon class="cls-17" points="184.57 622 160.36 608.02 160.36 561.66 184.57 575.64 184.57 622"/>
    <polygon class="cls-13" points="1145.95 778.9 1145.95 853.37 1053.1 799.35 1053.1 724.88 1097.58 676.5 1145.95 778.9"/>
    <polygon class="cls-16" points="1277.08 703.18 1310.6 683.83 1310.6 758.3 1275.41 778.61 1210.43 816.13 1185.6 830.47 1145.95 853.36 1145.95 778.89 1275.4 704.15 1275.41 704.15 1277.08 703.18"/>
    <polygon class="cls-15" points="1310.6 621.27 1276.73 572.37 1095.41 677.07 1095.97 678.26 1144.86 781.76 1145.95 781.13 1275.41 706.38 1276.27 705.88 1279.01 704.3 1310.6 686.06 1310.6 683.83 1310.6 627.11 1310.6 621.27"/>
    <polygon class="cls-9" points="1144.86 781.76 1134.39 775.72 1093.22 688.56 1052.06 728.18 1045.96 724.66 1095.41 677.07 1144.86 781.76"/>
    <polygon class="cls-13" points="1310.6 722.57 1310.6 799.48 1275.41 779.12 1275.41 702.21 1277.08 703.18 1279.01 704.3 1310.6 722.57"/>
    <polygon class="cls-9" points="1310.6 627.11 1310.6 726.37 1276.27 705.88 1275.41 705.37 1275.4 704.15 1274.92 606.69 1310.6 627.11"/>
    <polygon class="cls-17" points="1210.43 816.21 1185.6 830.55 1185.6 779.27 1210.43 764.94 1210.43 816.21"/>
    <polygon class="cls-17" points="1098.96 808.17 1074.75 794.19 1074.75 747.84 1098.96 761.82 1098.96 808.17"/>
    <polygon class="cls-17" points="1262.1 762.42 1239.37 775.54 1239.37 748.83 1262.1 735.71 1262.1 762.42"/>
    <polygon class="cls-16" points="928.64 836.65 928.64 795.24 914.3 803.52 914.3 844.94 928.64 836.65"/>
    <polygon class="cls-13" points="899.95 836.65 899.95 795.24 914.3 803.52 914.3 844.94 899.95 836.65"/>
    <polygon class="cls-16" points="1010.38 883.03 1010.32 964.93 833.46 1067.13 833.33 985.34 1010.38 883.03"/>
    <polygon class="cls-13" points="744.82 1015.95 833.46 1067.13 833.33 985.34 744.83 934.24 744.82 1015.95"/>
    <polygon class="cls-15" points="1019.2 890.38 842.2 992.5 771.4 910.82 948.4 808.62 1019.2 890.38"/>
    <polygon class="cls-9" points="736 931.26 842.2 992.57 771.4 910.82 736 931.26"/>
    <polygon class="cls-16" points="937 883.68 937 910.69 960.39 897.19 960.39 873.59 957.43 871.88 952.65 874.64 952.54 874.71 947.76 877.47 937 883.68"/>
    <polygon class="cls-17" points="943.3 901.22 955.85 893.57 955.85 872.69 943.3 880.34 943.3 901.22"/>
    <polygon class="cls-18" points="937 910.69 929.21 906.19 913.61 870.18 937 883.68 937 910.69"/>
    <polygon class="cls-9" points="952.6 869.09 937 896.1 913.61 882.59 913.61 846.58 952.6 869.09"/>
    <polygon class="cls-18" points="937 896.1 941.79 893.34 952.54 874.71 952.6 874.61 952.65 874.64 960.39 879.11 963.41 880.85 968.19 878.09 960.39 873.59 957.43 871.88 952.6 869.09 947.76 877.47 937 896.1"/>
    <polygon class="cls-17" points="913.79 1020.77 940.37 1005.42 940.37 954.81 913.79 970.15 913.79 1020.77"/>
    <polygon class="cls-17" points="965.68 958.51 986.36 946.57 986.36 922.87 965.68 934.81 965.68 958.51"/>
    <polygon class="cls-17" points="773.99 997.12 794.66 1009.05 794.66 985.35 773.99 973.41 773.99 997.12"/>
    <polygon class="cls-17" points="864.26 1017.21 884.94 1005.27 884.94 981.57 864.26 993.5 864.26 1017.21"/>
    <polygon class="cls-16" points="864.11 926.37 864.11 953.39 887.5 939.88 887.5 916.29 884.54 914.58 879.76 917.34 879.65 917.41 874.87 920.17 864.11 926.37"/>
    <polygon class="cls-17" points="870.41 943.91 882.96 936.26 882.96 915.39 870.41 923.04 870.41 943.91"/>
    <polygon class="cls-18" points="864.11 953.39 856.32 948.88 840.72 912.87 864.11 926.38 864.11 953.39"/>
    <polygon class="cls-9" points="879.7 911.78 864.11 938.79 840.72 925.29 840.72 889.27 879.7 911.78"/>
    <polygon class="cls-18" points="864.11 938.79 868.89 936.03 879.65 917.41 879.7 917.31 879.76 917.34 887.5 921.81 890.52 923.55 895.3 920.79 887.5 916.29 884.54 914.58 879.7 911.78 874.87 920.17 864.11 938.79"/>
    <polygon class="cls-13" points="1156.36 360.89 1156.36 411.91 1244.73 462.93 1244.73 411.91 1156.36 360.89"/>
    <polygon class="cls-16" points="1310.6 373.88 1310.6 424.9 1244.73 462.93 1244.73 411.91 1253.04 407.12 1253.04 407.11 1253.04 407.11 1310.6 373.88"/>
    <polygon class="cls-15" points="1156.36 412.02 1156.36 424.55 1244.73 475.58 1244.73 463.05 1156.36 412.02"/>
    <polygon class="cls-15" points="1310.6 425.01 1310.6 437.54 1244.73 475.58 1244.73 463.04 1310.6 425.01"/>
    <polygon class="cls-9" points="1293.57 348.61 1253.04 407.11 1244.73 419.11 1244.11 420 1156.36 369.34 1145.19 362.89 1165.64 341.64 1281.5 341.64 1293.57 348.61"/>
    <polygon class="cls-15" points="1310.6 358.45 1310.6 381.61 1244.73 419.64 1244.11 420 1244.73 419.11 1253.04 407.11 1253.04 407.11 1293.57 348.61 1310.6 358.45"/>
    <polygon class="cls-17" points="1208.64 454.76 1184.43 440.78 1184.43 397.1 1208.64 411.07 1208.64 454.76"/>
    <polygon class="cls-17" points="1297.86 421.56 1273.03 435.9 1273.03 412.68 1297.86 398.34 1297.86 421.56"/>
    <polygon class="cls-13" points="417.61 780.36 417.61 844.05 505.98 895.07 505.98 831.39 417.61 780.36"/>
    <polygon class="cls-16" points="583.3 850.43 505.98 895.07 505.98 831.39 553.79 772.9 583.3 786.74 583.3 850.43"/>
    <polygon class="cls-13" points="585.91 1079.16 547.99 1079.16 547.99 1057.26 585.91 1079.16"/>
    <polygon class="cls-16" points="713.68 1063.64 713.68 1079.16 660.16 1079.16 668.58 1068.86 669.03 1068.32 684.16 1049.8 713.68 1063.64"/>
    <polygon class="cls-9" points="685.19 1044.98 685.17 1045.01 669.03 1068.32 661.52 1079.16 571.28 1079.16 547.99 1065.72 536.81 1059.26 598.64 995.01 601.31 996.55 614.37 1004.09 627.43 1011.63 685.19 1044.98"/>
    <polygon class="cls-13" points="601.3 1011.66 601.3 985.76 614.37 993.3 614.37 1019.21 601.3 1011.66"/>
    <polygon class="cls-16" points="627.44 1011.66 627.44 985.76 614.37 993.3 614.37 1019.21 621.95 1008.69 627.44 1011.66"/>
    <polygon class="cls-16" points="601.3 985.76 614.37 993.3 627.44 985.76 614.37 978.21 601.3 985.76"/>
    <polygon class="cls-17" points="605.98 985.76 614.37 990.6 622.75 985.76 614.37 980.92 605.98 985.76"/>
    <polygon class="cls-15" points="722.21 1066.4 717.17 1069.31 713.68 1067.29 687.61 1052.24 668.96 1079.16 661.45 1079.16 668.58 1068.86 685.12 1044.98 685.17 1045.01 722.21 1066.4"/>
    <polygon class="cls-13" points="225.08 341.64 225.08 399.04 136.71 348.02 136.71 341.64 225.08 341.64"/>
    <polygon class="cls-16" points="302.4 341.64 302.4 354.4 225.08 399.04 225.08 341.64 302.4 341.64"/>
    <polygon class="cls-17" points="188.99 341.64 188.99 357.43 164.77 343.46 164.77 341.64 188.99 341.64"/>
    <polygon class="cls-17" points="284.53 341.64 284.53 364.65 259.7 378.98 259.7 341.64 284.53 341.64"/>
    <polygon class="cls-13" points="225.08 341.64 225.08 399.04 136.71 348.02 136.71 341.64 225.08 341.64"/>
    <polygon class="cls-16" points="302.4 341.64 302.4 354.4 225.08 399.04 225.08 341.64 302.4 341.64"/>
    <polygon class="cls-17" points="284.53 341.64 284.53 364.65 259.7 378.98 259.7 341.64 284.53 341.64"/>
    <polygon class="cls-20" points="411.09 1031.99 352.38 1065.86 302.71 1037.95 361.42 1004.09 411.09 1031.99"/>
    <path class="cls-17" d="m64.09,500.47c.23.53.15,1.16-.24,1.58-1.33,1.44-3.6,2.63-8,2.63s-6.67-1.19-8-2.63c-.39-.43-.48-1.05-.24-1.58,4.7-10.65,3.64-34.64,3.64-34.64h9.2s-1.06,23.99,3.64,34.64Z"/>
    <circle class="cls-9" cx="55.85" cy="440.93" r="29.49"/>
    <polygon class="cls-16" points="89.64 718.36 89.63 730.81 89.58 800.26 19.63 840.68 0 852.03 0 770.16 89.64 718.36"/>
    <polygon class="cls-15" points="98.46 725.71 89.63 730.81 0 782.52 0 659.93 7.9 655.37 27.66 643.96 98.46 725.71"/>
    <polygon class="cls-16" points="16.27 719.02 16.27 746.03 39.65 732.52 39.65 708.93 36.7 707.22 31.92 709.98 31.8 710.05 27.02 712.81 16.27 719.02"/>
    <polygon class="cls-17" points="22.56 736.56 35.12 728.9 35.12 708.03 22.56 715.68 22.56 736.56"/>
    <polygon class="cls-18" points="16.27 719.02 16.27 746.03 8.47 741.53 .05 722.07 0 721.96 0 709.62 16.27 719.02"/>
    <polygon class="cls-9" points="31.86 704.43 27.02 712.81 27.02 712.82 26.89 713.04 26.88 713.05 22.56 720.53 22.56 720.53 16.27 731.43 .05 722.07 0 722.04 0 686.03 31.86 704.43"/>
    <polygon class="cls-18" points="16.27 731.44 21.05 728.68 31.8 710.05 31.86 709.95 31.92 709.98 39.65 714.45 42.67 716.19 47.45 713.43 39.65 708.93 36.7 707.22 31.86 704.43 27.02 712.81 16.27 731.44"/>
    <polygon class="cls-17" points="19.63 790.14 19.63 840.76 0 852.09 0 801.48 19.63 790.14"/>
    <polygon class="cls-17" points="44.94 793.84 65.62 781.91 65.62 758.2 44.94 770.14 44.94 793.84"/>
    <path class="cls-21" d="m559.31,917.58c-144.82-.44-335.85-69.5-469.67-163.89v-22.88s3.14-1.26,3.14-1.26c-.21-.06-.42-.12-.64-.19-35.71-20.56-61.61-47.1-74.66-62.16-.02-.02-.03-.03-.05-.05-5.68-6.56-8.91-10.93-9.45-11.66-.01-.02-.03-.05-.04-.06-.02-.03-.03-.05-.03-.05v-24.79l-7.9-4.56v-150.56c26.15-10.2,60.22-15.74,101.81-15.62,35.2.11,73.12,4.27,112.29,11.85l31.24-18.01s14.11,12.05,28.88,32.07c12.48,16.92,25.25,39.38,29.88,64.64,24.19-11.72,63-34.14,63-34.14,109.76,42.18,214.61,104.28,283.72,173.43,126.33,126.4,85.35,228.44-91.52,227.91Z"/>
    <polygon class="cls-13" points="106.39 1011.57 106.39 1079.16 94.55 1079.16 13.54 1032.03 13.54 957.56 56.41 910.93 58.02 909.18 106.39 1011.57"/>
    <polygon class="cls-16" points="299.84 899.87 299.84 974.34 291.97 978.89 291.79 978.99 235.85 1011.29 170.87 1048.81 146.04 1063.14 118.3 1079.16 106.39 1079.16 106.39 1011.57 235.84 936.82 235.85 936.82 237.52 935.86 299.84 899.87"/>
    <polygon class="cls-15" points="105.3 1014.44 303.1 900.23 237.17 805.05 55.85 909.74 105.3 1014.44 105.3 1014.44"/>
    <polygon class="cls-11" points="105.3 1014.44 94.83 1008.4 53.66 921.24 12.49 960.85 6.4 957.33 55.85 909.74 105.3 1014.44"/>
    <polygon class="cls-13" points="235.85 934.89 235.85 1011.79 291.78 1044.15 291.78 967.24 235.85 934.89"/>
    <polygon class="cls-16" points="369.1 999.51 291.78 1044.15 292.02 962.82 339.82 904.34 369.34 918.17 369.1 999.51"/>
    <polygon class="cls-9" points="235.85 938.04 288.86 969.68 338.32 898.29 235.36 839.36 235.85 938.04"/>
    <polygon class="cls-15" points="375.34 919.71 370.3 922.62 340.74 905.55 301.33 962.44 288.79 969.68 338.25 898.29 375.34 919.71"/>
    <polygon class="cls-17" points="170.87 1048.89 146.04 1063.22 146.04 1011.95 170.87 997.61 170.87 1048.89"/>
    <polygon class="cls-17" points="59.4 1040.85 35.19 1026.87 35.19 980.51 59.4 994.49 59.4 1040.85"/>
    <polygon class="cls-17" points="222.54 995.1 199.81 1008.22 199.81 981.5 222.54 968.38 222.54 995.1"/>
    <polygon class="cls-17" points="361.42 1004.1 302.71 1037.98 302.71 985.48 361.42 951.6 361.42 1004.1"/>
    <polygon class="cls-17" points="359.77 944.64 301.06 978.52 301.35 966.8 360.06 932.92 359.77 944.64"/>
    <path class="cls-6" d="m919.19,56.14c-61.16-31.54-132.93-44.57-209.65-33.78-106.75,15-204.07,73.44-276.68,156.68-79.41,91.04-129.24,211.76-129.48,337.79-.28,152.49,72.13,276.8,181.89,339.68l-20.8-11.32c-117-60.32-195.16-188.32-194.87-346.74.23-126.02,50.07-246.74,129.48-337.78C471.67,77.41,569.01,18.98,675.76,3.98c76.72-10.78,148.49,2.25,209.65,33.78l33.78,18.38Z"/>
    <ellipse class="cls-4" cx="708.72" cy="459.85" rx="455.41" ry="389.29" transform="translate(-33.89 862.69) rotate(-61.46)"/>
    <ellipse class="cls-4" cx="728.71" cy="469.8" rx="372.72" ry="318.6" transform="translate(-32.21 885.42) rotate(-61.45)"/>
    <path class="cls-6" d="m550.57,797.68l-22.97-12.5c-20.57-11.19-39.68-25.05-57.13-41.46-30.43-28.63-54.3-63.59-70.94-103.92-17.24-41.75-25.93-87.45-25.84-135.83.09-48.38,8.95-96.54,26.36-143.16,16.8-45.03,40.81-86.72,71.36-123.92,30.56-37.19,66.12-68.03,105.69-91.64,40.97-24.43,84.47-40.03,129.3-46.33,44.82-6.3,88.29-2.93,129.2,10,16.84,5.33,32.95,12.18,48.25,20.5l22.97,12.5c-15.3-8.32-31.41-15.17-48.25-20.5-40.9-12.93-84.38-16.3-129.2-10-44.83,6.3-88.33,21.89-129.3,46.33-39.57,23.61-75.13,54.44-105.69,91.64-30.56,37.2-54.57,78.89-71.36,123.92-17.4,46.62-26.27,94.78-26.36,143.16-.09,48.38,8.6,94.08,25.84,135.83,16.64,40.33,40.51,75.29,70.94,103.92,17.45,16.41,36.56,30.27,57.13,41.46Z"/>
    <path class="cls-8" d="m1016.02,422.75c-.33,178.34-134.55,341.75-299.78,364.97-43.02,6.05-83.9,1.99-120.84-10.46-91.31-42.41-152.9-139.29-152.67-260.41.33-178.34,134.55-341.74,299.78-364.96,43.03-6.05,83.9-1.99,120.84,10.46,91.31,42.41,152.9,139.28,152.67,260.4Z"/>
    <path class="cls-3" d="m1004.83,424.59c-.32,171.38-129.3,328.41-288.08,350.73-41.34,5.81-80.63,1.91-116.12-10.05-87.74-40.76-146.94-133.85-146.72-250.25.32-171.38,129.3-328.41,288.08-350.72,41.35-5.81,80.63-1.91,116.12,10.05,87.74,40.76,146.94,133.85,146.72,250.24Z"/>
    <path class="cls-1" d="m941.28,327.45c2.18,5.82,4.11,11.74,5.79,17.75-.07.21-.15.43-.23.63-76.54,206.31-281.38,248.48-403.57,254.91-.15,0-.31.01-.46.02-5.97-10.04-11.1-20.79-15.38-32.21-10.51-28.04-15.22-58.42-14.02-90.32,1.16-30.8,7.75-61.69,19.63-91.82,11.86-30.13,28.38-57.99,49.1-82.79,21.45-25.68,46.48-46.95,74.42-63.22,27.93-16.27,57.08-26.56,86.64-30.61,28.56-3.9,56.3-1.83,82.44,6.16,26.15,7.98,49.4,21.49,69.08,40.14,20.4,19.32,36.06,43.33,46.57,71.36Z"/>
    <polygon class="cls-7" points="801 297.24 848.89 290.51 848.86 304.01 832.46 306.31 832.35 361.16 817.28 363.27 817.38 308.43 800.98 310.74 801 297.24"/>
    <path class="cls-7" d="m777.95,332.15l.06-31.68,13.57-1.91-.13,68.34-19.51,2.74-25.45-46.47-.35.05c.06,1.33.12,2.79.17,4.38.11,1.51.2,3.1.26,4.75.06,1.59.11,3.17.17,4.76.06,1.52.11,3.01.17,4.47l-.06,31.58-13.48,1.89.13-68.34,19.42-2.73,25.36,45.9.27-.04c-.06-1.33-.12-2.73-.17-4.18-.06-1.52-.11-3.05-.17-4.57-.06-1.59-.11-3.11-.17-4.57,0-1.53-.02-2.99-.08-4.39Z"/>
    <polygon class="cls-7" points="684.18 381.98 684.31 313.64 721.29 308.45 721.26 321.65 699.36 324.73 699.34 337.85 719.64 334.99 719.62 348.2 699.31 351.05 699.28 366.46 721.19 363.39 721.16 376.78 684.18 381.98"/>
    <path class="cls-7" d="m664.47,350.69c-1.66,1.96-3.58,3.66-5.77,5.12l18.48,27.16-16.94,2.38-14.23-23.64-5.94.84-.05,25.65-15.07,2.12.13-68.34,19.51-2.74c5.74-.81,10.46-.7,14.19.3,3.78.93,6.61,2.8,8.5,5.6,1.89,2.73,2.83,6.36,2.82,10.9,0,2.93-.51,5.62-1.52,8.06-1.01,2.44-2.37,4.64-4.09,6.6Zm-10.98-6.59c.83-1.52,1.25-3.3,1.25-5.34,0-1.85-.38-3.3-1.14-4.34-.77-1.1-1.95-1.83-3.54-2.18-1.59-.42-3.63-.45-6.12-.1l-3.81.54-.03,17.13,3.81-.54c2.42-.34,4.43-.91,6.03-1.71,1.6-.86,2.78-2.02,3.55-3.47"/>
    <polygon class="cls-10" points="977.25 394.85 956.8 397.73 956.77 409.97 975.74 407.31 975.71 419.64 956.75 422.3 956.72 436.69 977.17 433.82 977.15 446.33 942.63 451.18 942.74 387.37 977.27 382.52 977.25 394.85"/>
    <polygon class="cls-10" points="896.7 457.64 896.81 393.83 931.34 388.98 931.32 401.31 910.87 404.18 910.84 416.43 929.81 413.76 929.78 426.09 910.82 428.76 910.79 443.15 931.25 440.27 931.23 452.78 896.7 457.64"/>
    <polygon class="cls-10" points="843.22 413.96 843.24 401.36 887.96 395.07 887.94 407.67 872.62 409.83 872.52 461.04 858.45 463.01 858.54 411.8 843.22 413.96"/>
    <path class="cls-10" d="m821.72,433.95l.05-29.58,12.67-1.78-.12,63.81-18.21,2.56-23.76-43.39-.33.05c.05,1.24.1,2.6.16,4.09.11,1.41.19,2.89.24,4.43.05,1.48.11,2.96.16,4.44.05,1.42.11,2.82.16,4.18l-.05,29.49-12.59,1.77.12-63.81,18.13-2.55,23.68,42.86.25-.03c-.05-1.24-.1-2.54-.16-3.91-.05-1.42-.11-2.84-.16-4.27-.05-1.48-.11-2.9-.16-4.27,0-1.43-.02-2.8-.07-4.1Z"/>
    <path class="cls-10" d="m734.84,416.33l18.05-2.54,20.25,61.21-15.4,2.16-3.62-13.16-20.46,2.87-3.67,14.18-15.4,2.16-15.4,2.16-13.29-22.07-5.55.78-.04,23.95-14.07,1.98.12-63.81,18.21-2.56c5.36-.75,9.77-.66,13.24.28,3.53.87,6.18,2.62,7.94,5.23,1.76,2.55,2.64,5.94,2.63,10.17,0,2.74-.48,5.25-1.42,7.53-.94,2.27-2.22,4.33-3.82,6.17-1.55,1.82-3.34,3.42-5.39,4.78l16.98,24.96,20.1-66.44Zm2.08,37.41l14.08-1.98-3.45-12.29c-.28-1.03-.66-2.41-1.15-4.13-.44-1.78-.9-3.59-1.4-5.43-.44-1.84-.79-3.4-1.07-4.67-.22,1.34-.58,3.03-1.08,5.07-.44,1.97-.89,3.91-1.34,5.82-.44,1.85-.81,3.3-1.08,4.35l-3.5,13.27m-44.02-6.86c.77-1.42,1.16-3.08,1.17-4.99,0-1.73-.35-3.08-1.07-4.05-.72-1.03-1.82-1.71-3.31-2.04-1.49-.39-3.39-.41-5.71-.09l-3.56.5-.03,16,3.56-.5c2.26-.32,4.14-.85,5.63-1.6,1.49-.81,2.6-1.88,3.32-3.24"/>
    <path class="cls-10" d="m620.98,432.33l18.05-2.54,20.25,61.21-15.4,2.16-3.62-13.16-20.45,2.87-3.67,14.18-15.4,2.16,20.24-66.91Zm2.08,37.41l14.07-1.98-3.45-12.29c-.28-1.03-.66-2.41-1.15-4.13-.44-1.78-.9-3.59-1.4-5.43-.44-1.84-.79-3.4-1.07-4.67-.22,1.34-.58,3.03-1.08,5.07-.45,1.97-.89,3.91-1.34,5.82-.44,1.85-.81,3.3-1.08,4.35l-3.5,13.27"/>
    <path class="cls-10" d="m580.99,476.45l.07-38.25,14.08-1.98-.07,39.95c0,4.89-.93,9.33-2.76,13.34-1.83,3.95-4.59,7.23-8.3,9.83-3.7,2.61-8.37,4.31-14,5.1-7.95,1.12-14.02-.24-18.2-4.05-4.19-3.82-6.27-9.54-6.26-17.17l.07-40.04,14.16-1.99-.07,38.34c0,4.88.87,8.25,2.63,10.08,1.82,1.83,4.49,2.5,8.03,2,2.48-.35,4.5-1.11,6.05-2.28s2.68-2.82,3.4-4.94c.78-2.14,1.17-4.78,1.17-7.94Z"/>
    <path class="cls-10" d="m508.42,487.9l.02-12.24,24.43-3.43-.06,33.69c-3.1,1.57-6.47,2.96-10.11,4.19-3.59,1.16-7.51,2.04-11.76,2.64-5.79.81-10.79.29-14.98-1.56-4.19-1.85-7.41-5.06-9.67-9.63-2.2-4.57-3.29-10.5-3.28-17.77.01-6.67,1.21-12.62,3.59-17.84,2.38-5.22,5.87-9.49,10.45-12.81,4.64-3.33,10.3-5.47,16.98-6.41,3.37-.47,6.62-.57,9.77-.3,3.2.26,6.01.82,8.44,1.67l-4.58,12.7c-1.93-.8-4.06-1.34-6.37-1.61-2.32-.27-4.75-.22-7.29.13-3.59.5-6.63,1.82-9.11,3.96-2.43,2.07-4.26,4.74-5.48,8.01-1.22,3.21-1.83,6.78-1.84,10.71,0,4.11.51,7.58,1.55,10.42,1.05,2.83,2.61,4.93,4.71,6.31,2.15,1.3,4.88,1.72,8.19,1.26.94-.13,1.85-.29,2.73-.47.89-.24,1.71-.48,2.49-.71.77-.23,1.46-.45,2.07-.65l.02-11.8-10.93,1.54Z"/>
    <path class="cls-5" d="m710.31,45.97c-211.79,29.77-384.44,239.95-384.86,468.54-.43,228.6,171.53,390.35,383.32,360.59,211.79-29.77,384.44-239.95,384.86-468.55.43-228.59-171.53-390.34-383.32-360.58Zm.53,804.81c-199.37,28.02-361.24-124.25-360.84-339.44.4-215.18,162.92-413.04,362.29-441.06,199.36-28.02,361.23,124.25,360.83,339.43-.4,215.19-162.92,413.05-362.29,441.07Z"/>
    <path class="cls-10" d="m691.88,679.3l.28-150,140.92-19.8-.28,150-140.92,19.8Zm8.46-142.88l-.25,133.45,124.52-17.5.25-133.45-124.52,17.5Z"/>
    <polygon class="cls-2" points="555.82 584.29 562.03 605.67 584.98 602.45 566.65 619.91 573.8 641.17 555.74 631.51 537.63 646.25 544.86 622.97 526.58 610.66 549.53 607.43 555.82 584.29"/>
    <polygon class="cls-2" points="634.54 571.6 640.75 592.98 663.7 589.76 645.37 607.22 652.52 628.48 634.45 618.82 616.35 633.56 623.57 610.28 605.3 597.97 628.25 594.74 634.54 571.6"/>
    <polygon class="cls-2" points="875.62 534.54 881.3 555.92 902.28 552.7 885.52 570.16 892.06 591.42 875.54 581.76 858.99 596.5 865.59 573.22 848.89 560.91 869.87 557.68 875.62 534.54"/>
    <polygon class="cls-2" points="942.66 521.85 947.78 543.23 966.7 540.01 951.59 557.47 957.48 578.73 942.59 569.07 927.66 583.81 933.62 560.53 918.55 548.22 937.47 544.99 942.66 521.85"/>
    <path class="cls-17" d="m1298.25,986.07c.23.51.15,1.12-.24,1.53-1.29,1.4-3.49,2.55-7.75,2.55s-6.47-1.15-7.75-2.55c-.38-.41-.46-1.02-.24-1.53,4.56-10.32,3.53-33.58,3.53-33.58h8.92s-1.03,23.26,3.53,33.58Z"/>
    <path class="cls-9" d="m1311.04,925.44c-5.21-5.52-12.59-8.96-20.77-8.96-15.79,0-28.58,12.8-28.58,28.58,0,14.05,10.13,25.73,23.49,28.13,1.65.29,3.36.45,5.1.45s3.44-.15,5.09-.45c6.13-1.1,11.58-4.16,15.68-8.51v-39.24Z"/>
    <path class="cls-17" d="m273.22,1072.25c.13.44.08.96-.13,1.31-.72,1.19-1.94,2.18-4.31,2.18s-3.6-.98-4.31-2.18c-.21-.35-.26-.87-.13-1.31,2.54-8.81,1.96-18.27,1.96-18.27h4.96s-.57,9.46,1.96,18.27Z"/>
    <path class="cls-9" d="m284.44,1037.8c0,13.48-7.01,24.41-15.67,24.41s-15.67-10.93-15.67-24.41,7.01-52.71,15.67-52.71,15.67,39.23,15.67,52.71Z"/>
    <path class="cls-17" d="m1281.48,514.92c.17.39.11.85-.18,1.17-.98,1.06-2.65,1.94-5.89,1.94s-4.92-.88-5.89-1.94c-.29-.31-.35-.78-.18-1.17,3.47-7.85,2.68-25.53,2.68-25.53h6.78s-.78,17.68,2.68,25.53Z"/>
    <ellipse class="cls-9" cx="1275.41" cy="484.37" rx="17.91" ry="21.73"/>
    <path class="cls-17" d="m689,996.64c.13.44.08.96-.13,1.31-.72,1.19-1.94,2.18-4.31,2.18s-3.6-.98-4.31-2.18c-.21-.35-.26-.87-.13-1.31,2.54-8.81,1.96-18.27,1.96-18.27h4.96s-.57,9.46,1.96,18.27Z"/>
    <path class="cls-9" d="m700.22,962.19c0,13.48-7.01,24.41-15.67,24.41s-15.67-10.93-15.67-24.41,7.01-52.71,15.67-52.71,15.67,39.23,15.67,52.71Z"/>
    <path class="cls-17" d="m1083.96,954.2c.27.62.18,1.35-.28,1.85-1.55,1.69-4.21,3.08-9.37,3.08s-7.81-1.39-9.37-3.08c-.46-.5-.56-1.23-.28-1.85,5.51-12.47,4.26-40.58,4.26-40.58h10.78s-1.25,28.1,4.26,40.58Z"/>
    <ellipse class="cls-9" cx="1074.75" cy="886.96" rx="29.87" ry="34.54"/>
    <polygon class="cls-14" points="1001.19 1040.45 974.47 1055.88 940.51 1036.32 913.79 1020.89 940.51 1005.47 967.23 1020.89 1001.19 1040.45"/>
    <polygon class="cls-14" points="1301.54 867.09 1274.82 882.53 1212.32 846.36 1185.6 830.94 1212.32 815.51 1239.04 830.94 1301.54 867.09"/>
    <polygon class="cls-14" points="1208.63 454.79 1184.44 468.77 1161.38 482.08 1137.18 468.1 1160.24 454.79 1184.44 440.82 1208.63 454.79"/>
    <path class="cls-10" d="m771.57,544.89c10.13-1.26,18.32,6.38,18.3,17.07-.02,10.69-8.25,20.38-18.38,21.64-10.13,1.26-18.32-6.38-18.3-17.07.02-10.69,8.25-20.38,18.38-21.64Z"/>
    <path class="cls-10" d="m771.57,544.89c-10.13,1.26-18.36,10.95-18.38,21.64-.02,10.69,8.18,18.33,18.3,17.07l-41,5.11c-.99.12-1.79-.62-1.79-1.67l.06-34.92c0-1.05.81-1.99,1.8-2.12l41-5.11Z"/>
    <path class="cls-10" d="m781.93,594.95c12.58-1.53,22.75,7.76,22.73,20.75-.02,12.99-10.24,24.77-22.82,26.3-12.58,1.53-22.75-7.76-22.73-20.75.02-12.99,10.24-24.77,22.82-26.3Z"/>
    <path class="cls-10" d="m781.93,594.95c-12.58,1.53-22.79,13.31-22.82,26.3-.02,12.99,10.15,22.28,22.73,20.75l-51.2,6.24c-1.07.13-1.93-.66-1.93-1.76l.08-43.05c0-1.1.87-2.1,1.94-2.23l51.2-6.24Z"/>
  </g>
</svg>