<svg width="16" height="14" viewBox="0 0 16 14" fill="none" xmlns="http://www.w3.org/2000/svg">
<path d="M4.86387 13.3635C10.6924 13.3635 13.8809 8.534 13.8809 4.35323C13.8809 4.21809 13.8809 4.08101 13.8751 3.94587C14.4958 3.4965 15.0316 2.94016 15.4572 2.3029C14.8774 2.55857 14.2629 2.72707 13.6337 2.80294C14.2965 2.40681 14.7928 1.78353 15.0306 1.04896C14.4079 1.41783 13.7264 1.67678 13.0159 1.81445C12.5383 1.30576 11.9062 0.968761 11.2177 0.855664C10.5291 0.742568 9.82242 0.859684 9.20715 1.18887C8.59187 1.51806 8.10231 2.04095 7.81431 2.67654C7.5263 3.31213 7.45591 4.02496 7.61405 4.70461C6.35407 4.64143 5.12144 4.3141 3.9961 3.74387C2.87076 3.17363 1.87785 2.37322 1.08177 1.39454C0.677637 2.09255 0.554302 2.9182 0.736816 3.70383C0.91933 4.48947 1.39401 5.17619 2.06446 5.62455C1.56206 5.60748 1.07069 5.47257 0.630008 5.2307V5.27414C0.630874 6.00535 0.884182 6.71383 1.34711 7.27983C1.81005 7.84583 2.45421 8.23464 3.17071 8.38052C2.89875 8.45544 2.61781 8.49279 2.33572 8.49153C2.13685 8.49213 1.93838 8.47371 1.74301 8.43651C1.94552 9.06595 2.33984 9.61628 2.87074 10.0104C3.40164 10.4046 4.04252 10.6228 4.70363 10.6345C3.58054 11.5166 2.19324 11.995 0.765152 11.9927C0.513515 11.9938 0.262053 11.9793 0.012207 11.9493C1.46164 12.8733 3.14494 13.364 4.86387 13.3635Z" fill="#0072EF"/>
</svg>
